<?xml version="1.0" encoding="utf-8"?>
<!-- Generator: Adobe Illustrator 19.2.1, SVG Export Plug-In . SVG Version: 6.00 Build 0)  -->
<svg version="1.1" id="Layer_1" xmlns="http://www.w3.org/2000/svg" xmlns:xlink="http://www.w3.org/1999/xlink" x="0px" y="0px"
	 viewBox="0 0 484.3 326.9" style="enable-background:new 0 0 484.3 326.9;" xml:space="preserve">
<style type="text/css">
	.st0{fill:#3A2E87;}
	.st1{fill:#676767;}
	.st2{fill-rule:evenodd;clip-rule:evenodd;fill:#FFFFFF;}
</style>
<g>
	<path class="st0" d="M-1148.5,74.1l24.3,18.6h46.8l-32.9-49.8c-3.5-5.3-2.3-12.7,2.8-16.4l207.6-152.6l-72.8-55.7
		c-5-3.8-12-2.6-15.6,2.6L-1151,57.7C-1154.6,62.9-1153.5,70.3-1148.5,74.1"/>
	<path class="st0" d="M-762.9,317.5h-71.6c-25,0-45.5-21.6-45.5-48c0-26.4,20.5-48,45.5-48h71.6h20.7h5.5v-62.3V146
		c0-22.9-17.8-41.7-39.6-41.7h-27.1h-258.3h-65.3h-37.7h-0.5c-9.8,0-17.8-8.4-17.8-18.7c0-9.4,6.6-17.2,15.2-18.5
		c0-2.4,0.7-4.8,2.1-6.9l9.8-14.2h-8.8c-21.8,0-39.6,18.8-39.6,41.7V146v188.8v58.4c0,22.9,17.8,41.7,39.6,41.7h388.5
		c21.8,0,39.6-18.8,39.6-41.7v-58.4v-17.2h-5.5H-762.9z M-754.9,206.7c0,1.5-1.1,2.7-2.5,2.7c-1.4,0-2.5-1.2-2.5-2.7v-12.5
		c0-1.5,1.1-2.7,2.5-2.7c1.4,0,2.5,1.2,2.5,2.7V206.7z M-754.9,181.6c0,1.5-1.1,2.7-2.5,2.7c-1.4,0-2.5-1.2-2.5-2.7v-12.5
		c0-1.5,1.1-2.7,2.5-2.7c1.4,0,2.5,1.2,2.5,2.7V181.6z M-754.9,144.1v12.5c0,1.5-1.1,2.7-2.5,2.7c-1.4,0-2.5-1.2-2.5-2.7v-12.5
		c0-1.5,1.1-2.7,2.5-2.7C-756,141.4-754.9,142.6-754.9,144.1 M-773.2,126c0.2-1.5,1.4-2.5,2.8-2.3c4.6,0.6,8.8,3.1,11.7,7
		c0.9,1.2,0.7,2.8-0.4,3.8c-0.5,0.4-1,0.6-1.6,0.6c-0.8,0-1.5-0.4-2-1c-2.1-2.8-5.1-4.6-8.4-5C-772.4,128.8-773.4,127.4-773.2,126
		 M-794.4,123.5h11.9c1.4,0,2.5,1.2,2.5,2.7c0,1.5-1.1,2.7-2.5,2.7h-11.9c-1.4,0-2.5-1.2-2.5-2.7
		C-797,124.7-795.8,123.5-794.4,123.5 M-818.2,123.5h11.9c1.4,0,2.5,1.2,2.5,2.7c0,1.5-1.1,2.7-2.5,2.7h-11.9
		c-1.4,0-2.5-1.2-2.5-2.7C-820.7,124.7-819.6,123.5-818.2,123.5 M-841.9,123.5h11.9c1.4,0,2.5,1.2,2.5,2.7c0,1.5-1.1,2.7-2.5,2.7
		h-11.9c-1.4,0-2.5-1.2-2.5-2.7C-844.5,124.7-843.3,123.5-841.9,123.5 M-865.7,123.5h11.9c1.4,0,2.5,1.2,2.5,2.7
		c0,1.5-1.1,2.7-2.5,2.7h-11.9c-1.4,0-2.5-1.2-2.5-2.7C-868.2,124.7-867.1,123.5-865.7,123.5 M-889.4,123.5h11.9
		c1.4,0,2.5,1.2,2.5,2.7c0,1.5-1.1,2.7-2.5,2.7h-11.9c-1.4,0-2.5-1.2-2.5-2.7C-891.9,124.7-890.8,123.5-889.4,123.5 M-913.1,123.5
		h11.9c1.4,0,2.5,1.2,2.5,2.7c0,1.5-1.1,2.7-2.5,2.7h-11.9c-1.4,0-2.5-1.2-2.5-2.7C-915.7,124.7-914.5,123.5-913.1,123.5
		 M-936.9,123.5h11.9c1.4,0,2.5,1.2,2.5,2.7c0,1.5-1.1,2.7-2.5,2.7h-11.9c-1.4,0-2.5-1.2-2.5-2.7
		C-939.4,124.7-938.3,123.5-936.9,123.5 M-960.6,123.5h11.9c1.4,0,2.5,1.2,2.5,2.7c0,1.5-1.1,2.7-2.5,2.7h-11.9
		c-1.4,0-2.5-1.2-2.5-2.7C-963.2,124.7-962,123.5-960.6,123.5 M-984.4,123.5h11.9c1.4,0,2.5,1.2,2.5,2.7c0,1.5-1.1,2.7-2.5,2.7
		h-11.9c-1.4,0-2.5-1.2-2.5-2.7C-986.9,124.7-985.8,123.5-984.4,123.5 M-1008.1,123.5h11.9c1.4,0,2.5,1.2,2.5,2.7
		c0,1.5-1.1,2.7-2.5,2.7h-11.9c-1.4,0-2.5-1.2-2.5-2.7C-1010.6,124.7-1009.5,123.5-1008.1,123.5 M-1031.8,123.5h11.9
		c1.4,0,2.5,1.2,2.5,2.7c0,1.5-1.1,2.7-2.5,2.7h-11.9c-1.4,0-2.5-1.2-2.5-2.7C-1034.4,124.7-1033.2,123.5-1031.8,123.5
		 M-1055.6,123.5h11.9c1.4,0,2.5,1.2,2.5,2.7c0,1.5-1.1,2.7-2.5,2.7h-11.9c-1.4,0-2.5-1.2-2.5-2.7
		C-1058.1,124.7-1057,123.5-1055.6,123.5 M-1079.3,123.5h11.9c1.4,0,2.5,1.2,2.5,2.7c0,1.5-1.1,2.7-2.5,2.7h-11.9
		c-1.4,0-2.5-1.2-2.5-2.7C-1081.9,124.7-1080.7,123.5-1079.3,123.5 M-1103.1,123.5h11.9c1.4,0,2.5,1.2,2.5,2.7
		c0,1.5-1.1,2.7-2.5,2.7h-11.9c-1.4,0-2.5-1.2-2.5-2.7C-1105.6,124.7-1104.5,123.5-1103.1,123.5 M-1126.8,123.5h11.9
		c1.4,0,2.5,1.2,2.5,2.7c0,1.5-1.1,2.7-2.5,2.7h-11.9c-1.4,0-2.5-1.2-2.5-2.7C-1129.3,124.7-1128.2,123.5-1126.8,123.5
		 M-1150.6,123.5h11.9c1.4,0,2.5,1.2,2.5,2.7c0,1.5-1.1,2.7-2.5,2.7h-11.9c-1.4,0-2.5-1.2-2.5-2.7
		C-1153.1,124.7-1152,123.5-1150.6,123.5 M-1180.1,142.1c0-1.5,1.2-2.7,2.6-2.6c1.4,0,2.5,1.2,2.5,2.7l0,12.5c0,1.5-1.1,2.7-2.5,2.7
		c-1.4,0-2.5-1.2-2.5-2.7L-1180.1,142.1z M-1180.1,167.1c0-1.5,1.1-2.7,2.5-2.7c1.4,0,2.5,1.2,2.5,2.7v12.5c0,1.5-1.1,2.7-2.5,2.7
		c-1.4,0-2.5-1.2-2.5-2.7V167.1z M-1180.1,192.2c0-1.5,1.1-2.7,2.5-2.7c1.4,0,2.5,1.2,2.5,2.7v12.5c0,1.5-1.1,2.7-2.5,2.7
		c-1.4,0-2.5-1.2-2.5-2.7V192.2z M-1180.1,217.2c0-1.5,1.1-2.7,2.5-2.7c1.4,0,2.5,1.2,2.5,2.7v12.5c0,1.5-1.1,2.7-2.5,2.7
		c-1.4,0-2.5-1.2-2.5-2.7V217.2z M-1180.1,242.3c0-1.5,1.1-2.7,2.5-2.7c1.4,0,2.5,1.2,2.5,2.7v12.5c0,1.5-1.1,2.7-2.5,2.7
		c-1.4,0-2.5-1.2-2.5-2.7V242.3z M-1180.1,267.3c0-1.5,1.1-2.7,2.5-2.7c1.4,0,2.5,1.2,2.5,2.7v12.5c0,1.5-1.1,2.7-2.5,2.7
		c-1.4,0-2.5-1.2-2.5-2.7V267.3z M-1180.1,292.3c0-1.5,1.1-2.7,2.5-2.7c1.4,0,2.5,1.2,2.5,2.7v12.5c0,1.5-1.1,2.7-2.5,2.7
		c-1.4,0-2.5-1.2-2.5-2.7V292.3z M-1180.1,317.4c0-1.5,1.1-2.7,2.5-2.7c1.4,0,2.5,1.2,2.5,2.7v12.5c0,1.5-1.1,2.7-2.5,2.7
		c-1.4,0-2.5-1.2-2.5-2.7V317.4z M-1180.1,342.4c0-1.5,1.1-2.7,2.5-2.7c1.4,0,2.5,1.2,2.5,2.7V355c0,1.5-1.1,2.7-2.5,2.7
		c-1.4,0-2.5-1.2-2.5-2.7V342.4z M-1180.1,367.5c0-1.5,1.1-2.7,2.5-2.7c1.4,0,2.5,1.2,2.5,2.7V380c0,1.5-1.1,2.7-2.5,2.7
		c-1.4,0-2.5-1.2-2.5-2.7V367.5z M-1172.8,406.4c-0.5,0.4-1,0.6-1.6,0.6c-0.8,0-1.5-0.4-2-1c-2.5-3.3-3.8-7.3-3.8-11.5v-1.9
		c0-1.5,1.1-2.7,2.5-2.7c1.4,0,2.5,1.2,2.5,2.7v1.9c0,3,0.9,5.8,2.7,8.2C-1171.5,403.8-1171.7,405.5-1172.8,406.4 M-1173.1,133.5
		c-0.7,0-1.3-0.3-1.8-0.8c-1-1-1-2.7,0-3.8c3.3-3.5,7.8-5.4,12.5-5.5h0c1.4,0,2.5,1.2,2.5,2.7c0,1.5-1.1,2.7-2.5,2.7
		c-3.3,0-6.5,1.4-8.9,3.9C-1171.8,133.3-1172.5,133.5-1173.1,133.5 M-1152.5,413.1h-9.9c-0.8,0-1.5-0.1-2.3-0.2
		c-1.4-0.2-2.4-1.5-2.2-3c0.2-1.5,1.4-2.5,2.8-2.3c0.5,0.1,1.1,0.1,1.6,0.1h9.9c1.4,0,2.5,1.2,2.5,2.7
		C-1149.9,411.9-1151.1,413.1-1152.5,413.1 M-1128.7,413.1h-11.9c-1.4,0-2.5-1.2-2.5-2.7c0-1.5,1.1-2.7,2.5-2.7h11.9
		c1.4,0,2.5,1.2,2.5,2.7C-1126.2,411.9-1127.3,413.1-1128.7,413.1 M-1105,413.1h-11.9c-1.4,0-2.5-1.2-2.5-2.7c0-1.5,1.1-2.7,2.5-2.7
		h11.9c1.4,0,2.5,1.2,2.5,2.7C-1102.5,411.9-1103.6,413.1-1105,413.1 M-1081.2,413.1h-11.9c-1.4,0-2.5-1.2-2.5-2.7
		c0-1.5,1.1-2.7,2.5-2.7h11.9c1.4,0,2.5,1.2,2.5,2.7C-1078.7,411.9-1079.8,413.1-1081.2,413.1 M-1057.5,413.1h-11.9
		c-1.4,0-2.5-1.2-2.5-2.7c0-1.5,1.1-2.7,2.5-2.7h11.9c1.4,0,2.5,1.2,2.5,2.7C-1055,411.9-1056.1,413.1-1057.5,413.1 M-1033.8,413.1
		h-11.9c-1.4,0-2.5-1.2-2.5-2.7c0-1.5,1.1-2.7,2.5-2.7h11.9c1.4,0,2.5,1.2,2.5,2.7C-1031.2,411.9-1032.4,413.1-1033.8,413.1
		 M-1010,413.1h-11.9c-1.4,0-2.5-1.2-2.5-2.7c0-1.5,1.1-2.7,2.5-2.7h11.9c1.4,0,2.5,1.2,2.5,2.7
		C-1007.5,411.9-1008.6,413.1-1010,413.1 M-986.3,413.1h-11.9c-1.4,0-2.5-1.2-2.5-2.7c0-1.5,1.1-2.7,2.5-2.7h11.9
		c1.4,0,2.5,1.2,2.5,2.7C-983.7,411.9-984.9,413.1-986.3,413.1 M-962.5,413.1h-11.9c-1.4,0-2.5-1.2-2.5-2.7c0-1.5,1.1-2.7,2.5-2.7
		h11.9c1.4,0,2.5,1.2,2.5,2.7C-960,411.9-961.1,413.1-962.5,413.1 M-938.8,413.1h-11.9c-1.4,0-2.5-1.2-2.5-2.7
		c0-1.5,1.1-2.7,2.5-2.7h11.9c1.4,0,2.5,1.2,2.5,2.7C-936.3,411.9-937.4,413.1-938.8,413.1 M-915.1,413.1h-11.9
		c-1.4,0-2.5-1.2-2.5-2.7c0-1.5,1.1-2.7,2.5-2.7h11.9c1.4,0,2.5,1.2,2.5,2.7C-912.5,411.9-913.7,413.1-915.1,413.1 M-891.3,413.1
		h-11.9c-1.4,0-2.5-1.2-2.5-2.7c0-1.5,1.1-2.7,2.5-2.7h11.9c1.4,0,2.5,1.2,2.5,2.7C-888.8,411.9-889.9,413.1-891.3,413.1
		 M-867.6,413.1h-11.9c-1.4,0-2.5-1.2-2.5-2.7c0-1.5,1.1-2.7,2.5-2.7h11.9c1.4,0,2.5,1.2,2.5,2.7
		C-865,411.9-866.2,413.1-867.6,413.1 M-843.8,413.1h-11.9c-1.4,0-2.5-1.2-2.5-2.7c0-1.5,1.1-2.7,2.5-2.7h11.9
		c1.4,0,2.5,1.2,2.5,2.7C-841.3,411.9-842.4,413.1-843.8,413.1 M-820.1,413.1H-832c-1.4,0-2.5-1.2-2.5-2.7c0-1.5,1.1-2.7,2.5-2.7
		h11.9c1.4,0,2.5,1.2,2.5,2.7C-817.6,411.9-818.7,413.1-820.1,413.1 M-796.4,413.1h-11.9c-1.4,0-2.5-1.2-2.5-2.7
		c0-1.5,1.1-2.7,2.5-2.7h11.9c1.4,0,2.5,1.2,2.5,2.7C-793.8,411.9-795,413.1-796.4,413.1 M-772.6,413.1h-11.9
		c-1.4,0-2.5-1.2-2.5-2.7c0-1.5,1.1-2.7,2.5-2.7h11.9c1.4,0,2.6,1.2,2.6,2.7C-770,411.9-771.2,413.1-772.6,413.1 M-760.1,407.6
		c-0.5,0.5-1.1,0.8-1.8,0.8c-0.7,0-1.3-0.3-1.8-0.8c-1-1-1-2.7,0-3.8c2.4-2.5,3.7-5.8,3.7-9.4c0-1.5,1.1-2.7,2.5-2.7h0
		c1.4,0,2.5,1.2,2.5,2.7C-754.9,399.5-756.7,404.1-760.1,407.6 M-754.9,382c0,1.5-1.1,2.7-2.5,2.7c-1.4,0-2.5-1.2-2.5-2.7v-12.5
		c0-1.5,1.1-2.7,2.5-2.7c1.4,0,2.5,1.2,2.5,2.7V382z M-754.9,356.9c0,1.5-1.1,2.7-2.5,2.7c-1.4,0-2.5-1.2-2.5-2.7v-12.5
		c0-1.5,1.1-2.7,2.5-2.7c1.4,0,2.5,1.2,2.5,2.7V356.9z M-754.9,332.7c0,1-1.1,1.9-2.5,1.9c-1.4,0-2.5-0.8-2.5-1.9v-8.9
		c0-1,1.1-1.9,2.5-1.9c1.4,0,2.5,0.8,2.5,1.9V332.7z"/>
	<path class="st0" d="M-733,233.7h-28.9h-15.5h-53.5c-18.7,0-34,16.1-34,35.8c0,19.7,15.3,35.8,34,35.8h53.5h15.5h28.9
		c6.1,0,11.2-5.3,11.2-11.8v-24.1v-24.1C-721.9,239-726.9,233.7-733,233.7 M-837.5,280.8c-5.9,0-10.6-5-10.6-11.2
		c0-6.2,4.8-11.2,10.6-11.2c5.9,0,10.6,5,10.6,11.2C-826.8,275.8-831.6,280.8-837.5,280.8"/>
	<path class="st0" d="M-1095.7,45.7l31.1,47h211.9l94-69.1c5-3.7,6.3-11.1,2.8-16.4L-849.9-135c-3.5-5.3-10.5-6.6-15.5-2.9
		l-227.5,167.2C-1097.9,33-1099.2,40.3-1095.7,45.7 M-1067.4,36.6l199.7-146.8c5-3.7,12-2.4,15.5,2.9l3.9,5.9
		c3.5,5.3,2.3,12.7-2.8,16.4l-199.7,146.8c-5,3.7-12,2.4-15.5-2.9l-3.9-5.9C-1073.7,47.7-1072.5,40.3-1067.4,36.6"/>
	<path class="st0" d="M-796.7,66.8h49.7c-5.1-9.3-13.5-16.3-23.4-19.3L-796.7,66.8z"/>
</g>
<g>
	<path class="st1" d="M-1691.6,74.1l24.3,18.6h46.8l-32.9-49.8c-3.5-5.3-2.3-12.7,2.8-16.4l207.6-152.6l-72.8-55.7
		c-5-3.8-12-2.6-15.6,2.6l-162.7,236.8C-1697.7,62.9-1696.5,70.3-1691.6,74.1"/>
	<path class="st1" d="M-1305.9,317.5h-71.6c-25,0-45.5-21.6-45.5-48c0-26.4,20.5-48,45.5-48h71.6h20.7h5.5v-62.3V146
		c0-22.9-17.8-41.7-39.6-41.7h-27.1h-258.3h-65.3h-37.7h-0.5c-9.8,0-17.8-8.4-17.8-18.7c0-9.4,6.6-17.2,15.2-18.5
		c0-2.4,0.7-4.8,2.1-6.9l9.8-14.2h-8.8c-21.8,0-39.6,18.8-39.6,41.7V146v188.8v58.4c0,22.9,17.8,41.7,39.6,41.7h388.5
		c21.8,0,39.6-18.8,39.6-41.7v-58.4v-17.2h-5.5H-1305.9z M-1297.9,206.7c0,1.5-1.1,2.7-2.5,2.7c-1.4,0-2.5-1.2-2.5-2.7v-12.5
		c0-1.5,1.1-2.7,2.5-2.7c1.4,0,2.5,1.2,2.5,2.7V206.7z M-1297.9,181.6c0,1.5-1.1,2.7-2.5,2.7c-1.4,0-2.5-1.2-2.5-2.7v-12.5
		c0-1.5,1.1-2.7,2.5-2.7c1.4,0,2.5,1.2,2.5,2.7V181.6z M-1297.9,144.1v12.5c0,1.5-1.1,2.7-2.5,2.7c-1.4,0-2.5-1.2-2.5-2.7v-12.5
		c0-1.5,1.1-2.7,2.5-2.7C-1299.1,141.4-1297.9,142.6-1297.9,144.1 M-1316.3,126c0.2-1.5,1.4-2.5,2.8-2.3c4.6,0.6,8.8,3.1,11.7,7
		c0.9,1.2,0.7,2.8-0.4,3.8c-0.5,0.4-1,0.6-1.6,0.6c-0.8,0-1.5-0.4-2-1c-2.1-2.8-5.1-4.6-8.4-5
		C-1315.5,128.8-1316.5,127.4-1316.3,126 M-1337.5,123.5h11.9c1.4,0,2.5,1.2,2.5,2.7c0,1.5-1.1,2.7-2.5,2.7h-11.9
		c-1.4,0-2.5-1.2-2.5-2.7C-1340,124.7-1338.9,123.5-1337.5,123.5 M-1361.2,123.5h11.9c1.4,0,2.5,1.2,2.5,2.7c0,1.5-1.1,2.7-2.5,2.7
		h-11.9c-1.4,0-2.5-1.2-2.5-2.7C-1363.8,124.7-1362.6,123.5-1361.2,123.5 M-1385,123.5h11.9c1.4,0,2.5,1.2,2.5,2.7
		c0,1.5-1.1,2.7-2.5,2.7h-11.9c-1.4,0-2.5-1.2-2.5-2.7C-1387.5,124.7-1386.4,123.5-1385,123.5 M-1408.7,123.5h11.9
		c1.4,0,2.5,1.2,2.5,2.7c0,1.5-1.1,2.7-2.5,2.7h-11.9c-1.4,0-2.5-1.2-2.5-2.7C-1411.3,124.7-1410.1,123.5-1408.7,123.5
		 M-1432.5,123.5h11.9c1.4,0,2.5,1.2,2.5,2.7c0,1.5-1.1,2.7-2.5,2.7h-11.9c-1.4,0-2.5-1.2-2.5-2.7
		C-1435,124.7-1433.9,123.5-1432.5,123.5 M-1456.2,123.5h11.9c1.4,0,2.5,1.2,2.5,2.7c0,1.5-1.1,2.7-2.5,2.7h-11.9
		c-1.4,0-2.5-1.2-2.5-2.7C-1458.7,124.7-1457.6,123.5-1456.2,123.5 M-1480,123.5h11.9c1.4,0,2.5,1.2,2.5,2.7c0,1.5-1.1,2.7-2.5,2.7
		h-11.9c-1.4,0-2.5-1.2-2.5-2.7C-1482.5,124.7-1481.4,123.5-1480,123.5 M-1503.7,123.5h11.9c1.4,0,2.5,1.2,2.5,2.7
		c0,1.5-1.1,2.7-2.5,2.7h-11.9c-1.4,0-2.5-1.2-2.5-2.7C-1506.2,124.7-1505.1,123.5-1503.7,123.5 M-1527.4,123.5h11.9
		c1.4,0,2.5,1.2,2.5,2.7c0,1.5-1.1,2.7-2.5,2.7h-11.9c-1.4,0-2.5-1.2-2.5-2.7C-1530,124.7-1528.8,123.5-1527.4,123.5 M-1551.2,123.5
		h11.9c1.4,0,2.5,1.2,2.5,2.7c0,1.5-1.1,2.7-2.5,2.7h-11.9c-1.4,0-2.5-1.2-2.5-2.7C-1553.7,124.7-1552.6,123.5-1551.2,123.5
		 M-1574.9,123.5h11.9c1.4,0,2.5,1.2,2.5,2.7c0,1.5-1.1,2.7-2.5,2.7h-11.9c-1.4,0-2.5-1.2-2.5-2.7
		C-1577.5,124.7-1576.3,123.5-1574.9,123.5 M-1598.7,123.5h11.9c1.4,0,2.5,1.2,2.5,2.7c0,1.5-1.1,2.7-2.5,2.7h-11.9
		c-1.4,0-2.5-1.2-2.5-2.7C-1601.2,124.7-1600.1,123.5-1598.7,123.5 M-1622.4,123.5h11.9c1.4,0,2.5,1.2,2.5,2.7
		c0,1.5-1.1,2.7-2.5,2.7h-11.9c-1.4,0-2.5-1.2-2.5-2.7C-1624.9,124.7-1623.8,123.5-1622.4,123.5 M-1646.1,123.5h11.9
		c1.4,0,2.5,1.2,2.5,2.7c0,1.5-1.1,2.7-2.5,2.7h-11.9c-1.4,0-2.5-1.2-2.5-2.7C-1648.7,124.7-1647.5,123.5-1646.1,123.5
		 M-1669.9,123.5h11.9c1.4,0,2.5,1.2,2.5,2.7c0,1.5-1.1,2.7-2.5,2.7h-11.9c-1.4,0-2.5-1.2-2.5-2.7
		C-1672.4,124.7-1671.3,123.5-1669.9,123.5 M-1693.6,123.5h11.9c1.4,0,2.5,1.2,2.5,2.7c0,1.5-1.1,2.7-2.5,2.7h-11.9
		c-1.4,0-2.5-1.2-2.5-2.7C-1696.2,124.7-1695,123.5-1693.6,123.5 M-1723.2,142.1c0-1.5,1.2-2.7,2.6-2.6c1.4,0,2.5,1.2,2.5,2.7
		l0,12.5c0,1.5-1.1,2.7-2.5,2.7c-1.4,0-2.5-1.2-2.5-2.7L-1723.2,142.1z M-1723.2,167.1c0-1.5,1.1-2.7,2.5-2.7c1.4,0,2.5,1.2,2.5,2.7
		v12.5c0,1.5-1.1,2.7-2.5,2.7c-1.4,0-2.5-1.2-2.5-2.7V167.1z M-1723.2,192.2c0-1.5,1.1-2.7,2.5-2.7c1.4,0,2.5,1.2,2.5,2.7v12.5
		c0,1.5-1.1,2.7-2.5,2.7c-1.4,0-2.5-1.2-2.5-2.7V192.2z M-1723.2,217.2c0-1.5,1.1-2.7,2.5-2.7c1.4,0,2.5,1.2,2.5,2.7v12.5
		c0,1.5-1.1,2.7-2.5,2.7c-1.4,0-2.5-1.2-2.5-2.7V217.2z M-1723.2,242.3c0-1.5,1.1-2.7,2.5-2.7c1.4,0,2.5,1.2,2.5,2.7v12.5
		c0,1.5-1.1,2.7-2.5,2.7c-1.4,0-2.5-1.2-2.5-2.7V242.3z M-1723.2,267.3c0-1.5,1.1-2.7,2.5-2.7c1.4,0,2.5,1.2,2.5,2.7v12.5
		c0,1.5-1.1,2.7-2.5,2.7c-1.4,0-2.5-1.2-2.5-2.7V267.3z M-1723.2,292.3c0-1.5,1.1-2.7,2.5-2.7c1.4,0,2.5,1.2,2.5,2.7v12.5
		c0,1.5-1.1,2.7-2.5,2.7c-1.4,0-2.5-1.2-2.5-2.7V292.3z M-1723.2,317.4c0-1.5,1.1-2.7,2.5-2.7c1.4,0,2.5,1.2,2.5,2.7v12.5
		c0,1.5-1.1,2.7-2.5,2.7c-1.4,0-2.5-1.2-2.5-2.7V317.4z M-1723.2,342.4c0-1.5,1.1-2.7,2.5-2.7c1.4,0,2.5,1.2,2.5,2.7V355
		c0,1.5-1.1,2.7-2.5,2.7c-1.4,0-2.5-1.2-2.5-2.7V342.4z M-1723.2,367.5c0-1.5,1.1-2.7,2.5-2.7c1.4,0,2.5,1.2,2.5,2.7V380
		c0,1.5-1.1,2.7-2.5,2.7c-1.4,0-2.5-1.2-2.5-2.7V367.5z M-1715.9,406.4c-0.5,0.4-1,0.6-1.6,0.6c-0.8,0-1.5-0.4-2-1
		c-2.5-3.3-3.8-7.3-3.8-11.5v-1.9c0-1.5,1.1-2.7,2.5-2.7c1.4,0,2.5,1.2,2.5,2.7v1.9c0,3,0.9,5.8,2.7,8.2
		C-1714.6,403.8-1714.8,405.5-1715.9,406.4 M-1716.2,133.5c-0.7,0-1.3-0.3-1.8-0.8c-1-1-1-2.7,0-3.8c3.3-3.5,7.8-5.4,12.5-5.5h0
		c1.4,0,2.5,1.2,2.5,2.7c0,1.5-1.1,2.7-2.5,2.7c-3.3,0-6.5,1.4-8.9,3.9C-1714.9,133.3-1715.5,133.5-1716.2,133.5 M-1695.5,413.1
		h-9.9c-0.8,0-1.5-0.1-2.3-0.2c-1.4-0.2-2.4-1.5-2.2-3c0.2-1.5,1.4-2.5,2.8-2.3c0.5,0.1,1.1,0.1,1.6,0.1h9.9c1.4,0,2.5,1.2,2.5,2.7
		C-1693,411.9-1694.1,413.1-1695.5,413.1 M-1671.8,413.1h-11.9c-1.4,0-2.5-1.2-2.5-2.7c0-1.5,1.1-2.7,2.5-2.7h11.9
		c1.4,0,2.5,1.2,2.5,2.7C-1669.3,411.9-1670.4,413.1-1671.8,413.1 M-1648.1,413.1h-11.9c-1.4,0-2.5-1.2-2.5-2.7
		c0-1.5,1.1-2.7,2.5-2.7h11.9c1.4,0,2.5,1.2,2.5,2.7C-1645.5,411.9-1646.7,413.1-1648.1,413.1 M-1624.3,413.1h-11.9
		c-1.4,0-2.5-1.2-2.5-2.7c0-1.5,1.1-2.7,2.5-2.7h11.9c1.4,0,2.5,1.2,2.5,2.7C-1621.8,411.9-1622.9,413.1-1624.3,413.1
		 M-1600.6,413.1h-11.9c-1.4,0-2.5-1.2-2.5-2.7c0-1.5,1.1-2.7,2.5-2.7h11.9c1.4,0,2.5,1.2,2.5,2.7
		C-1598,411.9-1599.2,413.1-1600.6,413.1 M-1576.8,413.1h-11.9c-1.4,0-2.5-1.2-2.5-2.7c0-1.5,1.1-2.7,2.5-2.7h11.9
		c1.4,0,2.5,1.2,2.5,2.7C-1574.3,411.9-1575.4,413.1-1576.8,413.1 M-1553.1,413.1h-11.9c-1.4,0-2.5-1.2-2.5-2.7
		c0-1.5,1.1-2.7,2.5-2.7h11.9c1.4,0,2.5,1.2,2.5,2.7C-1550.6,411.9-1551.7,413.1-1553.1,413.1 M-1529.3,413.1h-11.9
		c-1.4,0-2.5-1.2-2.5-2.7c0-1.5,1.1-2.7,2.5-2.7h11.9c1.4,0,2.5,1.2,2.5,2.7C-1526.8,411.9-1527.9,413.1-1529.3,413.1
		 M-1505.6,413.1h-11.9c-1.4,0-2.5-1.2-2.5-2.7c0-1.5,1.1-2.7,2.5-2.7h11.9c1.4,0,2.5,1.2,2.5,2.7
		C-1503.1,411.9-1504.2,413.1-1505.6,413.1 M-1481.9,413.1h-11.9c-1.4,0-2.5-1.2-2.5-2.7c0-1.5,1.1-2.7,2.5-2.7h11.9
		c1.4,0,2.5,1.2,2.5,2.7C-1479.3,411.9-1480.5,413.1-1481.9,413.1 M-1458.1,413.1h-11.9c-1.4,0-2.5-1.2-2.5-2.7
		c0-1.5,1.1-2.7,2.5-2.7h11.9c1.4,0,2.5,1.2,2.5,2.7C-1455.6,411.9-1456.7,413.1-1458.1,413.1 M-1434.4,413.1h-11.9
		c-1.4,0-2.5-1.2-2.5-2.7c0-1.5,1.1-2.7,2.5-2.7h11.9c1.4,0,2.5,1.2,2.5,2.7C-1431.9,411.9-1433,413.1-1434.4,413.1 M-1410.6,413.1
		h-11.9c-1.4,0-2.5-1.2-2.5-2.7c0-1.5,1.1-2.7,2.5-2.7h11.9c1.4,0,2.5,1.2,2.5,2.7C-1408.1,411.9-1409.2,413.1-1410.6,413.1
		 M-1386.9,413.1h-11.9c-1.4,0-2.5-1.2-2.5-2.7c0-1.5,1.1-2.7,2.5-2.7h11.9c1.4,0,2.5,1.2,2.5,2.7
		C-1384.4,411.9-1385.5,413.1-1386.9,413.1 M-1363.2,413.1h-11.9c-1.4,0-2.5-1.2-2.5-2.7c0-1.5,1.1-2.7,2.5-2.7h11.9
		c1.4,0,2.5,1.2,2.5,2.7C-1360.6,411.9-1361.8,413.1-1363.2,413.1 M-1339.4,413.1h-11.9c-1.4,0-2.5-1.2-2.5-2.7
		c0-1.5,1.1-2.7,2.5-2.7h11.9c1.4,0,2.5,1.2,2.5,2.7C-1336.9,411.9-1338,413.1-1339.4,413.1 M-1315.6,413.1h-11.9
		c-1.4,0-2.5-1.2-2.5-2.7c0-1.5,1.1-2.7,2.5-2.7h11.9c1.4,0,2.6,1.2,2.6,2.7C-1313.1,411.9-1314.2,413.1-1315.6,413.1
		 M-1303.2,407.6c-0.5,0.5-1.1,0.8-1.8,0.8c-0.7,0-1.3-0.3-1.8-0.8c-1-1-1-2.7,0-3.8c2.4-2.5,3.7-5.8,3.7-9.4c0-1.5,1.1-2.7,2.5-2.7
		h0c1.4,0,2.5,1.2,2.5,2.7C-1298,399.5-1299.8,404.1-1303.2,407.6 M-1297.9,382c0,1.5-1.1,2.7-2.5,2.7c-1.4,0-2.5-1.2-2.5-2.7v-12.5
		c0-1.5,1.1-2.7,2.5-2.7c1.4,0,2.5,1.2,2.5,2.7V382z M-1297.9,356.9c0,1.5-1.1,2.7-2.5,2.7c-1.4,0-2.5-1.2-2.5-2.7v-12.5
		c0-1.5,1.1-2.7,2.5-2.7c1.4,0,2.5,1.2,2.5,2.7V356.9z M-1297.9,332.7c0,1-1.1,1.9-2.5,1.9c-1.4,0-2.5-0.8-2.5-1.9v-8.9
		c0-1,1.1-1.9,2.5-1.9c1.4,0,2.5,0.8,2.5,1.9V332.7z"/>
	<path class="st1" d="M-1276.1,233.7h-28.9h-15.5h-53.5c-18.7,0-34,16.1-34,35.8c0,19.7,15.3,35.8,34,35.8h53.5h15.5h28.9
		c6.1,0,11.2-5.3,11.2-11.8v-24.1v-24.1C-1264.9,239-1270,233.7-1276.1,233.7 M-1380.5,280.8c-5.9,0-10.6-5-10.6-11.2
		c0-6.2,4.8-11.2,10.6-11.2c5.9,0,10.6,5,10.6,11.2C-1369.9,275.8-1374.7,280.8-1380.5,280.8"/>
	<path class="st1" d="M-1638.7,45.7l31.1,47h211.9l94-69.1c5-3.7,6.3-11.1,2.8-16.4L-1393-135c-3.5-5.3-10.5-6.6-15.5-2.9
		L-1636,29.3C-1641,33-1642.2,40.3-1638.7,45.7 M-1610.5,36.6l199.7-146.8c5-3.7,12-2.4,15.5,2.9l3.9,5.9c3.5,5.3,2.3,12.7-2.8,16.4
		l-199.7,146.8c-5,3.7-12,2.4-15.5-2.9l-3.9-5.9C-1616.8,47.7-1615.5,40.3-1610.5,36.6"/>
	<path class="st1" d="M-1339.8,66.8h49.7c-5.1-9.3-13.5-16.3-23.4-19.3L-1339.8,66.8z"/>
</g>
<g>
	<path class="st1" d="M-517.7,0H-90c15.7,0,28.3,12.7,28.3,28.3v269.5c0,15.7-12.7,28.3-28.3,28.3h-427.7
		c-15.7,0-28.3-12.7-28.3-28.3V28.3C-546,12.7-533.4,0-517.7,0z"/>
	<g>
		<path class="st2" d="M-509.1,305.7L-509.1,305.7c-4,0-7.2-3.2-7.2-7.1V41.3c0-3.9,3.2-7.1,7.2-7.1c4,0,7.2,3.2,7.2,7.1v257.3
			C-501.9,302.5-505.1,305.7-509.1,305.7"/>
		<path class="st2" d="M-487.5,280.9L-487.5,280.9c-4,0-7.2-3.2-7.2-7.1V41.3c0-3.9,3.2-7.1,7.2-7.1s7.2,3.2,7.2,7.1v232.5
			C-480.3,277.7-483.5,280.9-487.5,280.9"/>
		<path class="st2" d="M-462.7,280.9L-462.7,280.9c-4,0-7.2-3.2-7.2-7.1V41.3c0-3.9,3.2-7.1,7.2-7.1c4,0,7.2,3.2,7.2,7.1v232.5
			C-455.5,277.7-458.8,280.9-462.7,280.9"/>
		<path class="st2" d="M-444.3,280.9L-444.3,280.9c-4,0-7.2-3.2-7.2-7.1V41.3c0-3.9,3.2-7.1,7.2-7.1c4,0,7.2,3.2,7.2,7.1v232.5
			C-437.1,277.7-440.3,280.9-444.3,280.9"/>
		<path class="st2" d="M-425.9,280.9L-425.9,280.9c-4,0-7.2-3.2-7.2-7.1V41.3c0-3.9,3.2-7.1,7.2-7.1s7.2,3.2,7.2,7.1v232.5
			C-418.7,277.7-421.9,280.9-425.9,280.9"/>
		<path class="st2" d="M-401.1,280.9L-401.1,280.9c-4,0-7.2-3.2-7.2-7.1V41.3c0-3.9,3.2-7.1,7.2-7.1c4,0,7.2,3.2,7.2,7.1v232.5
			C-393.9,277.7-397.1,280.9-401.1,280.9"/>
		<path class="st2" d="M-375.2,280.9L-375.2,280.9c-4,0-7.2-3.2-7.2-7.1V41.3c0-3.9,3.2-7.1,7.2-7.1c4,0,7.2,3.2,7.2,7.1v232.5
			C-368,277.7-371.3,280.9-375.2,280.9"/>
		<path class="st2" d="M-357.9,280.9L-357.9,280.9c-4,0-7.2-3.2-7.2-7.1V41.3c0-3.9,3.2-7.1,7.2-7.1s7.2,3.2,7.2,7.1v232.5
			C-350.6,277.7-353.9,280.9-357.9,280.9"/>
		<path class="st2" d="M-336.2,280.9L-336.2,280.9c-4,0-7.2-3.2-7.2-7.1V41.3c0-3.9,3.2-7.1,7.2-7.1c4,0,7.2,3.2,7.2,7.1v232.5
			C-329,277.7-332.3,280.9-336.2,280.9"/>
		<path class="st2" d="M-314.6,280.9L-314.6,280.9c-4,0-7.2-3.2-7.2-7.1V41.3c0-3.9,3.2-7.1,7.2-7.1c4,0,7.2,3.2,7.2,7.1v232.5
			C-307.4,277.7-310.7,280.9-314.6,280.9"/>
		<path class="st2" d="M-288.8,280.9L-288.8,280.9c-4,0-7.2-3.2-7.2-7.1V41.3c0-3.9,3.2-7.1,7.2-7.1c4,0,7.2,3.2,7.2,7.1v232.5
			C-281.6,277.7-284.8,280.9-288.8,280.9"/>
		<path class="st2" d="M-271.4,280.9L-271.4,280.9c-4,0-7.2-3.2-7.2-7.1V41.3c0-3.9,3.2-7.1,7.2-7.1c4,0,7.2,3.2,7.2,7.1v232.5
			C-264.2,277.7-267.5,280.9-271.4,280.9"/>
		<path class="st2" d="M-249.8,280.9L-249.8,280.9c-4,0-7.2-3.2-7.2-7.1V41.3c0-3.9,3.2-7.1,7.2-7.1c4,0,7.2,3.2,7.2,7.1v232.5
			C-242.6,277.7-245.8,280.9-249.8,280.9"/>
		<path class="st2" d="M-232.4,280.9L-232.4,280.9c-4,0-7.2-3.2-7.2-7.1V41.3c0-3.9,3.2-7.1,7.2-7.1c4,0,7.2,3.2,7.2,7.1v232.5
			C-225.2,277.7-228.5,280.9-232.4,280.9"/>
		<path class="st2" d="M-206.6,280.9L-206.6,280.9c-4,0-7.2-3.2-7.2-7.1V41.3c0-3.9,3.2-7.1,7.2-7.1c4,0,7.2,3.2,7.2,7.1v232.5
			C-199.4,277.7-202.6,280.9-206.6,280.9"/>
		<path class="st2" d="M-189.2,280.9L-189.2,280.9c-4,0-7.2-3.2-7.2-7.1V41.3c0-3.9,3.2-7.1,7.2-7.1c4,0,7.2,3.2,7.2,7.1v232.5
			C-182,277.7-185.3,280.9-189.2,280.9"/>
		<path class="st2" d="M-163.4,280.9L-163.4,280.9c-4,0-7.2-3.2-7.2-7.1V41.3c0-3.9,3.2-7.1,7.2-7.1c4,0,7.2,3.2,7.2,7.1v232.5
			C-156.2,277.7-159.4,280.9-163.4,280.9"/>
		<path class="st2" d="M-146,280.9L-146,280.9c-4,0-7.2-3.2-7.2-7.1V41.3c0-3.9,3.2-7.1,7.2-7.1c4,0,7.2,3.2,7.2,7.1v232.5
			C-138.8,277.7-142,280.9-146,280.9"/>
		<path class="st2" d="M-128.6,280.9L-128.6,280.9c-4,0-7.2-3.2-7.2-7.1V41.3c0-3.9,3.2-7.1,7.2-7.1c4,0,7.2,3.2,7.2,7.1v232.5
			C-121.4,277.7-124.7,280.9-128.6,280.9"/>
		<path class="st2" d="M-98.5,305.7L-98.5,305.7c-4,0-7.2-3.2-7.2-7.1V41.3c0-3.9,3.2-7.1,7.2-7.1c4,0,7.2,3.2,7.2,7.1v257.3
			C-91.3,302.5-94.6,305.7-98.5,305.7"/>
	</g>
</g>
<g>
	<path class="st0" d="M28.3,0h427.7c15.7,0,28.3,12.7,28.3,28.3v269.5c0,15.7-12.7,28.3-28.3,28.3H28.3C12.7,326.2,0,313.5,0,297.9
		V28.3C0,12.7,12.7,0,28.3,0z"/>
	<g>
		<path class="st2" d="M36.9,305.7L36.9,305.7c-4,0-7.2-3.2-7.2-7.1V41.3c0-3.9,3.2-7.1,7.2-7.1s7.2,3.2,7.2,7.1v257.3
			C44.1,302.5,40.9,305.7,36.9,305.7"/>
		<path class="st2" d="M58.5,280.9L58.5,280.9c-4,0-7.2-3.2-7.2-7.1V41.3c0-3.9,3.2-7.1,7.2-7.1s7.2,3.2,7.2,7.1v232.5
			C65.7,277.7,62.5,280.9,58.5,280.9"/>
		<path class="st2" d="M83.3,280.9L83.3,280.9c-4,0-7.2-3.2-7.2-7.1V41.3c0-3.9,3.2-7.1,7.2-7.1c4,0,7.2,3.2,7.2,7.1v232.5
			C90.5,277.7,87.3,280.9,83.3,280.9"/>
		<path class="st2" d="M101.8,280.9L101.8,280.9c-4,0-7.2-3.2-7.2-7.1V41.3c0-3.9,3.2-7.1,7.2-7.1s7.2,3.2,7.2,7.1v232.5
			C109,277.7,105.7,280.9,101.8,280.9"/>
		<path class="st2" d="M120.2,280.9L120.2,280.9c-4,0-7.2-3.2-7.2-7.1V41.3c0-3.9,3.2-7.1,7.2-7.1s7.2,3.2,7.2,7.1v232.5
			C127.4,277.7,124.2,280.9,120.2,280.9"/>
		<path class="st2" d="M145,280.9L145,280.9c-4,0-7.2-3.2-7.2-7.1V41.3c0-3.9,3.2-7.1,7.2-7.1c4,0,7.2,3.2,7.2,7.1v232.5
			C152.2,277.7,148.9,280.9,145,280.9"/>
		<path class="st2" d="M170.8,280.9L170.8,280.9c-4,0-7.2-3.2-7.2-7.1V41.3c0-3.9,3.2-7.1,7.2-7.1c4,0,7.2,3.2,7.2,7.1v232.5
			C178,277.7,174.8,280.9,170.8,280.9"/>
		<path class="st2" d="M188.2,280.9L188.2,280.9c-4,0-7.2-3.2-7.2-7.1V41.3c0-3.9,3.2-7.1,7.2-7.1c4,0,7.2,3.2,7.2,7.1v232.5
			C195.4,277.7,192.2,280.9,188.2,280.9"/>
		<path class="st2" d="M209.8,280.9L209.8,280.9c-4,0-7.2-3.2-7.2-7.1V41.3c0-3.9,3.2-7.1,7.2-7.1c4,0,7.2,3.2,7.2,7.1v232.5
			C217,277.7,213.8,280.9,209.8,280.9"/>
		<path class="st2" d="M231.4,280.9L231.4,280.9c-4,0-7.2-3.2-7.2-7.1V41.3c0-3.9,3.2-7.1,7.2-7.1c4,0,7.2,3.2,7.2,7.1v232.5
			C238.6,277.7,235.4,280.9,231.4,280.9"/>
		<path class="st2" d="M257.3,280.9L257.3,280.9c-4,0-7.2-3.2-7.2-7.1V41.3c0-3.9,3.2-7.1,7.2-7.1c4,0,7.2,3.2,7.2,7.1v232.5
			C264.5,277.7,261.2,280.9,257.3,280.9"/>
		<path class="st2" d="M274.6,280.9L274.6,280.9c-4,0-7.2-3.2-7.2-7.1V41.3c0-3.9,3.2-7.1,7.2-7.1c4,0,7.2,3.2,7.2,7.1v232.5
			C281.8,277.7,278.6,280.9,274.6,280.9"/>
		<path class="st2" d="M296.2,280.9L296.2,280.9c-4,0-7.2-3.2-7.2-7.1V41.3c0-3.9,3.2-7.1,7.2-7.1s7.2,3.2,7.2,7.1v232.5
			C303.4,277.7,300.2,280.9,296.2,280.9"/>
		<path class="st2" d="M313.6,280.9L313.6,280.9c-4,0-7.2-3.2-7.2-7.1V41.3c0-3.9,3.2-7.1,7.2-7.1c4,0,7.2,3.2,7.2,7.1v232.5
			C320.8,277.7,317.6,280.9,313.6,280.9"/>
		<path class="st2" d="M339.5,280.9L339.5,280.9c-4,0-7.2-3.2-7.2-7.1V41.3c0-3.9,3.2-7.1,7.2-7.1s7.2,3.2,7.2,7.1v232.5
			C346.7,277.7,343.4,280.9,339.5,280.9"/>
		<path class="st2" d="M356.8,280.9L356.8,280.9c-4,0-7.2-3.2-7.2-7.1V41.3c0-3.9,3.2-7.1,7.2-7.1c4,0,7.2,3.2,7.2,7.1v232.5
			C364,277.7,360.8,280.9,356.8,280.9"/>
		<path class="st2" d="M382.7,280.9L382.7,280.9c-4,0-7.2-3.2-7.2-7.1V41.3c0-3.9,3.2-7.1,7.2-7.1s7.2,3.2,7.2,7.1v232.5
			C389.9,277.7,386.6,280.9,382.7,280.9"/>
		<path class="st2" d="M400,280.9L400,280.9c-4,0-7.2-3.2-7.2-7.1V41.3c0-3.9,3.2-7.1,7.2-7.1c4,0,7.2,3.2,7.2,7.1v232.5
			C407.2,277.7,404,280.9,400,280.9"/>
		<path class="st2" d="M417.4,280.9L417.4,280.9c-4,0-7.2-3.2-7.2-7.1V41.3c0-3.9,3.2-7.1,7.2-7.1c4,0,7.2,3.2,7.2,7.1v232.5
			C424.6,277.7,421.4,280.9,417.4,280.9"/>
		<path class="st2" d="M447.5,305.7L447.5,305.7c-4,0-7.2-3.2-7.2-7.1V41.3c0-3.9,3.2-7.1,7.2-7.1c4,0,7.2,3.2,7.2,7.1v257.3
			C454.7,302.5,451.5,305.7,447.5,305.7"/>
	</g>
</g>
</svg>
