<?xml version="1.0" encoding="utf-8"?>
<!-- Generator: Adobe Illustrator 19.2.1, SVG Export Plug-In . SVG Version: 6.00 Build 0)  -->
<svg version="1.1" id="Layer_1" xmlns="http://www.w3.org/2000/svg" xmlns:xlink="http://www.w3.org/1999/xlink" x="0px" y="0px"
	 viewBox="0 0 484.3 326.9" style="enable-background:new 0 0 484.3 326.9;" xml:space="preserve">
<style type="text/css">
	.st0{fill:#3A2E87;}
	.st1{fill:#676767;}
	.st2{fill-rule:evenodd;clip-rule:evenodd;fill:#FFFFFF;}
</style>
<g>
	<path class="st0" d="M-602.5,74.1l24.3,18.6h46.8l-32.9-49.8c-3.5-5.3-2.3-12.7,2.8-16.4l207.6-152.6l-72.8-55.7
		c-5-3.8-12-2.6-15.6,2.6L-604.9,57.7C-608.5,62.9-607.4,70.3-602.5,74.1"/>
	<path class="st0" d="M-216.8,317.5h-71.6c-25,0-45.5-21.6-45.5-48c0-26.4,20.5-48,45.5-48h71.6h20.7h5.5v-62.3V146
		c0-22.9-17.8-41.7-39.6-41.7h-27.1h-258.3h-65.3h-37.7h-0.5c-9.8,0-17.8-8.4-17.8-18.7c0-9.4,6.6-17.2,15.2-18.5
		c0-2.4,0.7-4.8,2.1-6.9l9.8-14.2h-8.8c-21.8,0-39.6,18.8-39.6,41.7V146v188.8v58.4c0,22.9,17.8,41.7,39.6,41.7h388.5
		c21.8,0,39.6-18.8,39.6-41.7v-58.4v-17.2h-5.5H-216.8z M-208.8,206.7c0,1.5-1.1,2.7-2.5,2.7c-1.4,0-2.5-1.2-2.5-2.7v-12.5
		c0-1.5,1.1-2.7,2.5-2.7c1.4,0,2.5,1.2,2.5,2.7V206.7z M-208.8,181.6c0,1.5-1.1,2.7-2.5,2.7c-1.4,0-2.5-1.2-2.5-2.7v-12.5
		c0-1.5,1.1-2.7,2.5-2.7c1.4,0,2.5,1.2,2.5,2.7V181.6z M-208.8,144.1v12.5c0,1.5-1.1,2.7-2.5,2.7c-1.4,0-2.5-1.2-2.5-2.7v-12.5
		c0-1.5,1.1-2.7,2.5-2.7C-210,141.4-208.8,142.6-208.8,144.1 M-227.2,126c0.2-1.5,1.4-2.5,2.8-2.3c4.6,0.6,8.8,3.1,11.7,7
		c0.9,1.2,0.7,2.8-0.4,3.8c-0.5,0.4-1,0.6-1.6,0.6c-0.8,0-1.5-0.4-2-1c-2.1-2.8-5.1-4.6-8.4-5C-226.4,128.8-227.4,127.4-227.2,126
		 M-248.4,123.5h11.9c1.4,0,2.5,1.2,2.5,2.7c0,1.5-1.1,2.7-2.5,2.7h-11.9c-1.4,0-2.5-1.2-2.5-2.7
		C-250.9,124.7-249.8,123.5-248.4,123.5 M-272.1,123.5h11.9c1.4,0,2.5,1.2,2.5,2.7c0,1.5-1.1,2.7-2.5,2.7h-11.9
		c-1.4,0-2.5-1.2-2.5-2.7C-274.7,124.7-273.5,123.5-272.1,123.5 M-295.9,123.5h11.9c1.4,0,2.5,1.2,2.5,2.7c0,1.5-1.1,2.7-2.5,2.7
		h-11.9c-1.4,0-2.5-1.2-2.5-2.7C-298.4,124.7-297.3,123.5-295.9,123.5 M-319.6,123.5h11.9c1.4,0,2.5,1.2,2.5,2.7
		c0,1.5-1.1,2.7-2.5,2.7h-11.9c-1.4,0-2.5-1.2-2.5-2.7C-322.2,124.7-321,123.5-319.6,123.5 M-343.4,123.5h11.9
		c1.4,0,2.5,1.2,2.5,2.7c0,1.5-1.1,2.7-2.5,2.7h-11.9c-1.4,0-2.5-1.2-2.5-2.7C-345.9,124.7-344.8,123.5-343.4,123.5 M-367.1,123.5
		h11.9c1.4,0,2.5,1.2,2.5,2.7c0,1.5-1.1,2.7-2.5,2.7h-11.9c-1.4,0-2.5-1.2-2.5-2.7C-369.6,124.7-368.5,123.5-367.1,123.5
		 M-390.8,123.5h11.9c1.4,0,2.5,1.2,2.5,2.7c0,1.5-1.1,2.7-2.5,2.7h-11.9c-1.4,0-2.5-1.2-2.5-2.7
		C-393.4,124.7-392.2,123.5-390.8,123.5 M-414.6,123.5h11.9c1.4,0,2.5,1.2,2.5,2.7c0,1.5-1.1,2.7-2.5,2.7h-11.9
		c-1.4,0-2.5-1.2-2.5-2.7C-417.1,124.7-416,123.5-414.6,123.5 M-438.3,123.5h11.9c1.4,0,2.5,1.2,2.5,2.7c0,1.5-1.1,2.7-2.5,2.7
		h-11.9c-1.4,0-2.5-1.2-2.5-2.7C-440.9,124.7-439.7,123.5-438.3,123.5 M-462.1,123.5h11.9c1.4,0,2.5,1.2,2.5,2.7
		c0,1.5-1.1,2.7-2.5,2.7h-11.9c-1.4,0-2.5-1.2-2.5-2.7C-464.6,124.7-463.5,123.5-462.1,123.5 M-485.8,123.5h11.9
		c1.4,0,2.5,1.2,2.5,2.7c0,1.5-1.1,2.7-2.5,2.7h-11.9c-1.4,0-2.5-1.2-2.5-2.7C-488.3,124.7-487.2,123.5-485.8,123.5 M-509.5,123.5
		h11.9c1.4,0,2.5,1.2,2.5,2.7c0,1.5-1.1,2.7-2.5,2.7h-11.9c-1.4,0-2.5-1.2-2.5-2.7C-512.1,124.7-510.9,123.5-509.5,123.5
		 M-533.3,123.5h11.9c1.4,0,2.5,1.2,2.5,2.7c0,1.5-1.1,2.7-2.5,2.7h-11.9c-1.4,0-2.5-1.2-2.5-2.7
		C-535.8,124.7-534.7,123.5-533.3,123.5 M-557,123.5h11.9c1.4,0,2.5,1.2,2.5,2.7c0,1.5-1.1,2.7-2.5,2.7H-557c-1.4,0-2.5-1.2-2.5-2.7
		C-559.6,124.7-558.4,123.5-557,123.5 M-580.8,123.5h11.9c1.4,0,2.5,1.2,2.5,2.7c0,1.5-1.1,2.7-2.5,2.7h-11.9
		c-1.4,0-2.5-1.2-2.5-2.7C-583.3,124.7-582.2,123.5-580.8,123.5 M-604.5,123.5h11.9c1.4,0,2.5,1.2,2.5,2.7c0,1.5-1.1,2.7-2.5,2.7
		h-11.9c-1.4,0-2.5-1.2-2.5-2.7C-607,124.7-605.9,123.5-604.5,123.5 M-634.1,142.1c0-1.5,1.2-2.7,2.6-2.6c1.4,0,2.5,1.2,2.5,2.7
		l0,12.5c0,1.5-1.1,2.7-2.5,2.7c-1.4,0-2.5-1.2-2.5-2.7L-634.1,142.1z M-634.1,167.1c0-1.5,1.1-2.7,2.5-2.7c1.4,0,2.5,1.2,2.5,2.7
		v12.5c0,1.5-1.1,2.7-2.5,2.7c-1.4,0-2.5-1.2-2.5-2.7V167.1z M-634.1,192.2c0-1.5,1.1-2.7,2.5-2.7c1.4,0,2.5,1.2,2.5,2.7v12.5
		c0,1.5-1.1,2.7-2.5,2.7c-1.4,0-2.5-1.2-2.5-2.7V192.2z M-634.1,217.2c0-1.5,1.1-2.7,2.5-2.7c1.4,0,2.5,1.2,2.5,2.7v12.5
		c0,1.5-1.1,2.7-2.5,2.7c-1.4,0-2.5-1.2-2.5-2.7V217.2z M-634.1,242.3c0-1.5,1.1-2.7,2.5-2.7c1.4,0,2.5,1.2,2.5,2.7v12.5
		c0,1.5-1.1,2.7-2.5,2.7c-1.4,0-2.5-1.2-2.5-2.7V242.3z M-634.1,267.3c0-1.5,1.1-2.7,2.5-2.7c1.4,0,2.5,1.2,2.5,2.7v12.5
		c0,1.5-1.1,2.7-2.5,2.7c-1.4,0-2.5-1.2-2.5-2.7V267.3z M-634.1,292.3c0-1.5,1.1-2.7,2.5-2.7c1.4,0,2.5,1.2,2.5,2.7v12.5
		c0,1.5-1.1,2.7-2.5,2.7c-1.4,0-2.5-1.2-2.5-2.7V292.3z M-634.1,317.4c0-1.5,1.1-2.7,2.5-2.7c1.4,0,2.5,1.2,2.5,2.7v12.5
		c0,1.5-1.1,2.7-2.5,2.7c-1.4,0-2.5-1.2-2.5-2.7V317.4z M-634.1,342.4c0-1.5,1.1-2.7,2.5-2.7c1.4,0,2.5,1.2,2.5,2.7V355
		c0,1.5-1.1,2.7-2.5,2.7c-1.4,0-2.5-1.2-2.5-2.7V342.4z M-634.1,367.5c0-1.5,1.1-2.7,2.5-2.7c1.4,0,2.5,1.2,2.5,2.7V380
		c0,1.5-1.1,2.7-2.5,2.7c-1.4,0-2.5-1.2-2.5-2.7V367.5z M-626.8,406.4c-0.5,0.4-1,0.6-1.6,0.6c-0.8,0-1.5-0.4-2-1
		c-2.5-3.3-3.8-7.3-3.8-11.5v-1.9c0-1.5,1.1-2.7,2.5-2.7c1.4,0,2.5,1.2,2.5,2.7v1.9c0,3,0.9,5.8,2.7,8.2
		C-625.5,403.8-625.7,405.5-626.8,406.4 M-627.1,133.5c-0.7,0-1.3-0.3-1.8-0.8c-1-1-1-2.7,0-3.8c3.3-3.5,7.8-5.4,12.5-5.5h0
		c1.4,0,2.5,1.2,2.5,2.7c0,1.5-1.1,2.7-2.5,2.7c-3.3,0-6.5,1.4-8.9,3.9C-625.8,133.3-626.4,133.5-627.1,133.5 M-606.4,413.1h-9.9
		c-0.8,0-1.5-0.1-2.3-0.2c-1.4-0.2-2.4-1.5-2.2-3c0.2-1.5,1.4-2.5,2.8-2.3c0.5,0.1,1.1,0.1,1.6,0.1h9.9c1.4,0,2.5,1.2,2.5,2.7
		C-603.9,411.9-605,413.1-606.4,413.1 M-582.7,413.1h-11.9c-1.4,0-2.5-1.2-2.5-2.7c0-1.5,1.1-2.7,2.5-2.7h11.9
		c1.4,0,2.5,1.2,2.5,2.7C-580.1,411.9-581.3,413.1-582.7,413.1 M-558.9,413.1h-11.9c-1.4,0-2.5-1.2-2.5-2.7c0-1.5,1.1-2.7,2.5-2.7
		h11.9c1.4,0,2.5,1.2,2.5,2.7C-556.4,411.9-557.5,413.1-558.9,413.1 M-535.2,413.1h-11.9c-1.4,0-2.5-1.2-2.5-2.7
		c0-1.5,1.1-2.7,2.5-2.7h11.9c1.4,0,2.5,1.2,2.5,2.7C-532.7,411.9-533.8,413.1-535.2,413.1 M-511.5,413.1h-11.9
		c-1.4,0-2.5-1.2-2.5-2.7c0-1.5,1.1-2.7,2.5-2.7h11.9c1.4,0,2.5,1.2,2.5,2.7C-508.9,411.9-510.1,413.1-511.5,413.1 M-487.7,413.1
		h-11.9c-1.4,0-2.5-1.2-2.5-2.7c0-1.5,1.1-2.7,2.5-2.7h11.9c1.4,0,2.5,1.2,2.5,2.7C-485.2,411.9-486.3,413.1-487.7,413.1
		 M-464,413.1h-11.9c-1.4,0-2.5-1.2-2.5-2.7c0-1.5,1.1-2.7,2.5-2.7h11.9c1.4,0,2.5,1.2,2.5,2.7C-461.4,411.9-462.6,413.1-464,413.1
		 M-440.2,413.1h-11.9c-1.4,0-2.5-1.2-2.5-2.7c0-1.5,1.1-2.7,2.5-2.7h11.9c1.4,0,2.5,1.2,2.5,2.7
		C-437.7,411.9-438.8,413.1-440.2,413.1 M-416.5,413.1h-11.9c-1.4,0-2.5-1.2-2.5-2.7c0-1.5,1.1-2.7,2.5-2.7h11.9
		c1.4,0,2.5,1.2,2.5,2.7C-414,411.9-415.1,413.1-416.5,413.1 M-392.8,413.1h-11.9c-1.4,0-2.5-1.2-2.5-2.7c0-1.5,1.1-2.7,2.5-2.7
		h11.9c1.4,0,2.5,1.2,2.5,2.7C-390.2,411.9-391.4,413.1-392.8,413.1 M-369,413.1h-11.9c-1.4,0-2.5-1.2-2.5-2.7
		c0-1.5,1.1-2.7,2.5-2.7h11.9c1.4,0,2.5,1.2,2.5,2.7C-366.5,411.9-367.6,413.1-369,413.1 M-345.3,413.1h-11.9
		c-1.4,0-2.5-1.2-2.5-2.7c0-1.5,1.1-2.7,2.5-2.7h11.9c1.4,0,2.5,1.2,2.5,2.7C-342.7,411.9-343.9,413.1-345.3,413.1 M-321.5,413.1
		h-11.9c-1.4,0-2.5-1.2-2.5-2.7c0-1.5,1.1-2.7,2.5-2.7h11.9c1.4,0,2.5,1.2,2.5,2.7C-319,411.9-320.1,413.1-321.5,413.1
		 M-297.8,413.1h-11.9c-1.4,0-2.5-1.2-2.5-2.7c0-1.5,1.1-2.7,2.5-2.7h11.9c1.4,0,2.5,1.2,2.5,2.7
		C-295.3,411.9-296.4,413.1-297.8,413.1 M-274.1,413.1h-11.9c-1.4,0-2.5-1.2-2.5-2.7c0-1.5,1.1-2.7,2.5-2.7h11.9
		c1.4,0,2.5,1.2,2.5,2.7C-271.5,411.9-272.7,413.1-274.1,413.1 M-250.3,413.1h-11.9c-1.4,0-2.5-1.2-2.5-2.7c0-1.5,1.1-2.7,2.5-2.7
		h11.9c1.4,0,2.5,1.2,2.5,2.7C-247.8,411.9-248.9,413.1-250.3,413.1 M-226.5,413.1h-11.9c-1.4,0-2.5-1.2-2.5-2.7
		c0-1.5,1.1-2.7,2.5-2.7h11.9c1.4,0,2.6,1.2,2.6,2.7C-224,411.9-225.1,413.1-226.5,413.1 M-214,407.6c-0.5,0.5-1.1,0.8-1.8,0.8
		c-0.7,0-1.3-0.3-1.8-0.8c-1-1-1-2.7,0-3.8c2.4-2.5,3.7-5.8,3.7-9.4c0-1.5,1.1-2.7,2.5-2.7h0c1.4,0,2.5,1.2,2.5,2.7
		C-208.8,399.5-210.7,404.1-214,407.6 M-208.8,382c0,1.5-1.1,2.7-2.5,2.7c-1.4,0-2.5-1.2-2.5-2.7v-12.5c0-1.5,1.1-2.7,2.5-2.7
		c1.4,0,2.5,1.2,2.5,2.7V382z M-208.8,356.9c0,1.5-1.1,2.7-2.5,2.7c-1.4,0-2.5-1.2-2.5-2.7v-12.5c0-1.5,1.1-2.7,2.5-2.7
		c1.4,0,2.5,1.2,2.5,2.7V356.9z M-208.8,332.7c0,1-1.1,1.9-2.5,1.9c-1.4,0-2.5-0.8-2.5-1.9v-8.9c0-1,1.1-1.9,2.5-1.9
		c1.4,0,2.5,0.8,2.5,1.9V332.7z"/>
	<path class="st0" d="M-187,233.7h-28.9h-15.5h-53.5c-18.7,0-34,16.1-34,35.8c0,19.7,15.3,35.8,34,35.8h53.5h15.5h28.9
		c6.1,0,11.2-5.3,11.2-11.8v-24.1v-24.1C-175.8,239-180.9,233.7-187,233.7 M-291.4,280.8c-5.9,0-10.6-5-10.6-11.2
		c0-6.2,4.8-11.2,10.6-11.2c5.9,0,10.6,5,10.6,11.2C-280.8,275.8-285.6,280.8-291.4,280.8"/>
	<path class="st0" d="M-549.6,45.7l31.1,47h211.9l94-69.1c5-3.7,6.3-11.1,2.8-16.4L-303.8-135c-3.5-5.3-10.5-6.6-15.5-2.9
		L-546.8,29.3C-551.9,33-553.1,40.3-549.6,45.7 M-521.4,36.6l199.7-146.8c5-3.7,12-2.4,15.5,2.9l3.9,5.9c3.5,5.3,2.3,12.7-2.8,16.4
		L-504.8,61.8c-5,3.7-12,2.4-15.5-2.9l-3.9-5.9C-527.7,47.7-526.4,40.3-521.4,36.6"/>
	<path class="st0" d="M-250.6,66.8h49.7c-5.1-9.3-13.5-16.3-23.4-19.3L-250.6,66.8z"/>
</g>
<g>
	<path class="st1" d="M-1145.5,74.1l24.3,18.6h46.8l-32.9-49.8c-3.5-5.3-2.3-12.7,2.8-16.4l207.6-152.6l-72.8-55.7
		c-5-3.8-12-2.6-15.6,2.6L-1148,57.7C-1151.6,62.9-1150.5,70.3-1145.5,74.1"/>
	<path class="st1" d="M-759.9,317.5h-71.6c-25,0-45.5-21.6-45.5-48c0-26.4,20.5-48,45.5-48h71.6h20.7h5.5v-62.3V146
		c0-22.9-17.8-41.7-39.6-41.7h-27.1h-258.3h-65.3h-37.7h-0.5c-9.8,0-17.8-8.4-17.8-18.7c0-9.4,6.6-17.2,15.2-18.5
		c0-2.4,0.7-4.8,2.1-6.9l9.8-14.2h-8.8c-21.8,0-39.6,18.8-39.6,41.7V146v188.8v58.4c0,22.9,17.8,41.7,39.6,41.7h388.5
		c21.8,0,39.6-18.8,39.6-41.7v-58.4v-17.2h-5.5H-759.9z M-751.9,206.7c0,1.5-1.1,2.7-2.5,2.7c-1.4,0-2.5-1.2-2.5-2.7v-12.5
		c0-1.5,1.1-2.7,2.5-2.7c1.4,0,2.5,1.2,2.5,2.7V206.7z M-751.9,181.6c0,1.5-1.1,2.7-2.5,2.7c-1.4,0-2.5-1.2-2.5-2.7v-12.5
		c0-1.5,1.1-2.7,2.5-2.7c1.4,0,2.5,1.2,2.5,2.7V181.6z M-751.9,144.1v12.5c0,1.5-1.1,2.7-2.5,2.7c-1.4,0-2.5-1.2-2.5-2.7v-12.5
		c0-1.5,1.1-2.7,2.5-2.7C-753,141.4-751.9,142.6-751.9,144.1 M-770.2,126c0.2-1.5,1.4-2.5,2.8-2.3c4.6,0.6,8.8,3.1,11.7,7
		c0.9,1.2,0.7,2.8-0.4,3.8c-0.5,0.4-1,0.6-1.6,0.6c-0.8,0-1.5-0.4-2-1c-2.1-2.8-5.1-4.6-8.4-5C-769.4,128.8-770.4,127.4-770.2,126
		 M-791.5,123.5h11.9c1.4,0,2.5,1.2,2.5,2.7c0,1.5-1.1,2.7-2.5,2.7h-11.9c-1.4,0-2.5-1.2-2.5-2.7
		C-794,124.7-792.9,123.5-791.5,123.5 M-815.2,123.5h11.9c1.4,0,2.5,1.2,2.5,2.7c0,1.5-1.1,2.7-2.5,2.7h-11.9
		c-1.4,0-2.5-1.2-2.5-2.7C-817.7,124.7-816.6,123.5-815.2,123.5 M-838.9,123.5h11.9c1.4,0,2.5,1.2,2.5,2.7c0,1.5-1.1,2.7-2.5,2.7
		h-11.9c-1.4,0-2.5-1.2-2.5-2.7C-841.5,124.7-840.3,123.5-838.9,123.5 M-862.7,123.5h11.9c1.4,0,2.5,1.2,2.5,2.7
		c0,1.5-1.1,2.7-2.5,2.7h-11.9c-1.4,0-2.5-1.2-2.5-2.7C-865.2,124.7-864.1,123.5-862.7,123.5 M-886.4,123.5h11.9
		c1.4,0,2.5,1.2,2.5,2.7c0,1.5-1.1,2.7-2.5,2.7h-11.9c-1.4,0-2.5-1.2-2.5-2.7C-889,124.7-887.8,123.5-886.4,123.5 M-910.2,123.5
		h11.9c1.4,0,2.5,1.2,2.5,2.7c0,1.5-1.1,2.7-2.5,2.7h-11.9c-1.4,0-2.5-1.2-2.5-2.7C-912.7,124.7-911.6,123.5-910.2,123.5
		 M-933.9,123.5h11.9c1.4,0,2.5,1.2,2.5,2.7c0,1.5-1.1,2.7-2.5,2.7h-11.9c-1.4,0-2.5-1.2-2.5-2.7
		C-936.4,124.7-935.3,123.5-933.9,123.5 M-957.6,123.5h11.9c1.4,0,2.5,1.2,2.5,2.7c0,1.5-1.1,2.7-2.5,2.7h-11.9
		c-1.4,0-2.5-1.2-2.5-2.7C-960.2,124.7-959,123.5-957.6,123.5 M-981.4,123.5h11.9c1.4,0,2.5,1.2,2.5,2.7c0,1.5-1.1,2.7-2.5,2.7
		h-11.9c-1.4,0-2.5-1.2-2.5-2.7C-983.9,124.7-982.8,123.5-981.4,123.5 M-1005.1,123.5h11.9c1.4,0,2.5,1.2,2.5,2.7
		c0,1.5-1.1,2.7-2.5,2.7h-11.9c-1.4,0-2.5-1.2-2.5-2.7C-1007.7,124.7-1006.5,123.5-1005.1,123.5 M-1028.9,123.5h11.9
		c1.4,0,2.5,1.2,2.5,2.7c0,1.5-1.1,2.7-2.5,2.7h-11.9c-1.4,0-2.5-1.2-2.5-2.7C-1031.4,124.7-1030.3,123.5-1028.9,123.5
		 M-1052.6,123.5h11.9c1.4,0,2.5,1.2,2.5,2.7c0,1.5-1.1,2.7-2.5,2.7h-11.9c-1.4,0-2.5-1.2-2.5-2.7
		C-1055.1,124.7-1054,123.5-1052.6,123.5 M-1076.4,123.5h11.9c1.4,0,2.5,1.2,2.5,2.7c0,1.5-1.1,2.7-2.5,2.7h-11.9
		c-1.4,0-2.5-1.2-2.5-2.7C-1078.9,124.7-1077.8,123.5-1076.4,123.5 M-1100.1,123.5h11.9c1.4,0,2.5,1.2,2.5,2.7
		c0,1.5-1.1,2.7-2.5,2.7h-11.9c-1.4,0-2.5-1.2-2.5-2.7C-1102.6,124.7-1101.5,123.5-1100.1,123.5 M-1123.8,123.5h11.9
		c1.4,0,2.5,1.2,2.5,2.7c0,1.5-1.1,2.7-2.5,2.7h-11.9c-1.4,0-2.5-1.2-2.5-2.7C-1126.4,124.7-1125.2,123.5-1123.8,123.5
		 M-1147.6,123.5h11.9c1.4,0,2.5,1.2,2.5,2.7c0,1.5-1.1,2.7-2.5,2.7h-11.9c-1.4,0-2.5-1.2-2.5-2.7
		C-1150.1,124.7-1149,123.5-1147.6,123.5 M-1177.2,142.1c0-1.5,1.2-2.7,2.6-2.6c1.4,0,2.5,1.2,2.5,2.7l0,12.5c0,1.5-1.1,2.7-2.5,2.7
		s-2.5-1.2-2.5-2.7L-1177.2,142.1z M-1177.2,167.1c0-1.5,1.1-2.7,2.5-2.7s2.5,1.2,2.5,2.7v12.5c0,1.5-1.1,2.7-2.5,2.7
		s-2.5-1.2-2.5-2.7V167.1z M-1177.2,192.2c0-1.5,1.1-2.7,2.5-2.7s2.5,1.2,2.5,2.7v12.5c0,1.5-1.1,2.7-2.5,2.7s-2.5-1.2-2.5-2.7
		V192.2z M-1177.2,217.2c0-1.5,1.1-2.7,2.5-2.7s2.5,1.2,2.5,2.7v12.5c0,1.5-1.1,2.7-2.5,2.7s-2.5-1.2-2.5-2.7V217.2z M-1177.2,242.3
		c0-1.5,1.1-2.7,2.5-2.7s2.5,1.2,2.5,2.7v12.5c0,1.5-1.1,2.7-2.5,2.7s-2.5-1.2-2.5-2.7V242.3z M-1177.2,267.3c0-1.5,1.1-2.7,2.5-2.7
		s2.5,1.2,2.5,2.7v12.5c0,1.5-1.1,2.7-2.5,2.7s-2.5-1.2-2.5-2.7V267.3z M-1177.2,292.3c0-1.5,1.1-2.7,2.5-2.7s2.5,1.2,2.5,2.7v12.5
		c0,1.5-1.1,2.7-2.5,2.7s-2.5-1.2-2.5-2.7V292.3z M-1177.2,317.4c0-1.5,1.1-2.7,2.5-2.7s2.5,1.2,2.5,2.7v12.5c0,1.5-1.1,2.7-2.5,2.7
		s-2.5-1.2-2.5-2.7V317.4z M-1177.2,342.4c0-1.5,1.1-2.7,2.5-2.7s2.5,1.2,2.5,2.7V355c0,1.5-1.1,2.7-2.5,2.7s-2.5-1.2-2.5-2.7V342.4
		z M-1177.2,367.5c0-1.5,1.1-2.7,2.5-2.7s2.5,1.2,2.5,2.7V380c0,1.5-1.1,2.7-2.5,2.7s-2.5-1.2-2.5-2.7V367.5z M-1169.8,406.4
		c-0.5,0.4-1,0.6-1.6,0.6c-0.8,0-1.5-0.4-2-1c-2.5-3.3-3.8-7.3-3.8-11.5v-1.9c0-1.5,1.1-2.7,2.5-2.7s2.5,1.2,2.5,2.7v1.9
		c0,3,0.9,5.8,2.7,8.2C-1168.5,403.8-1168.7,405.5-1169.8,406.4 M-1170.1,133.5c-0.7,0-1.3-0.3-1.8-0.8c-1-1-1-2.7,0-3.8
		c3.3-3.5,7.8-5.4,12.5-5.5h0c1.4,0,2.5,1.2,2.5,2.7c0,1.5-1.1,2.7-2.5,2.7c-3.3,0-6.5,1.4-8.9,3.9
		C-1168.8,133.3-1169.5,133.5-1170.1,133.5 M-1149.5,413.1h-9.9c-0.8,0-1.5-0.1-2.3-0.2c-1.4-0.2-2.4-1.5-2.2-3
		c0.2-1.5,1.4-2.5,2.8-2.3c0.5,0.1,1.1,0.1,1.6,0.1h9.9c1.4,0,2.5,1.2,2.5,2.7C-1147,411.9-1148.1,413.1-1149.5,413.1
		 M-1125.8,413.1h-11.9c-1.4,0-2.5-1.2-2.5-2.7c0-1.5,1.1-2.7,2.5-2.7h11.9c1.4,0,2.5,1.2,2.5,2.7
		C-1123.2,411.9-1124.4,413.1-1125.8,413.1 M-1102,413.1h-11.9c-1.4,0-2.5-1.2-2.5-2.7c0-1.5,1.1-2.7,2.5-2.7h11.9
		c1.4,0,2.5,1.2,2.5,2.7C-1099.5,411.9-1100.6,413.1-1102,413.1 M-1078.3,413.1h-11.9c-1.4,0-2.5-1.2-2.5-2.7c0-1.5,1.1-2.7,2.5-2.7
		h11.9c1.4,0,2.5,1.2,2.5,2.7C-1075.7,411.9-1076.9,413.1-1078.3,413.1 M-1054.5,413.1h-11.9c-1.4,0-2.5-1.2-2.5-2.7
		c0-1.5,1.1-2.7,2.5-2.7h11.9c1.4,0,2.5,1.2,2.5,2.7C-1052,411.9-1053.1,413.1-1054.5,413.1 M-1030.8,413.1h-11.9
		c-1.4,0-2.5-1.2-2.5-2.7c0-1.5,1.1-2.7,2.5-2.7h11.9c1.4,0,2.5,1.2,2.5,2.7C-1028.3,411.9-1029.4,413.1-1030.8,413.1 M-1007,413.1
		h-11.9c-1.4,0-2.5-1.2-2.5-2.7c0-1.5,1.1-2.7,2.5-2.7h11.9c1.4,0,2.5,1.2,2.5,2.7C-1004.5,411.9-1005.6,413.1-1007,413.1
		 M-983.3,413.1h-11.9c-1.4,0-2.5-1.2-2.5-2.7c0-1.5,1.1-2.7,2.5-2.7h11.9c1.4,0,2.5,1.2,2.5,2.7
		C-980.8,411.9-981.9,413.1-983.3,413.1 M-959.6,413.1h-11.9c-1.4,0-2.5-1.2-2.5-2.7c0-1.5,1.1-2.7,2.5-2.7h11.9
		c1.4,0,2.5,1.2,2.5,2.7C-957,411.9-958.2,413.1-959.6,413.1 M-935.8,413.1h-11.9c-1.4,0-2.5-1.2-2.5-2.7c0-1.5,1.1-2.7,2.5-2.7
		h11.9c1.4,0,2.5,1.2,2.5,2.7C-933.3,411.9-934.4,413.1-935.8,413.1 M-912.1,413.1H-924c-1.4,0-2.5-1.2-2.5-2.7
		c0-1.5,1.1-2.7,2.5-2.7h11.9c1.4,0,2.5,1.2,2.5,2.7C-909.5,411.9-910.7,413.1-912.1,413.1 M-888.3,413.1h-11.9
		c-1.4,0-2.5-1.2-2.5-2.7c0-1.5,1.1-2.7,2.5-2.7h11.9c1.4,0,2.5,1.2,2.5,2.7C-885.8,411.9-886.9,413.1-888.3,413.1 M-864.6,413.1
		h-11.9c-1.4,0-2.5-1.2-2.5-2.7c0-1.5,1.1-2.7,2.5-2.7h11.9c1.4,0,2.5,1.2,2.5,2.7C-862.1,411.9-863.2,413.1-864.6,413.1
		 M-840.9,413.1h-11.9c-1.4,0-2.5-1.2-2.5-2.7c0-1.5,1.1-2.7,2.5-2.7h11.9c1.4,0,2.5,1.2,2.5,2.7
		C-838.3,411.9-839.5,413.1-840.9,413.1 M-817.1,413.1H-829c-1.4,0-2.5-1.2-2.5-2.7c0-1.5,1.1-2.7,2.5-2.7h11.9
		c1.4,0,2.5,1.2,2.5,2.7C-814.6,411.9-815.7,413.1-817.1,413.1 M-793.4,413.1h-11.9c-1.4,0-2.5-1.2-2.5-2.7c0-1.5,1.1-2.7,2.5-2.7
		h11.9c1.4,0,2.5,1.2,2.5,2.7C-790.8,411.9-792,413.1-793.4,413.1 M-769.6,413.1h-11.9c-1.4,0-2.5-1.2-2.5-2.7
		c0-1.5,1.1-2.7,2.5-2.7h11.9c1.4,0,2.6,1.2,2.6,2.7C-767.1,411.9-768.2,413.1-769.6,413.1 M-757.1,407.6c-0.5,0.5-1.1,0.8-1.8,0.8
		c-0.7,0-1.3-0.3-1.8-0.8c-1-1-1-2.7,0-3.8c2.4-2.5,3.7-5.8,3.7-9.4c0-1.5,1.1-2.7,2.5-2.7h0c1.4,0,2.5,1.2,2.5,2.7
		C-751.9,399.5-753.8,404.1-757.1,407.6 M-751.9,382c0,1.5-1.1,2.7-2.5,2.7c-1.4,0-2.5-1.2-2.5-2.7v-12.5c0-1.5,1.1-2.7,2.5-2.7
		c1.4,0,2.5,1.2,2.5,2.7V382z M-751.9,356.9c0,1.5-1.1,2.7-2.5,2.7c-1.4,0-2.5-1.2-2.5-2.7v-12.5c0-1.5,1.1-2.7,2.5-2.7
		c1.4,0,2.5,1.2,2.5,2.7V356.9z M-751.9,332.7c0,1-1.1,1.9-2.5,1.9c-1.4,0-2.5-0.8-2.5-1.9v-8.9c0-1,1.1-1.9,2.5-1.9
		c1.4,0,2.5,0.8,2.5,1.9V332.7z"/>
	<path class="st1" d="M-730.1,233.7H-759h-15.5h-53.5c-18.7,0-34,16.1-34,35.8c0,19.7,15.3,35.8,34,35.8h53.5h15.5h28.9
		c6.1,0,11.2-5.3,11.2-11.8v-24.1v-24.1C-718.9,239-723.9,233.7-730.1,233.7 M-834.5,280.8c-5.9,0-10.6-5-10.6-11.2
		c0-6.2,4.8-11.2,10.6-11.2c5.9,0,10.6,5,10.6,11.2C-823.9,275.8-828.6,280.8-834.5,280.8"/>
	<path class="st1" d="M-1092.7,45.7l31.1,47h211.9l94-69.1c5-3.7,6.3-11.1,2.8-16.4L-846.9-135c-3.5-5.3-10.5-6.6-15.5-2.9
		l-227.5,167.2C-1094.9,33-1096.2,40.3-1092.7,45.7 M-1064.4,36.6l199.7-146.8c5-3.7,12-2.4,15.5,2.9l3.9,5.9
		c3.5,5.3,2.3,12.7-2.8,16.4l-199.7,146.8c-5,3.7-12,2.4-15.5-2.9l-3.9-5.9C-1070.7,47.7-1069.5,40.3-1064.4,36.6"/>
	<path class="st1" d="M-793.7,66.8h49.7c-5.1-9.3-13.5-16.3-23.4-19.3L-793.7,66.8z"/>
</g>
<g>
	<path class="st1" d="M28.3,0h427.7c15.7,0,28.3,12.7,28.3,28.3v269.5c0,15.7-12.7,28.3-28.3,28.3H28.3C12.7,326.2,0,313.5,0,297.9
		V28.3C0,12.7,12.7,0,28.3,0z"/>
	<g>
		<path class="st2" d="M36.9,305.7L36.9,305.7c-4,0-7.2-3.2-7.2-7.1V41.3c0-3.9,3.2-7.1,7.2-7.1s7.2,3.2,7.2,7.1v257.3
			C44.1,302.5,40.9,305.7,36.9,305.7"/>
		<path class="st2" d="M58.5,280.9L58.5,280.9c-4,0-7.2-3.2-7.2-7.1V41.3c0-3.9,3.2-7.1,7.2-7.1s7.2,3.2,7.2,7.1v232.5
			C65.7,277.7,62.5,280.9,58.5,280.9"/>
		<path class="st2" d="M83.3,280.9L83.3,280.9c-4,0-7.2-3.2-7.2-7.1V41.3c0-3.9,3.2-7.1,7.2-7.1c4,0,7.2,3.2,7.2,7.1v232.5
			C90.5,277.7,87.3,280.9,83.3,280.9"/>
		<path class="st2" d="M101.8,280.9L101.8,280.9c-4,0-7.2-3.2-7.2-7.1V41.3c0-3.9,3.2-7.1,7.2-7.1s7.2,3.2,7.2,7.1v232.5
			C109,277.7,105.7,280.9,101.8,280.9"/>
		<path class="st2" d="M120.2,280.9L120.2,280.9c-4,0-7.2-3.2-7.2-7.1V41.3c0-3.9,3.2-7.1,7.2-7.1s7.2,3.2,7.2,7.1v232.5
			C127.4,277.7,124.2,280.9,120.2,280.9"/>
		<path class="st2" d="M145,280.9L145,280.9c-4,0-7.2-3.2-7.2-7.1V41.3c0-3.9,3.2-7.1,7.2-7.1c4,0,7.2,3.2,7.2,7.1v232.5
			C152.2,277.7,148.9,280.9,145,280.9"/>
		<path class="st2" d="M170.8,280.9L170.8,280.9c-4,0-7.2-3.2-7.2-7.1V41.3c0-3.9,3.2-7.1,7.2-7.1c4,0,7.2,3.2,7.2,7.1v232.5
			C178,277.7,174.8,280.9,170.8,280.9"/>
		<path class="st2" d="M188.2,280.9L188.2,280.9c-4,0-7.2-3.2-7.2-7.1V41.3c0-3.9,3.2-7.1,7.2-7.1c4,0,7.2,3.2,7.2,7.1v232.5
			C195.4,277.7,192.2,280.9,188.2,280.9"/>
		<path class="st2" d="M209.8,280.9L209.8,280.9c-4,0-7.2-3.2-7.2-7.1V41.3c0-3.9,3.2-7.1,7.2-7.1c4,0,7.2,3.2,7.2,7.1v232.5
			C217,277.7,213.8,280.9,209.8,280.9"/>
		<path class="st2" d="M231.4,280.9L231.4,280.9c-4,0-7.2-3.2-7.2-7.1V41.3c0-3.9,3.2-7.1,7.2-7.1c4,0,7.2,3.2,7.2,7.1v232.5
			C238.6,277.7,235.4,280.9,231.4,280.9"/>
		<path class="st2" d="M257.3,280.9L257.3,280.9c-4,0-7.2-3.2-7.2-7.1V41.3c0-3.9,3.2-7.1,7.2-7.1c4,0,7.2,3.2,7.2,7.1v232.5
			C264.5,277.7,261.2,280.9,257.3,280.9"/>
		<path class="st2" d="M274.6,280.9L274.6,280.9c-4,0-7.2-3.2-7.2-7.1V41.3c0-3.9,3.2-7.1,7.2-7.1c4,0,7.2,3.2,7.2,7.1v232.5
			C281.8,277.7,278.6,280.9,274.6,280.9"/>
		<path class="st2" d="M296.2,280.9L296.2,280.9c-4,0-7.2-3.2-7.2-7.1V41.3c0-3.9,3.2-7.1,7.2-7.1s7.2,3.2,7.2,7.1v232.5
			C303.4,277.7,300.2,280.9,296.2,280.9"/>
		<path class="st2" d="M313.6,280.9L313.6,280.9c-4,0-7.2-3.2-7.2-7.1V41.3c0-3.9,3.2-7.1,7.2-7.1c4,0,7.2,3.2,7.2,7.1v232.5
			C320.8,277.7,317.6,280.9,313.6,280.9"/>
		<path class="st2" d="M339.5,280.9L339.5,280.9c-4,0-7.2-3.2-7.2-7.1V41.3c0-3.9,3.2-7.1,7.2-7.1s7.2,3.2,7.2,7.1v232.5
			C346.7,277.7,343.4,280.9,339.5,280.9"/>
		<path class="st2" d="M356.8,280.9L356.8,280.9c-4,0-7.2-3.2-7.2-7.1V41.3c0-3.9,3.2-7.1,7.2-7.1c4,0,7.2,3.2,7.2,7.1v232.5
			C364,277.7,360.8,280.9,356.8,280.9"/>
		<path class="st2" d="M382.7,280.9L382.7,280.9c-4,0-7.2-3.2-7.2-7.1V41.3c0-3.9,3.2-7.1,7.2-7.1s7.2,3.2,7.2,7.1v232.5
			C389.9,277.7,386.6,280.9,382.7,280.9"/>
		<path class="st2" d="M400,280.9L400,280.9c-4,0-7.2-3.2-7.2-7.1V41.3c0-3.9,3.2-7.1,7.2-7.1c4,0,7.2,3.2,7.2,7.1v232.5
			C407.2,277.7,404,280.9,400,280.9"/>
		<path class="st2" d="M417.4,280.9L417.4,280.9c-4,0-7.2-3.2-7.2-7.1V41.3c0-3.9,3.2-7.1,7.2-7.1c4,0,7.2,3.2,7.2,7.1v232.5
			C424.6,277.7,421.4,280.9,417.4,280.9"/>
		<path class="st2" d="M447.5,305.7L447.5,305.7c-4,0-7.2-3.2-7.2-7.1V41.3c0-3.9,3.2-7.1,7.2-7.1c4,0,7.2,3.2,7.2,7.1v257.3
			C454.7,302.5,451.5,305.7,447.5,305.7"/>
	</g>
</g>
<g>
	<path class="st0" d="M574.4,0h427.7c15.7,0,28.3,12.7,28.3,28.3v269.5c0,15.7-12.7,28.3-28.3,28.3H574.4
		c-15.7,0-28.3-12.7-28.3-28.3V28.3C546,12.7,558.7,0,574.4,0z"/>
	<g>
		<path class="st2" d="M583,305.7L583,305.7c-4,0-7.2-3.2-7.2-7.1V41.3c0-3.9,3.2-7.1,7.2-7.1c4,0,7.2,3.2,7.2,7.1v257.3
			C590.2,302.5,586.9,305.7,583,305.7"/>
		<path class="st2" d="M604.6,280.9L604.6,280.9c-4,0-7.2-3.2-7.2-7.1V41.3c0-3.9,3.2-7.1,7.2-7.1s7.2,3.2,7.2,7.1v232.5
			C611.8,277.7,608.6,280.9,604.6,280.9"/>
		<path class="st2" d="M629.4,280.9L629.4,280.9c-4,0-7.2-3.2-7.2-7.1V41.3c0-3.9,3.2-7.1,7.2-7.1c4,0,7.2,3.2,7.2,7.1v232.5
			C636.6,277.7,633.3,280.9,629.4,280.9"/>
		<path class="st2" d="M647.8,280.9L647.8,280.9c-4,0-7.2-3.2-7.2-7.1V41.3c0-3.9,3.2-7.1,7.2-7.1s7.2,3.2,7.2,7.1v232.5
			C655,277.7,651.8,280.9,647.8,280.9"/>
		<path class="st2" d="M666.2,280.9L666.2,280.9c-4,0-7.2-3.2-7.2-7.1V41.3c0-3.9,3.2-7.1,7.2-7.1c4,0,7.2,3.2,7.2,7.1v232.5
			C673.4,277.7,670.2,280.9,666.2,280.9"/>
		<path class="st2" d="M691,280.9L691,280.9c-4,0-7.2-3.2-7.2-7.1V41.3c0-3.9,3.2-7.1,7.2-7.1c4,0,7.2,3.2,7.2,7.1v232.5
			C698.2,277.7,695,280.9,691,280.9"/>
		<path class="st2" d="M716.9,280.9L716.9,280.9c-4,0-7.2-3.2-7.2-7.1V41.3c0-3.9,3.2-7.1,7.2-7.1c4,0,7.2,3.2,7.2,7.1v232.5
			C724.1,277.7,720.8,280.9,716.9,280.9"/>
		<path class="st2" d="M734.2,280.9L734.2,280.9c-4,0-7.2-3.2-7.2-7.1V41.3c0-3.9,3.2-7.1,7.2-7.1c4,0,7.2,3.2,7.2,7.1v232.5
			C741.4,277.7,738.2,280.9,734.2,280.9"/>
		<path class="st2" d="M755.8,280.9L755.8,280.9c-4,0-7.2-3.2-7.2-7.1V41.3c0-3.9,3.2-7.1,7.2-7.1c4,0,7.2,3.2,7.2,7.1v232.5
			C763.1,277.7,759.8,280.9,755.8,280.9"/>
		<path class="st2" d="M777.5,280.9L777.5,280.9c-4,0-7.2-3.2-7.2-7.1V41.3c0-3.9,3.2-7.1,7.2-7.1s7.2,3.2,7.2,7.1v232.5
			C784.7,277.7,781.4,280.9,777.5,280.9"/>
		<path class="st2" d="M803.3,280.9L803.3,280.9c-4,0-7.2-3.2-7.2-7.1V41.3c0-3.9,3.2-7.1,7.2-7.1c4,0,7.2,3.2,7.2,7.1v232.5
			C810.5,277.7,807.3,280.9,803.3,280.9"/>
		<path class="st2" d="M820.7,280.9L820.7,280.9c-4,0-7.2-3.2-7.2-7.1V41.3c0-3.9,3.2-7.1,7.2-7.1c4,0,7.2,3.2,7.2,7.1v232.5
			C827.9,277.7,824.6,280.9,820.7,280.9"/>
		<path class="st2" d="M842.3,280.9L842.3,280.9c-4,0-7.2-3.2-7.2-7.1V41.3c0-3.9,3.2-7.1,7.2-7.1c4,0,7.2,3.2,7.2,7.1v232.5
			C849.5,277.7,846.2,280.9,842.3,280.9"/>
		<path class="st2" d="M859.7,280.9L859.7,280.9c-4,0-7.2-3.2-7.2-7.1V41.3c0-3.9,3.2-7.1,7.2-7.1s7.2,3.2,7.2,7.1v232.5
			C866.9,277.7,863.6,280.9,859.7,280.9"/>
		<path class="st2" d="M885.5,280.9L885.5,280.9c-4,0-7.2-3.2-7.2-7.1V41.3c0-3.9,3.2-7.1,7.2-7.1c4,0,7.2,3.2,7.2,7.1v232.5
			C892.7,277.7,889.5,280.9,885.5,280.9"/>
		<path class="st2" d="M902.9,280.9L902.9,280.9c-4,0-7.2-3.2-7.2-7.1V41.3c0-3.9,3.2-7.1,7.2-7.1c4,0,7.2,3.2,7.2,7.1v232.5
			C910.1,277.7,906.8,280.9,902.9,280.9"/>
		<path class="st2" d="M928.7,280.9L928.7,280.9c-4,0-7.2-3.2-7.2-7.1V41.3c0-3.9,3.2-7.1,7.2-7.1c4,0,7.2,3.2,7.2,7.1v232.5
			C935.9,277.7,932.7,280.9,928.7,280.9"/>
		<path class="st2" d="M946.1,280.9L946.1,280.9c-4,0-7.2-3.2-7.2-7.1V41.3c0-3.9,3.2-7.1,7.2-7.1s7.2,3.2,7.2,7.1v232.5
			C953.3,277.7,950,280.9,946.1,280.9"/>
		<path class="st2" d="M963.5,280.9L963.5,280.9c-4,0-7.2-3.2-7.2-7.1V41.3c0-3.9,3.2-7.1,7.2-7.1c4,0,7.2,3.2,7.2,7.1v232.5
			C970.7,277.7,967.4,280.9,963.5,280.9"/>
		<path class="st2" d="M993.5,305.7L993.5,305.7c-4,0-7.2-3.2-7.2-7.1V41.3c0-3.9,3.2-7.1,7.2-7.1c4,0,7.2,3.2,7.2,7.1v257.3
			C1000.7,302.5,997.5,305.7,993.5,305.7"/>
	</g>
</g>
</svg>
