<?xml version="1.0" encoding="utf-8"?>
<!-- Generator: Adobe Illustrator 19.2.1, SVG Export Plug-In . SVG Version: 6.00 Build 0)  -->
<svg version="1.1" id="Layer_1" xmlns="http://www.w3.org/2000/svg" xmlns:xlink="http://www.w3.org/1999/xlink" x="0px" y="0px"
	 viewBox="0 0 484.3 619.9" style="enable-background:new 0 0 484.3 619.9;" xml:space="preserve">
<style type="text/css">
	.st0{fill:#3A2E87;}
	.st1{fill:#676767;}
	.st2{fill-rule:evenodd;clip-rule:evenodd;fill:#FFFFFF;}
</style>
<g>
	<path class="st0" d="M600.6,258.1l24.3,18.6h46.8l-32.9-49.8c-3.5-5.3-2.3-12.7,2.8-16.4L849.2,57.9L776.4,2.2
		c-5-3.8-12-2.6-15.6,2.6L598.1,241.6C594.5,246.9,595.6,254.3,600.6,258.1"/>
	<path class="st0" d="M986.2,501.5h-71.6c-25,0-45.5-21.6-45.5-48c0-26.4,20.5-48,45.5-48h71.6h20.7h5.5v-62.3V330
		c0-22.9-17.8-41.7-39.6-41.7h-27.1H687.4h-65.3h-37.7h-0.5c-9.8,0-17.8-8.4-17.8-18.7c0-9.4,6.6-17.2,15.2-18.5
		c0-2.4,0.7-4.8,2.1-6.9l9.8-14.2h-8.8c-21.8,0-39.6,18.8-39.6,41.7V330v188.8v58.4c0,22.9,17.8,41.7,39.6,41.7h388.5
		c21.8,0,39.6-18.8,39.6-41.7v-58.4v-17.2h-5.5H986.2z M994.2,390.7c0,1.5-1.1,2.7-2.5,2.7c-1.4,0-2.5-1.2-2.5-2.7v-12.5
		c0-1.5,1.1-2.7,2.5-2.7c1.4,0,2.5,1.2,2.5,2.7V390.7z M994.2,365.6c0,1.5-1.1,2.7-2.5,2.7c-1.4,0-2.5-1.2-2.5-2.7v-12.5
		c0-1.5,1.1-2.7,2.5-2.7c1.4,0,2.5,1.2,2.5,2.7V365.6z M994.2,328v12.5c0,1.5-1.1,2.7-2.5,2.7c-1.4,0-2.5-1.2-2.5-2.7V328
		c0-1.5,1.1-2.7,2.5-2.7C993.1,325.4,994.2,326.6,994.2,328 M975.8,309.9c0.2-1.5,1.4-2.5,2.8-2.3c4.6,0.6,8.8,3.1,11.7,7
		c0.9,1.2,0.7,2.8-0.4,3.8c-0.5,0.4-1,0.6-1.6,0.6c-0.8,0-1.5-0.4-2-1c-2.1-2.8-5.1-4.6-8.4-5C976.7,312.7,975.7,311.4,975.8,309.9
		 M954.6,307.5h11.9c1.4,0,2.5,1.2,2.5,2.7c0,1.5-1.1,2.7-2.5,2.7h-11.9c-1.4,0-2.5-1.2-2.5-2.7
		C952.1,308.7,953.2,307.5,954.6,307.5 M930.9,307.5h11.9c1.4,0,2.5,1.2,2.5,2.7c0,1.5-1.1,2.7-2.5,2.7h-11.9
		c-1.4,0-2.5-1.2-2.5-2.7C928.3,308.7,929.5,307.5,930.9,307.5 M907.1,307.5H919c1.4,0,2.5,1.2,2.5,2.7c0,1.5-1.1,2.7-2.5,2.7h-11.9
		c-1.4,0-2.5-1.2-2.5-2.7C904.6,308.7,905.7,307.5,907.1,307.5 M883.4,307.5h11.9c1.4,0,2.5,1.2,2.5,2.7c0,1.5-1.1,2.7-2.5,2.7
		h-11.9c-1.4,0-2.5-1.2-2.5-2.7C880.9,308.7,882,307.5,883.4,307.5 M859.7,307.5h11.9c1.4,0,2.5,1.2,2.5,2.7c0,1.5-1.1,2.7-2.5,2.7
		h-11.9c-1.4,0-2.5-1.2-2.5-2.7C857.1,308.7,858.3,307.5,859.7,307.5 M835.9,307.5h11.9c1.4,0,2.5,1.2,2.5,2.7
		c0,1.5-1.1,2.7-2.5,2.7h-11.9c-1.4,0-2.5-1.2-2.5-2.7C833.4,308.7,834.5,307.5,835.9,307.5 M812.2,307.5h11.9
		c1.4,0,2.5,1.2,2.5,2.7c0,1.5-1.1,2.7-2.5,2.7h-11.9c-1.4,0-2.5-1.2-2.5-2.7C809.6,308.7,810.8,307.5,812.2,307.5 M788.4,307.5
		h11.9c1.4,0,2.5,1.2,2.5,2.7c0,1.5-1.1,2.7-2.5,2.7h-11.9c-1.4,0-2.5-1.2-2.5-2.7C785.9,308.7,787,307.5,788.4,307.5 M764.7,307.5
		h11.9c1.4,0,2.5,1.2,2.5,2.7c0,1.5-1.1,2.7-2.5,2.7h-11.9c-1.4,0-2.5-1.2-2.5-2.7C762.2,308.7,763.3,307.5,764.7,307.5 M741,307.5
		h11.9c1.4,0,2.5,1.2,2.5,2.7c0,1.5-1.1,2.7-2.5,2.7H741c-1.4,0-2.5-1.2-2.5-2.7C738.4,308.7,739.6,307.5,741,307.5 M717.2,307.5
		h11.9c1.4,0,2.5,1.2,2.5,2.7c0,1.5-1.1,2.7-2.5,2.7h-11.9c-1.4,0-2.5-1.2-2.5-2.7C714.7,308.7,715.8,307.5,717.2,307.5
		 M693.5,307.5h11.9c1.4,0,2.5,1.2,2.5,2.7c0,1.5-1.1,2.7-2.5,2.7h-11.9c-1.4,0-2.5-1.2-2.5-2.7
		C690.9,308.7,692.1,307.5,693.5,307.5 M669.7,307.5h11.9c1.4,0,2.5,1.2,2.5,2.7c0,1.5-1.1,2.7-2.5,2.7h-11.9
		c-1.4,0-2.5-1.2-2.5-2.7C667.2,308.7,668.3,307.5,669.7,307.5 M646,307.5h11.9c1.4,0,2.5,1.2,2.5,2.7c0,1.5-1.1,2.7-2.5,2.7H646
		c-1.4,0-2.5-1.2-2.5-2.7C643.5,308.7,644.6,307.5,646,307.5 M622.3,307.5h11.9c1.4,0,2.5,1.2,2.5,2.7c0,1.5-1.1,2.7-2.5,2.7h-11.9
		c-1.4,0-2.5-1.2-2.5-2.7C619.7,308.7,620.9,307.5,622.3,307.5 M598.5,307.5h11.9c1.4,0,2.5,1.2,2.5,2.7c0,1.5-1.1,2.7-2.5,2.7
		h-11.9c-1.4,0-2.5-1.2-2.5-2.7C596,308.7,597.1,307.5,598.5,307.5 M568.9,326c0-1.5,1.2-2.7,2.6-2.6c1.4,0,2.5,1.2,2.5,2.7l0,12.5
		c0,1.5-1.1,2.7-2.5,2.7s-2.5-1.2-2.5-2.7L568.9,326z M568.9,351.1c0-1.5,1.1-2.7,2.5-2.7s2.5,1.2,2.5,2.7v12.5
		c0,1.5-1.1,2.7-2.5,2.7s-2.5-1.2-2.5-2.7V351.1z M568.9,376.1c0-1.5,1.1-2.7,2.5-2.7s2.5,1.2,2.5,2.7v12.5c0,1.5-1.1,2.7-2.5,2.7
		s-2.5-1.2-2.5-2.7V376.1z M568.9,401.2c0-1.5,1.1-2.7,2.5-2.7s2.5,1.2,2.5,2.7v12.5c0,1.5-1.1,2.7-2.5,2.7s-2.5-1.2-2.5-2.7V401.2z
		 M568.9,426.2c0-1.5,1.1-2.7,2.5-2.7s2.5,1.2,2.5,2.7v12.5c0,1.5-1.1,2.7-2.5,2.7s-2.5-1.2-2.5-2.7V426.2z M568.9,451.3
		c0-1.5,1.1-2.7,2.5-2.7s2.5,1.2,2.5,2.7v12.5c0,1.5-1.1,2.7-2.5,2.7s-2.5-1.2-2.5-2.7V451.3z M568.9,476.3c0-1.5,1.1-2.7,2.5-2.7
		s2.5,1.2,2.5,2.7v12.5c0,1.5-1.1,2.7-2.5,2.7s-2.5-1.2-2.5-2.7V476.3z M568.9,501.4c0-1.5,1.1-2.7,2.5-2.7s2.5,1.2,2.5,2.7v12.5
		c0,1.5-1.1,2.7-2.5,2.7s-2.5-1.2-2.5-2.7V501.4z M568.9,526.4c0-1.5,1.1-2.7,2.5-2.7s2.5,1.2,2.5,2.7v12.5c0,1.5-1.1,2.7-2.5,2.7
		s-2.5-1.2-2.5-2.7V526.4z M568.9,551.4c0-1.5,1.1-2.7,2.5-2.7s2.5,1.2,2.5,2.7V564c0,1.5-1.1,2.7-2.5,2.7s-2.5-1.2-2.5-2.7V551.4z
		 M576.2,590.3c-0.5,0.4-1,0.6-1.6,0.6c-0.8,0-1.5-0.4-2-1c-2.5-3.3-3.8-7.3-3.8-11.5v-1.9c0-1.5,1.1-2.7,2.5-2.7s2.5,1.2,2.5,2.7
		v1.9c0,3,0.9,5.8,2.7,8.2C577.5,587.7,577.4,589.4,576.2,590.3 M576,317.5c-0.7,0-1.3-0.3-1.8-0.8c-1-1-1-2.7,0-3.8
		c3.3-3.5,7.8-5.4,12.5-5.5h0c1.4,0,2.5,1.2,2.5,2.7c0,1.5-1.1,2.7-2.5,2.7c-3.3,0-6.5,1.4-8.9,3.9
		C577.3,317.2,576.6,317.5,576,317.5 M596.6,597.1h-9.9c-0.8,0-1.5-0.1-2.3-0.2c-1.4-0.2-2.4-1.5-2.2-3c0.2-1.5,1.4-2.5,2.8-2.3
		c0.5,0.1,1.1,0.1,1.6,0.1h9.9c1.4,0,2.5,1.2,2.5,2.7C599.1,595.9,598,597.1,596.6,597.1 M620.3,597.1h-11.9c-1.4,0-2.5-1.2-2.5-2.7
		c0-1.5,1.1-2.7,2.5-2.7h11.9c1.4,0,2.5,1.2,2.5,2.7C622.9,595.9,621.7,597.1,620.3,597.1 M644.1,597.1h-11.9
		c-1.4,0-2.5-1.2-2.5-2.7c0-1.5,1.1-2.7,2.5-2.7h11.9c1.4,0,2.5,1.2,2.5,2.7C646.6,595.9,645.5,597.1,644.1,597.1 M667.8,597.1
		h-11.9c-1.4,0-2.5-1.2-2.5-2.7c0-1.5,1.1-2.7,2.5-2.7h11.9c1.4,0,2.5,1.2,2.5,2.7C670.4,595.9,669.2,597.1,667.8,597.1
		 M691.6,597.1h-11.9c-1.4,0-2.5-1.2-2.5-2.7c0-1.5,1.1-2.7,2.5-2.7h11.9c1.4,0,2.5,1.2,2.5,2.7C694.1,595.9,693,597.1,691.6,597.1
		 M715.3,597.1h-11.9c-1.4,0-2.5-1.2-2.5-2.7c0-1.5,1.1-2.7,2.5-2.7h11.9c1.4,0,2.5,1.2,2.5,2.7
		C717.8,595.9,716.7,597.1,715.3,597.1 M739,597.1h-11.9c-1.4,0-2.5-1.2-2.5-2.7c0-1.5,1.1-2.7,2.5-2.7H739c1.4,0,2.5,1.2,2.5,2.7
		C741.6,595.9,740.4,597.1,739,597.1 M762.8,597.1h-11.9c-1.4,0-2.5-1.2-2.5-2.7c0-1.5,1.1-2.7,2.5-2.7h11.9c1.4,0,2.5,1.2,2.5,2.7
		C765.3,595.9,764.2,597.1,762.8,597.1 M786.5,597.1h-11.9c-1.4,0-2.5-1.2-2.5-2.7c0-1.5,1.1-2.7,2.5-2.7h11.9
		c1.4,0,2.5,1.2,2.5,2.7C789.1,595.9,787.9,597.1,786.5,597.1 M810.3,597.1h-11.9c-1.4,0-2.5-1.2-2.5-2.7c0-1.5,1.1-2.7,2.5-2.7
		h11.9c1.4,0,2.5,1.2,2.5,2.7C812.8,595.9,811.7,597.1,810.3,597.1 M834,597.1h-11.9c-1.4,0-2.5-1.2-2.5-2.7c0-1.5,1.1-2.7,2.5-2.7
		H834c1.4,0,2.5,1.2,2.5,2.7C836.5,595.9,835.4,597.1,834,597.1 M857.7,597.1h-11.9c-1.4,0-2.5-1.2-2.5-2.7c0-1.5,1.1-2.7,2.5-2.7
		h11.9c1.4,0,2.5,1.2,2.5,2.7C860.3,595.9,859.1,597.1,857.7,597.1 M881.5,597.1h-11.9c-1.4,0-2.5-1.2-2.5-2.7
		c0-1.5,1.1-2.7,2.5-2.7h11.9c1.4,0,2.5,1.2,2.5,2.7C884,595.9,882.9,597.1,881.5,597.1 M905.2,597.1h-11.9c-1.4,0-2.5-1.2-2.5-2.7
		c0-1.5,1.1-2.7,2.5-2.7h11.9c1.4,0,2.5,1.2,2.5,2.7C907.8,595.9,906.6,597.1,905.2,597.1 M929,597.1h-11.9c-1.4,0-2.5-1.2-2.5-2.7
		c0-1.5,1.1-2.7,2.5-2.7H929c1.4,0,2.5,1.2,2.5,2.7C931.5,595.9,930.4,597.1,929,597.1 M952.7,597.1h-11.9c-1.4,0-2.5-1.2-2.5-2.7
		c0-1.5,1.1-2.7,2.5-2.7h11.9c1.4,0,2.5,1.2,2.5,2.7C955.2,595.9,954.1,597.1,952.7,597.1 M976.5,597.1h-11.9
		c-1.4,0-2.5-1.2-2.5-2.7c0-1.5,1.1-2.7,2.5-2.7h11.9c1.4,0,2.6,1.2,2.6,2.7C979,595.9,977.9,597.1,976.5,597.1 M989,591.6
		c-0.5,0.5-1.1,0.8-1.8,0.8c-0.7,0-1.3-0.3-1.8-0.8c-1-1-1-2.7,0-3.8c2.4-2.5,3.7-5.8,3.7-9.4c0-1.5,1.1-2.7,2.5-2.7h0
		c1.4,0,2.5,1.2,2.5,2.7C994.2,583.4,992.3,588.1,989,591.6 M994.2,565.9c0,1.5-1.1,2.7-2.5,2.7c-1.4,0-2.5-1.2-2.5-2.7v-12.5
		c0-1.5,1.1-2.7,2.5-2.7c1.4,0,2.5,1.2,2.5,2.7V565.9z M994.2,540.9c0,1.5-1.1,2.7-2.5,2.7c-1.4,0-2.5-1.2-2.5-2.7v-12.5
		c0-1.5,1.1-2.7,2.5-2.7c1.4,0,2.5,1.2,2.5,2.7V540.9z M994.2,516.6c0,1-1.1,1.9-2.5,1.9c-1.4,0-2.5-0.8-2.5-1.9v-8.9
		c0-1,1.1-1.9,2.5-1.9c1.4,0,2.5,0.8,2.5,1.9V516.6z"/>
	<path class="st0" d="M1016,417.7h-28.9h-15.5h-53.5c-18.7,0-34,16.1-34,35.8c0,19.7,15.3,35.8,34,35.8h53.5h15.5h28.9
		c6.1,0,11.2-5.3,11.2-11.8v-24.1v-24.1C1027.2,459,4022.2,417.7,1016,417.7 M911.6,464.7c-5.9,0-10.6-5-10.6-11.2
		c0-6.2,4.8-11.2,10.6-11.2c5.9,0,10.6,5,10.6,11.2C922.2,459.7,917.5,464.7,911.6,464.7"/>
	<path class="st0" d="M653.4,229.6l31.1,47h211.9l94-69.1c5-3.7,6.3-11.1,2.8-16.4L899.2,49c-3.5-5.3-10.5-6.6-15.5-2.9L656.2,213.2
		C651.1,216.9,649.9,224.3,653.4,229.6 M681.6,220.6L881.4,73.8c5-3.7,12-2.4,15.5,2.9l3.9,5.9c3.5,5.3,2.3,12.7-2.8,16.4
		L698.3,245.8c-5,3.7-12,2.4-15.5-2.9l-3.9-5.9C675.4,231.7,676.6,224.3,681.6,220.6"/>
	<path class="st0" d="M952.4,250.8h49.7c-5.1-9.3-13.5-16.3-23.4-19.3L952.4,250.8z"/>
</g>
<g>
	<path class="st1" d="M57.5,258.1l24.3,18.6h46.8l-32.9-49.8c-3.5-5.3-2.3-12.7,2.8-16.4L306.1,57.9L233.3,2.2
		c-5-3.8-12-2.6-15.6,2.6L55,241.6C51.4,246.9,52.5,254.3,57.5,258.1"/>
	<path class="st1" d="M443.1,501.5h-71.6c-25,0-45.5-21.6-45.5-48c0-26.4,20.5-48,45.5-48h71.6h20.7h5.5v-62.3V330
		c0-22.9-17.8-41.7-39.6-41.7h-27.1H144.3H79.1H41.3h-0.5c-9.8,0-17.8-8.4-17.8-18.7c0-9.4,6.6-17.2,15.2-18.5
		c0-2.4,0.7-4.8,2.1-6.9l9.8-14.2h-8.8c-21.8,0-39.6,18.8-39.6,41.7V330v188.8v58.4c0,22.9,17.8,41.7,39.6,41.7h388.5
		c21.8,0,39.6-18.8,39.6-41.7v-58.4v-17.2h-5.5H443.1z M451.1,390.7c0,1.5-1.1,2.7-2.5,2.7c-1.4,0-2.5-1.2-2.5-2.7v-12.5
		c0-1.5,1.1-2.7,2.5-2.7c1.4,0,2.5,1.2,2.5,2.7V390.7z M451.1,365.6c0,1.5-1.1,2.7-2.5,2.7c-1.4,0-2.5-1.2-2.5-2.7v-12.5
		c0-1.5,1.1-2.7,2.5-2.7c1.4,0,2.5,1.2,2.5,2.7V365.6z M451.1,328v12.5c0,1.5-1.1,2.7-2.5,2.7c-1.4,0-2.5-1.2-2.5-2.7V328
		c0-1.5,1.1-2.7,2.5-2.7C450,325.4,451.1,326.6,451.1,328 M432.8,309.9c0.2-1.5,1.4-2.5,2.8-2.3c4.6,0.6,8.8,3.1,11.7,7
		c0.9,1.2,0.7,2.8-0.4,3.8c-0.5,0.4-1,0.6-1.6,0.6c-0.8,0-1.5-0.4-2-1c-2.1-2.8-5.1-4.6-8.4-5C433.6,312.7,432.6,311.4,432.8,309.9
		 M411.6,307.5h11.9c1.4,0,2.5,1.2,2.5,2.7c0,1.5-1.1,2.7-2.5,2.7h-11.9c-1.4,0-2.5-1.2-2.5-2.7C409,308.7,410.2,307.5,411.6,307.5
		 M387.8,307.5h11.9c1.4,0,2.5,1.2,2.5,2.7c0,1.5-1.1,2.7-2.5,2.7h-11.9c-1.4,0-2.5-1.2-2.5-2.7
		C385.3,308.7,386.4,307.5,387.8,307.5 M364.1,307.5h11.9c1.4,0,2.5,1.2,2.5,2.7c0,1.5-1.1,2.7-2.5,2.7h-11.9
		c-1.4,0-2.5-1.2-2.5-2.7C361.5,308.7,362.7,307.5,364.1,307.5 M340.3,307.5h11.9c1.4,0,2.5,1.2,2.5,2.7c0,1.5-1.1,2.7-2.5,2.7
		h-11.9c-1.4,0-2.5-1.2-2.5-2.7C337.8,308.7,338.9,307.5,340.3,307.5 M316.6,307.5h11.9c1.4,0,2.5,1.2,2.5,2.7
		c0,1.5-1.1,2.7-2.5,2.7h-11.9c-1.4,0-2.5-1.2-2.5-2.7C314.1,308.7,315.2,307.5,316.6,307.5 M292.9,307.5h11.9
		c1.4,0,2.5,1.2,2.5,2.7c0,1.5-1.1,2.7-2.5,2.7h-11.9c-1.4,0-2.5-1.2-2.5-2.7C290.3,308.7,291.5,307.5,292.9,307.5 M269.1,307.5H281
		c1.4,0,2.5,1.2,2.5,2.7c0,1.5-1.1,2.7-2.5,2.7h-11.9c-1.4,0-2.5-1.2-2.5-2.7C266.6,308.7,267.7,307.5,269.1,307.5 M245.4,307.5
		h11.9c1.4,0,2.5,1.2,2.5,2.7c0,1.5-1.1,2.7-2.5,2.7h-11.9c-1.4,0-2.5-1.2-2.5-2.7C242.8,308.7,244,307.5,245.4,307.5 M221.6,307.5
		h11.9c1.4,0,2.5,1.2,2.5,2.7c0,1.5-1.1,2.7-2.5,2.7h-11.9c-1.4,0-2.5-1.2-2.5-2.7C219.1,308.7,220.2,307.5,221.6,307.5
		 M197.9,307.5h11.9c1.4,0,2.5,1.2,2.5,2.7c0,1.5-1.1,2.7-2.5,2.7h-11.9c-1.4,0-2.5-1.2-2.5-2.7
		C195.4,308.7,196.5,307.5,197.9,307.5 M174.1,307.5H186c1.4,0,2.5,1.2,2.5,2.7c0,1.5-1.1,2.7-2.5,2.7h-11.9c-1.4,0-2.5-1.2-2.5-2.7
		C171.6,308.7,172.7,307.5,174.1,307.5 M150.4,307.5h11.9c1.4,0,2.5,1.2,2.5,2.7c0,1.5-1.1,2.7-2.5,2.7h-11.9
		c-1.4,0-2.5-1.2-2.5-2.7C147.9,308.7,149,307.5,150.4,307.5 M126.7,307.5h11.9c1.4,0,2.5,1.2,2.5,2.7c0,1.5-1.1,2.7-2.5,2.7h-11.9
		c-1.4,0-2.5-1.2-2.5-2.7C124.1,308.7,125.3,307.5,126.7,307.5 M102.9,307.5h11.9c1.4,0,2.5,1.2,2.5,2.7c0,1.5-1.1,2.7-2.5,2.7
		h-11.9c-1.4,0-2.5-1.2-2.5-2.7C100.4,308.7,101.5,307.5,102.9,307.5 M79.2,307.5h11.9c1.4,0,2.5,1.2,2.5,2.7c0,1.5-1.1,2.7-2.5,2.7
		H79.2c-1.4,0-2.5-1.2-2.5-2.7C76.6,308.7,77.8,307.5,79.2,307.5 M55.4,307.5h11.9c1.4,0,2.5,1.2,2.5,2.7c0,1.5-1.1,2.7-2.5,2.7
		H55.4c-1.4,0-2.5-1.2-2.5-2.7C52.9,308.7,54,307.5,55.4,307.5 M25.9,326c0-1.5,1.2-2.7,2.6-2.6c1.4,0,2.5,1.2,2.5,2.7l0,12.5
		c0,1.5-1.1,2.7-2.5,2.7c-1.4,0-2.5-1.2-2.5-2.7L25.9,326z M25.9,351.1c0-1.5,1.1-2.7,2.5-2.7c1.4,0,2.5,1.2,2.5,2.7v12.5
		c0,1.5-1.1,2.7-2.5,2.7c-1.4,0-2.5-1.2-2.5-2.7V351.1z M25.9,376.1c0-1.5,1.1-2.7,2.5-2.7c1.4,0,2.5,1.2,2.5,2.7v12.5
		c0,1.5-1.1,2.7-2.5,2.7c-1.4,0-2.5-1.2-2.5-2.7V376.1z M25.9,401.2c0-1.5,1.1-2.7,2.5-2.7c1.4,0,2.5,1.2,2.5,2.7v12.5
		c0,1.5-1.1,2.7-2.5,2.7c-1.4,0-2.5-1.2-2.5-2.7V401.2z M25.9,426.2c0-1.5,1.1-2.7,2.5-2.7c1.4,0,2.5,1.2,2.5,2.7v12.5
		c0,1.5-1.1,2.7-2.5,2.7c-1.4,0-2.5-1.2-2.5-2.7V426.2z M25.9,451.3c0-1.5,1.1-2.7,2.5-2.7c1.4,0,2.5,1.2,2.5,2.7v12.5
		c0,1.5-1.1,2.7-2.5,2.7c-1.4,0-2.5-1.2-2.5-2.7V451.3z M25.9,476.3c0-1.5,1.1-2.7,2.5-2.7c1.4,0,2.5,1.2,2.5,2.7v12.5
		c0,1.5-1.1,2.7-2.5,2.7c-1.4,0-2.5-1.2-2.5-2.7V476.3z M25.9,501.4c0-1.5,1.1-2.7,2.5-2.7c1.4,0,2.5,1.2,2.5,2.7v12.5
		c0,1.5-1.1,2.7-2.5,2.7c-1.4,0-2.5-1.2-2.5-2.7V501.4z M25.9,526.4c0-1.5,1.1-2.7,2.5-2.7c1.4,0,2.5,1.2,2.5,2.7v12.5
		c0,1.5-1.1,2.7-2.5,2.7c-1.4,0-2.5-1.2-2.5-2.7V526.4z M25.9,551.4c0-1.5,1.1-2.7,2.5-2.7c1.4,0,2.5,1.2,2.5,2.7V564
		c0,1.5-1.1,2.7-2.5,2.7c-1.4,0-2.5-1.2-2.5-2.7V551.4z M33.2,590.3c-0.5,0.4-1,0.6-1.6,0.6c-0.8,0-1.5-0.4-2-1
		c-2.5-3.3-3.8-7.3-3.8-11.5v-1.9c0-1.5,1.1-2.7,2.5-2.7c1.4,0,2.5,1.2,2.5,2.7v1.9c0,3,0.9,5.8,2.7,8.2
		C34.5,587.7,34.3,589.4,33.2,590.3 M32.9,317.5c-0.7,0-1.3-0.3-1.8-0.8c-1-1-1-2.7,0-3.8c3.3-3.5,7.8-5.4,12.5-5.5h0
		c1.4,0,2.5,1.2,2.5,2.7c0,1.5-1.1,2.7-2.5,2.7c-3.3,0-6.5,1.4-8.9,3.9C34.2,317.2,33.5,317.5,32.9,317.5 M53.5,597.1h-9.9
		c-0.8,0-1.5-0.1-2.3-0.2c-1.4-0.2-2.4-1.5-2.2-3c0.2-1.5,1.4-2.5,2.8-2.3c0.5,0.1,1.1,0.1,1.6,0.1h9.9c1.4,0,2.5,1.2,2.5,2.7
		C56.1,595.9,54.9,597.1,53.5,597.1 M77.3,597.1H65.4c-1.4,0-2.5-1.2-2.5-2.7c0-1.5,1.1-2.7,2.5-2.7h11.9c1.4,0,2.5,1.2,2.5,2.7
		C79.8,595.9,78.7,597.1,77.3,597.1 M101,597.1H89.1c-1.4,0-2.5-1.2-2.5-2.7c0-1.5,1.1-2.7,2.5-2.7H101c1.4,0,2.5,1.2,2.5,2.7
		C103.5,595.9,102.4,597.1,101,597.1 M124.8,597.1h-11.9c-1.4,0-2.5-1.2-2.5-2.7c0-1.5,1.1-2.7,2.5-2.7h11.9c1.4,0,2.5,1.2,2.5,2.7
		C127.3,595.9,126.2,597.1,124.8,597.1 M148.5,597.1h-11.9c-1.4,0-2.5-1.2-2.5-2.7c0-1.5,1.1-2.7,2.5-2.7h11.9
		c1.4,0,2.5,1.2,2.5,2.7C151,595.9,149.9,597.1,148.5,597.1 M172.2,597.1h-11.9c-1.4,0-2.5-1.2-2.5-2.7c0-1.5,1.1-2.7,2.5-2.7h11.9
		c1.4,0,2.5,1.2,2.5,2.7C174.8,595.9,173.6,597.1,172.2,597.1 M196,597.1h-11.9c-1.4,0-2.5-1.2-2.5-2.7c0-1.5,1.1-2.7,2.5-2.7H196
		c1.4,0,2.5,1.2,2.5,2.7C198.5,595.9,197.4,597.1,196,597.1 M219.7,597.1h-11.9c-1.4,0-2.5-1.2-2.5-2.7c0-1.5,1.1-2.7,2.5-2.7h11.9
		c1.4,0,2.5,1.2,2.5,2.7C222.3,595.9,221.1,597.1,219.7,597.1 M243.5,597.1h-11.9c-1.4,0-2.5-1.2-2.5-2.7c0-1.5,1.1-2.7,2.5-2.7
		h11.9c1.4,0,2.5,1.2,2.5,2.7C246,595.9,244.9,597.1,243.5,597.1 M267.2,597.1h-11.9c-1.4,0-2.5-1.2-2.5-2.7c0-1.5,1.1-2.7,2.5-2.7
		h11.9c1.4,0,2.5,1.2,2.5,2.7C269.7,595.9,268.6,597.1,267.2,597.1 M290.9,597.1h-11.9c-1.4,0-2.5-1.2-2.5-2.7
		c0-1.5,1.1-2.7,2.5-2.7h11.9c1.4,0,2.5,1.2,2.5,2.7C293.5,595.9,292.3,597.1,290.9,597.1 M314.7,597.1h-11.9
		c-1.4,0-2.5-1.2-2.5-2.7c0-1.5,1.1-2.7,2.5-2.7h11.9c1.4,0,2.5,1.2,2.5,2.7C317.2,595.9,316.1,597.1,314.7,597.1 M338.4,597.1
		h-11.9c-1.4,0-2.5-1.2-2.5-2.7c0-1.5,1.1-2.7,2.5-2.7h11.9c1.4,0,2.5,1.2,2.5,2.7C341,595.9,339.8,597.1,338.4,597.1 M362.2,597.1
		h-11.9c-1.4,0-2.5-1.2-2.5-2.7c0-1.5,1.1-2.7,2.5-2.7h11.9c1.4,0,2.5,1.2,2.5,2.7C364.7,595.9,363.6,597.1,362.2,597.1
		 M385.9,597.1H374c-1.4,0-2.5-1.2-2.5-2.7c0-1.5,1.1-2.7,2.5-2.7h11.9c1.4,0,2.5,1.2,2.5,2.7C388.4,595.9,387.3,597.1,385.9,597.1
		 M409.6,597.1h-11.9c-1.4,0-2.5-1.2-2.5-2.7c0-1.5,1.1-2.7,2.5-2.7h11.9c1.4,0,2.5,1.2,2.5,2.7C412.2,595.9,411,597.1,409.6,597.1
		 M433.4,597.1h-11.9c-1.4,0-2.5-1.2-2.5-2.7c0-1.5,1.1-2.7,2.5-2.7h11.9c1.4,0,2.6,1.2,2.6,2.7
		C435.9,595.9,434.8,597.1,433.4,597.1 M445.9,591.6c-0.5,0.5-1.1,0.8-1.8,0.8c-0.7,0-1.3-0.3-1.8-0.8c-1-1-1-2.7,0-3.8
		c2.4-2.5,3.7-5.8,3.7-9.4c0-1.5,1.1-2.7,2.5-2.7h0c1.4,0,2.5,1.2,2.5,2.7C451.1,583.4,449.2,588.1,445.9,591.6 M451.1,565.9
		c0,1.5-1.1,2.7-2.5,2.7c-1.4,0-2.5-1.2-2.5-2.7v-12.5c0-1.5,1.1-2.7,2.5-2.7c1.4,0,2.5,1.2,2.5,2.7V565.9z M451.1,540.9
		c0,1.5-1.1,2.7-2.5,2.7c-1.4,0-2.5-1.2-2.5-2.7v-12.5c0-1.5,1.1-2.7,2.5-2.7c1.4,0,2.5,1.2,2.5,2.7V540.9z M451.1,516.6
		c0,1-1.1,1.9-2.5,1.9c-1.4,0-2.5-0.8-2.5-1.9v-8.9c0-1,1.1-1.9,2.5-1.9c1.4,0,2.5,0.8,2.5,1.9V516.6z"/>
	<path class="st1" d="M473,417.7h-28.9h-15.5h-53.5c-18.7,0-34,16.1-34,35.8c0,19.7,15.3,35.8,34,35.8h53.5h15.5H473
		c6.1,0,11.2-5.3,11.2-11.8v-24.1v-24.1C484.1,423,479.1,417.7,473,417.7 M368.5,464.7c-5.9,0-10.6-5-10.6-11.2
		c0-6.2,4.8-11.2,10.6-11.2c5.9,0,10.6,5,10.6,11.2C379.2,459.7,374.4,464.7,368.5,464.7"/>
	<path class="st1" d="M110.3,229.6l31.1,47h211.9l94-69.1c5-3.7,6.3-11.1,2.8-16.4L356.1,49c-3.5-5.3-10.5-6.6-15.5-2.9L113.1,213.2
		C108.1,216.9,106.8,224.3,110.3,229.6 M138.6,220.6L338.3,73.8c5-3.7,12-2.4,15.5,2.9l3.9,5.9c3.5,5.3,2.3,12.7-2.8,16.4
		L155.2,245.8c-5,3.7-12,2.4-15.5-2.9l-3.9-5.9C132.3,231.7,133.5,224.3,138.6,220.6"/>
	<path class="st1" d="M409.3,250.8H459c-5.1-9.3-13.5-16.3-23.4-19.3L409.3,250.8z"/>
</g>
<g>
	<path class="st1" d="M1231.4,184h427.7c15.7,0,28.3,12.7,28.3,28.3v269.5c0,15.7-12.7,28.3-28.3,28.3h-427.7
		c-15.7,0-28.3-12.7-28.3-28.3V212.3C1203,196.7,1215.7,184,1231.4,184z"/>
	<g>
		<path class="st2" d="M1240,489.6L1240,489.6c-4,0-7.2-3.2-7.2-7.1V225.2c0-3.9,3.2-7.1,7.2-7.1s7.2,3.2,7.2,7.1v257.3
			C1247.2,486.4,1243.9,489.6,1240,489.6"/>
		<path class="st2" d="M1261.6,464.8L1261.6,464.8c-4,0-7.2-3.2-7.2-7.1V225.2c0-3.9,3.2-7.1,7.2-7.1s7.2,3.2,7.2,7.1v232.5
			C1268.8,461.6,1265.5,464.8,1261.6,464.8"/>
		<path class="st2" d="M1286.4,464.8L1286.4,464.8c-4,0-7.2-3.2-7.2-7.1V225.2c0-3.9,3.2-7.1,7.2-7.1c4,0,7.2,3.2,7.2,7.1v232.5
			C1293.6,461.6,1290.3,464.8,1286.4,464.8"/>
		<path class="st2" d="M1304.8,464.8L1304.8,464.8c-4,0-7.2-3.2-7.2-7.1V225.2c0-3.9,3.2-7.1,7.2-7.1c4,0,7.2,3.2,7.2,7.1v232.5
			C1312,461.6,1308.7,464.8,1304.8,464.8"/>
		<path class="st2" d="M1323.2,464.8L1323.2,464.8c-4,0-7.2-3.2-7.2-7.1V225.2c0-3.9,3.2-7.1,7.2-7.1s7.2,3.2,7.2,7.1v232.5
			C1330.4,461.6,1327.2,464.8,1323.2,464.8"/>
		<path class="st2" d="M1348,464.8L1348,464.8c-4,0-7.2-3.2-7.2-7.1V225.2c0-3.9,3.2-7.1,7.2-7.1s7.2,3.2,7.2,7.1v232.5
			C1355.2,461.6,1352,464.8,1348,464.8"/>
		<path class="st2" d="M1373.8,464.8L1373.8,464.8c-4,0-7.2-3.2-7.2-7.1V225.2c0-3.9,3.2-7.1,7.2-7.1c4,0,7.2,3.2,7.2,7.1v232.5
			C1381,461.6,1377.8,464.8,1373.8,464.8"/>
		<path class="st2" d="M1391.2,464.8L1391.2,464.8c-4,0-7.2-3.2-7.2-7.1V225.2c0-3.9,3.2-7.1,7.2-7.1s7.2,3.2,7.2,7.1v232.5
			C1398.4,461.6,1395.2,464.8,1391.2,464.8"/>
		<path class="st2" d="M1412.8,464.8L1412.8,464.8c-4,0-7.2-3.2-7.2-7.1V225.2c0-3.9,3.2-7.1,7.2-7.1c4,0,7.2,3.2,7.2,7.1v232.5
			C1420,461.6,1416.8,464.8,1412.8,464.8"/>
		<path class="st2" d="M1434.4,464.8L1434.4,464.8c-4,0-7.2-3.2-7.2-7.1V225.2c0-3.9,3.2-7.1,7.2-7.1s7.2,3.2,7.2,7.1v232.5
			C1441.6,461.6,1438.4,464.8,1434.4,464.8"/>
		<path class="st2" d="M1460.3,464.8L1460.3,464.8c-4,0-7.2-3.2-7.2-7.1V225.2c0-3.9,3.2-7.1,7.2-7.1s7.2,3.2,7.2,7.1v232.5
			C1467.5,461.6,1464.2,464.8,1460.3,464.8"/>
		<path class="st2" d="M1477.6,464.8L1477.6,464.8c-4,0-7.2-3.2-7.2-7.1V225.2c0-3.9,3.2-7.1,7.2-7.1c4,0,7.2,3.2,7.2,7.1v232.5
			C1484.9,461.6,1481.6,464.8,1477.6,464.8"/>
		<path class="st2" d="M1499.3,464.8L1499.3,464.8c-4,0-7.2-3.2-7.2-7.1V225.2c0-3.9,3.2-7.1,7.2-7.1s7.2,3.2,7.2,7.1v232.5
			C1506.5,461.6,1503.2,464.8,1499.3,464.8"/>
		<path class="st2" d="M1516.6,464.8L1516.6,464.8c-4,0-7.2-3.2-7.2-7.1V225.2c0-3.9,3.2-7.1,7.2-7.1s7.2,3.2,7.2,7.1v232.5
			C1523.8,461.6,1520.6,464.8,1516.6,464.8"/>
		<path class="st2" d="M1542.5,464.8L1542.5,464.8c-4,0-7.2-3.2-7.2-7.1V225.2c0-3.9,3.2-7.1,7.2-7.1s7.2,3.2,7.2,7.1v232.5
			C1549.7,461.6,1546.4,464.8,1542.5,464.8"/>
		<path class="st2" d="M1559.8,464.8L1559.8,464.8c-4,0-7.2-3.2-7.2-7.1V225.2c0-3.9,3.2-7.1,7.2-7.1c4,0,7.2,3.2,7.2,7.1v232.5
			C1567,461.6,1563.8,464.8,1559.8,464.8"/>
		<path class="st2" d="M1585.7,464.8L1585.7,464.8c-4,0-7.2-3.2-7.2-7.1V225.2c0-3.9,3.2-7.1,7.2-7.1s7.2,3.2,7.2,7.1v232.5
			C1592.9,461.6,1589.7,464.8,1585.7,464.8"/>
		<path class="st2" d="M1603.1,464.8L1603.1,464.8c-4,0-7.2-3.2-7.2-7.1V225.2c0-3.9,3.2-7.1,7.2-7.1s7.2,3.2,7.2,7.1v232.5
			C1610.3,461.6,1607,464.8,1603.1,464.8"/>
		<path class="st2" d="M1620.4,464.8L1620.4,464.8c-4,0-7.2-3.2-7.2-7.1V225.2c0-3.9,3.2-7.1,7.2-7.1s7.2,3.2,7.2,7.1v232.5
			C1627.6,461.6,1624.4,464.8,1620.4,464.8"/>
		<path class="st2" d="M1650.5,489.6L1650.5,489.6c-4,0-7.2-3.2-7.2-7.1V225.2c0-3.9,3.2-7.1,7.2-7.1s7.2,3.2,7.2,7.1v257.3
			C1657.7,486.4,1654.5,489.6,1650.5,489.6"/>
	</g>
</g>
<g>
	<path class="st0" d="M1777.4,184h427.7c15.7,0,28.3,12.7,28.3,28.3v269.5c0,15.7-12.7,28.3-28.3,28.3h-427.7
		c-15.7,0-28.3-12.7-28.3-28.3V212.3C1749.1,196.7,1761.8,184,1777.4,184z"/>
	<g>
		<path class="st2" d="M1786,489.6L1786,489.6c-4,0-7.2-3.2-7.2-7.1V225.2c0-3.9,3.2-7.1,7.2-7.1c4,0,7.2,3.2,7.2,7.1v257.3
			C1793.2,486.4,1790,489.6,1786,489.6"/>
		<path class="st2" d="M1807.6,464.8L1807.6,464.8c-4,0-7.2-3.2-7.2-7.1V225.2c0-3.9,3.2-7.1,7.2-7.1s7.2,3.2,7.2,7.1v232.5
			C1814.8,461.6,1811.6,464.8,1807.6,464.8"/>
		<path class="st2" d="M1832.4,464.8L1832.4,464.8c-4,0-7.2-3.2-7.2-7.1V225.2c0-3.9,3.2-7.1,7.2-7.1s7.2,3.2,7.2,7.1v232.5
			C1839.6,461.6,1836.4,464.8,1832.4,464.8"/>
		<path class="st2" d="M1850.8,464.8L1850.8,464.8c-4,0-7.2-3.2-7.2-7.1V225.2c0-3.9,3.2-7.1,7.2-7.1c4,0,7.2,3.2,7.2,7.1v232.5
			C1858,461.6,1854.8,464.8,1850.8,464.8"/>
		<path class="st2" d="M1869.3,464.8L1869.3,464.8c-4,0-7.2-3.2-7.2-7.1V225.2c0-3.9,3.2-7.1,7.2-7.1c4,0,7.2,3.2,7.2,7.1v232.5
			C1876.5,461.6,1873.2,464.8,1869.3,464.8"/>
		<path class="st2" d="M1894,464.8L1894,464.8c-4,0-7.2-3.2-7.2-7.1V225.2c0-3.9,3.2-7.1,7.2-7.1c4,0,7.2,3.2,7.2,7.1v232.5
			C1901.2,461.6,1898,464.8,1894,464.8"/>
		<path class="st2" d="M1919.9,464.8L1919.9,464.8c-4,0-7.2-3.2-7.2-7.1V225.2c0-3.9,3.2-7.1,7.2-7.1s7.2,3.2,7.2,7.1v232.5
			C1927.1,461.6,1923.9,464.8,1919.9,464.8"/>
		<path class="st2" d="M1937.3,464.8L1937.3,464.8c-4,0-7.2-3.2-7.2-7.1V225.2c0-3.9,3.2-7.1,7.2-7.1c4,0,7.2,3.2,7.2,7.1v232.5
			C1944.5,461.6,1941.2,464.8,1937.3,464.8"/>
		<path class="st2" d="M1958.9,464.8L1958.9,464.8c-4,0-7.2-3.2-7.2-7.1V225.2c0-3.9,3.2-7.1,7.2-7.1s7.2,3.2,7.2,7.1v232.5
			C1966.1,461.6,1962.8,464.8,1958.9,464.8"/>
		<path class="st2" d="M1980.5,464.8L1980.5,464.8c-4,0-7.2-3.2-7.2-7.1V225.2c0-3.9,3.2-7.1,7.2-7.1s7.2,3.2,7.2,7.1v232.5
			C1987.7,461.6,1984.4,464.8,1980.5,464.8"/>
		<path class="st2" d="M2006.3,464.8L2006.3,464.8c-4,0-7.2-3.2-7.2-7.1V225.2c0-3.9,3.2-7.1,7.2-7.1c4,0,7.2,3.2,7.2,7.1v232.5
			C2013.5,461.6,2010.3,464.8,2006.3,464.8"/>
		<path class="st2" d="M2023.7,464.8L2023.7,464.8c-4,0-7.2-3.2-7.2-7.1V225.2c0-3.9,3.2-7.1,7.2-7.1s7.2,3.2,7.2,7.1v232.5
			C2030.9,461.6,2027.7,464.8,2023.7,464.8"/>
		<path class="st2" d="M2045.3,464.8L2045.3,464.8c-4,0-7.2-3.2-7.2-7.1V225.2c0-3.9,3.2-7.1,7.2-7.1c4,0,7.2,3.2,7.2,7.1v232.5
			C2052.5,461.6,2049.3,464.8,2045.3,464.8"/>
		<path class="st2" d="M2062.7,464.8L2062.7,464.8c-4,0-7.2-3.2-7.2-7.1V225.2c0-3.9,3.2-7.1,7.2-7.1s7.2,3.2,7.2,7.1v232.5
			C2069.9,461.6,2066.6,464.8,2062.7,464.8"/>
		<path class="st2" d="M2088.5,464.8L2088.5,464.8c-4,0-7.2-3.2-7.2-7.1V225.2c0-3.9,3.2-7.1,7.2-7.1s7.2,3.2,7.2,7.1v232.5
			C2095.7,461.6,2092.5,464.8,2088.5,464.8"/>
		<path class="st2" d="M2105.9,464.8L2105.9,464.8c-4,0-7.2-3.2-7.2-7.1V225.2c0-3.9,3.2-7.1,7.2-7.1s7.2,3.2,7.2,7.1v232.5
			C2113.1,461.6,2109.8,464.8,2105.9,464.8"/>
		<path class="st2" d="M2131.7,464.8L2131.7,464.8c-4,0-7.2-3.2-7.2-7.1V225.2c0-3.9,3.2-7.1,7.2-7.1s7.2,3.2,7.2,7.1v232.5
			C2138.9,461.6,2135.7,464.8,2131.7,464.8"/>
		<path class="st2" d="M2149.1,464.8L2149.1,464.8c-4,0-7.2-3.2-7.2-7.1V225.2c0-3.9,3.2-7.1,7.2-7.1s7.2,3.2,7.2,7.1v232.5
			C2156.3,461.6,2153.1,464.8,2149.1,464.8"/>
		<path class="st2" d="M2166.5,464.8L2166.5,464.8c-4,0-7.2-3.2-7.2-7.1V225.2c0-3.9,3.2-7.1,7.2-7.1s7.2,3.2,7.2,7.1v232.5
			C2173.7,461.6,2170.4,464.8,2166.5,464.8"/>
		<path class="st2" d="M2196.6,489.6L2196.6,489.6c-4,0-7.2-3.2-7.2-7.1V225.2c0-3.9,3.2-7.1,7.2-7.1s7.2,3.2,7.2,7.1v257.3
			C2203.8,486.4,2200.5,489.6,2196.6,489.6"/>
	</g>
</g>
</svg>
