<?xml version="1.0" encoding="utf-8"?>
<!-- Generator: Adobe Illustrator 19.2.1, SVG Export Plug-In . SVG Version: 6.00 Build 0)  -->
<svg version="1.1" id="Layer_1" xmlns="http://www.w3.org/2000/svg" xmlns:xlink="http://www.w3.org/1999/xlink" x="0px" y="0px"
	 viewBox="0 0 484.3 619.9" style="enable-background:new 0 0 484.3 619.9;" xml:space="preserve">
<style type="text/css">
	.st0{display:none;}
	.st1{display:inline;}
	.st2{display:inline;clip-path:url(#SVGID_2_);enable-background:new    ;}
	.st3{clip-path:url(#SVGID_4_);}
	.st4{clip-path:url(#SVGID_6_);}
	.st5{clip-path:url(#SVGID_8_);fill:#3A2E87;}
	.st6{fill:#3A2E87;}
</style>
<g class="st0">
	<g class="st1">
		<g class="st0">
			<defs>
				<rect id="SVGID_1_" x="222.4" y="282.4" width="41" height="54"/>
			</defs>
			<clipPath id="SVGID_2_" class="st1">
				<use xlink:href="#SVGID_1_"  style="overflow:visible;"/>
			</clipPath>
			<g class="st2">
				<g>
					<defs>
						<rect id="SVGID_3_" x="222.4" y="282.4" width="41" height="54"/>
					</defs>
					<clipPath id="SVGID_4_">
						<use xlink:href="#SVGID_3_"  style="overflow:visible;"/>
					</clipPath>
					<g class="st3">
						<defs>
							<rect id="SVGID_5_" x="217.5" y="271.4" width="50.9" height="76"/>
						</defs>
						<clipPath id="SVGID_6_">
							<use xlink:href="#SVGID_5_"  style="overflow:visible;"/>
						</clipPath>
						<g class="st4">
							<defs>
								<rect id="SVGID_7_" x="222.4" y="282.4" width="41" height="54"/>
							</defs>
							<clipPath id="SVGID_8_">
								<use xlink:href="#SVGID_7_"  style="overflow:visible;"/>
							</clipPath>
							<path class="st5" d="M227.3,305.1l2.1,1.6h3.9l-2.8-4.2c-0.3-0.4-0.2-1.1,0.2-1.4l17.5-12.9l-6.1-4.7c-0.4-0.3-1-0.2-1.3,0.2
								l-13.7,20C226.8,304.1,226.9,304.8,227.3,305.1"/>
							<path class="st5" d="M259.8,325.6h-6c-2.1,0-3.8-1.8-3.8-4c0-2.2,1.7-4,3.8-4h6h1.7h0.5v-5.3v-1.1c0-1.9-1.5-3.5-3.3-3.5
								h-2.3h-21.8h-5.5h-3.2h0c-0.8,0-1.5-0.7-1.5-1.6c0-0.8,0.6-1.4,1.3-1.6c0-0.2,0.1-0.4,0.2-0.6l0.8-1.2h-0.7
								c-1.8,0-3.3,1.6-3.3,3.5v4.9v15.9v4.9c0,1.9,1.5,3.5,3.3,3.5h32.8c1.8,0,3.3-1.6,3.3-3.5v-4.9v-1.5h-0.5H259.8z M260.5,316.3
								c0,0.1-0.1,0.2-0.2,0.2c-0.1,0-0.2-0.1-0.2-0.2v-1.1c0-0.1,0.1-0.2,0.2-0.2c0.1,0,0.2,0.1,0.2,0.2V316.3z M260.5,314.2
								c0,0.1-0.1,0.2-0.2,0.2c-0.1,0-0.2-0.1-0.2-0.2v-1.1c0-0.1,0.1-0.2,0.2-0.2c0.1,0,0.2,0.1,0.2,0.2V314.2z M260.5,311v1.1
								c0,0.1-0.1,0.2-0.2,0.2c-0.1,0-0.2-0.1-0.2-0.2V311c0-0.1,0.1-0.2,0.2-0.2C260.4,310.8,260.5,310.9,260.5,311 M259,309.5
								c0-0.1,0.1-0.2,0.2-0.2c0.4,0.1,0.7,0.3,1,0.6c0.1,0.1,0.1,0.2,0,0.3c0,0-0.1,0-0.1,0c-0.1,0-0.1,0-0.2-0.1
								c-0.2-0.2-0.4-0.4-0.7-0.4C259,309.7,258.9,309.6,259,309.5 M257.2,309.2h1c0.1,0,0.2,0.1,0.2,0.2c0,0.1-0.1,0.2-0.2,0.2h-1
								c-0.1,0-0.2-0.1-0.2-0.2C257,309.4,257.1,309.2,257.2,309.2 M255.2,309.2h1c0.1,0,0.2,0.1,0.2,0.2c0,0.1-0.1,0.2-0.2,0.2h-1
								c-0.1,0-0.2-0.1-0.2-0.2C255,309.4,255.1,309.2,255.2,309.2 M253.2,309.2h1c0.1,0,0.2,0.1,0.2,0.2c0,0.1-0.1,0.2-0.2,0.2h-1
								c-0.1,0-0.2-0.1-0.2-0.2C253,309.4,253,309.2,253.2,309.2 M251.2,309.2h1c0.1,0,0.2,0.1,0.2,0.2c0,0.1-0.1,0.2-0.2,0.2h-1
								c-0.1,0-0.2-0.1-0.2-0.2C251,309.4,251,309.2,251.2,309.2 M249.2,309.2h1c0.1,0,0.2,0.1,0.2,0.2c0,0.1-0.1,0.2-0.2,0.2h-1
								c-0.1,0-0.2-0.1-0.2-0.2C248.9,309.4,249,309.2,249.2,309.2 M247.2,309.2h1c0.1,0,0.2,0.1,0.2,0.2c0,0.1-0.1,0.2-0.2,0.2h-1
								c-0.1,0-0.2-0.1-0.2-0.2C246.9,309.4,247,309.2,247.2,309.2 M245.2,309.2h1c0.1,0,0.2,0.1,0.2,0.2c0,0.1-0.1,0.2-0.2,0.2h-1
								c-0.1,0-0.2-0.1-0.2-0.2C244.9,309.4,245,309.2,245.2,309.2 M243.2,309.2h1c0.1,0,0.2,0.1,0.2,0.2c0,0.1-0.1,0.2-0.2,0.2h-1
								c-0.1,0-0.2-0.1-0.2-0.2C242.9,309.4,243,309.2,243.2,309.2 M241.2,309.2h1c0.1,0,0.2,0.1,0.2,0.2c0,0.1-0.1,0.2-0.2,0.2h-1
								c-0.1,0-0.2-0.1-0.2-0.2C240.9,309.4,241,309.2,241.2,309.2 M239.1,309.2h1c0.1,0,0.2,0.1,0.2,0.2c0,0.1-0.1,0.2-0.2,0.2h-1
								c-0.1,0-0.2-0.1-0.2-0.2C238.9,309.4,239,309.2,239.1,309.2 M237.1,309.2h1c0.1,0,0.2,0.1,0.2,0.2c0,0.1-0.1,0.2-0.2,0.2h-1
								c-0.1,0-0.2-0.1-0.2-0.2C236.9,309.4,237,309.2,237.1,309.2 M235.1,309.2h1c0.1,0,0.2,0.1,0.2,0.2c0,0.1-0.1,0.2-0.2,0.2h-1
								c-0.1,0-0.2-0.1-0.2-0.2C234.9,309.4,235,309.2,235.1,309.2 M233.1,309.2h1c0.1,0,0.2,0.1,0.2,0.2c0,0.1-0.1,0.2-0.2,0.2h-1
								c-0.1,0-0.2-0.1-0.2-0.2C232.9,309.4,233,309.2,233.1,309.2 M231.1,309.2h1c0.1,0,0.2,0.1,0.2,0.2c0,0.1-0.1,0.2-0.2,0.2h-1
								c-0.1,0-0.2-0.1-0.2-0.2C230.9,309.4,231,309.2,231.1,309.2 M229.1,309.2h1c0.1,0,0.2,0.1,0.2,0.2c0,0.1-0.1,0.2-0.2,0.2h-1
								c-0.1,0-0.2-0.1-0.2-0.2C228.9,309.4,229,309.2,229.1,309.2 M227.1,309.2h1c0.1,0,0.2,0.1,0.2,0.2c0,0.1-0.1,0.2-0.2,0.2h-1
								c-0.1,0-0.2-0.1-0.2-0.2C226.9,309.4,227,309.2,227.1,309.2 M224.6,310.8c0-0.1,0.1-0.2,0.2-0.2c0.1,0,0.2,0.1,0.2,0.2l0,1.1
								c0,0.1-0.1,0.2-0.2,0.2c-0.1,0-0.2-0.1-0.2-0.2L224.6,310.8z M224.6,312.9c0-0.1,0.1-0.2,0.2-0.2c0.1,0,0.2,0.1,0.2,0.2v1.1
								c0,0.1-0.1,0.2-0.2,0.2c-0.1,0-0.2-0.1-0.2-0.2V312.9z M224.6,315c0-0.1,0.1-0.2,0.2-0.2c0.1,0,0.2,0.1,0.2,0.2v1.1
								c0,0.1-0.1,0.2-0.2,0.2c-0.1,0-0.2-0.1-0.2-0.2V315z M224.6,317.2c0-0.1,0.1-0.2,0.2-0.2c0.1,0,0.2,0.1,0.2,0.2v1.1
								c0,0.1-0.1,0.2-0.2,0.2c-0.1,0-0.2-0.1-0.2-0.2V317.2z M224.6,319.3c0-0.1,0.1-0.2,0.2-0.2c0.1,0,0.2,0.1,0.2,0.2v1.1
								c0,0.1-0.1,0.2-0.2,0.2c-0.1,0-0.2-0.1-0.2-0.2V319.3z M224.6,321.4c0-0.1,0.1-0.2,0.2-0.2c0.1,0,0.2,0.1,0.2,0.2v1.1
								c0,0.1-0.1,0.2-0.2,0.2c-0.1,0-0.2-0.1-0.2-0.2V321.4z M224.6,323.5c0-0.1,0.1-0.2,0.2-0.2c0.1,0,0.2,0.1,0.2,0.2v1.1
								c0,0.1-0.1,0.2-0.2,0.2c-0.1,0-0.2-0.1-0.2-0.2V323.5z M224.6,325.6c0-0.1,0.1-0.2,0.2-0.2c0.1,0,0.2,0.1,0.2,0.2v1.1
								c0,0.1-0.1,0.2-0.2,0.2c-0.1,0-0.2-0.1-0.2-0.2V325.6z M224.6,327.7c0-0.1,0.1-0.2,0.2-0.2c0.1,0,0.2,0.1,0.2,0.2v1.1
								c0,0.1-0.1,0.2-0.2,0.2c-0.1,0-0.2-0.1-0.2-0.2V327.7z M224.6,329.8c0-0.1,0.1-0.2,0.2-0.2c0.1,0,0.2,0.1,0.2,0.2v1.1
								c0,0.1-0.1,0.2-0.2,0.2c-0.1,0-0.2-0.1-0.2-0.2V329.8z M225.3,333.1c0,0-0.1,0-0.1,0c-0.1,0-0.1,0-0.2-0.1
								c-0.2-0.3-0.3-0.6-0.3-1v-0.2c0-0.1,0.1-0.2,0.2-0.2c0.1,0,0.2,0.1,0.2,0.2v0.2c0,0.3,0.1,0.5,0.2,0.7
								C225.4,332.9,225.3,333,225.3,333.1 M225.2,310.1c-0.1,0-0.1,0-0.2-0.1c-0.1-0.1-0.1-0.2,0-0.3c0.3-0.3,0.7-0.5,1.1-0.5h0
								c0.1,0,0.2,0.1,0.2,0.2c0,0.1-0.1,0.2-0.2,0.2c-0.3,0-0.5,0.1-0.8,0.3C225.3,310.1,225.3,310.1,225.2,310.1 M227,333.7h-0.8
								c-0.1,0-0.1,0-0.2,0c-0.1,0-0.2-0.1-0.2-0.3c0-0.1,0.1-0.2,0.2-0.2c0,0,0.1,0,0.1,0h0.8c0.1,0,0.2,0.1,0.2,0.2
								C227.2,333.6,227.1,333.7,227,333.7 M229,333.7h-1c-0.1,0-0.2-0.1-0.2-0.2c0-0.1,0.1-0.2,0.2-0.2h1c0.1,0,0.2,0.1,0.2,0.2
								C229.2,333.6,229.1,333.7,229,333.7 M231,333.7h-1c-0.1,0-0.2-0.1-0.2-0.2c0-0.1,0.1-0.2,0.2-0.2h1c0.1,0,0.2,0.1,0.2,0.2
								C231.2,333.6,231.1,333.7,231,333.7 M233,333.7h-1c-0.1,0-0.2-0.1-0.2-0.2c0-0.1,0.1-0.2,0.2-0.2h1c0.1,0,0.2,0.1,0.2,0.2
								C233.2,333.6,233.1,333.7,233,333.7 M235,333.7h-1c-0.1,0-0.2-0.1-0.2-0.2c0-0.1,0.1-0.2,0.2-0.2h1c0.1,0,0.2,0.1,0.2,0.2
								C235.2,333.6,235.1,333.7,235,333.7 M237,333.7h-1c-0.1,0-0.2-0.1-0.2-0.2c0-0.1,0.1-0.2,0.2-0.2h1c0.1,0,0.2,0.1,0.2,0.2
								C237.2,333.6,237.1,333.7,237,333.7 M239,333.7h-1c-0.1,0-0.2-0.1-0.2-0.2c0-0.1,0.1-0.2,0.2-0.2h1c0.1,0,0.2,0.1,0.2,0.2
								C239.2,333.6,239.1,333.7,239,333.7 M241,333.7h-1c-0.1,0-0.2-0.1-0.2-0.2c0-0.1,0.1-0.2,0.2-0.2h1c0.1,0,0.2,0.1,0.2,0.2
								C241.2,333.6,241.1,333.7,241,333.7 M243,333.7h-1c-0.1,0-0.2-0.1-0.2-0.2c0-0.1,0.1-0.2,0.2-0.2h1c0.1,0,0.2,0.1,0.2,0.2
								C243.2,333.6,243.1,333.7,243,333.7 M245,333.7h-1c-0.1,0-0.2-0.1-0.2-0.2c0-0.1,0.1-0.2,0.2-0.2h1c0.1,0,0.2,0.1,0.2,0.2
								C245.2,333.6,245.1,333.7,245,333.7 M247,333.7h-1c-0.1,0-0.2-0.1-0.2-0.2c0-0.1,0.1-0.2,0.2-0.2h1c0.1,0,0.2,0.1,0.2,0.2
								C247.2,333.6,247.1,333.7,247,333.7 M249,333.7h-1c-0.1,0-0.2-0.1-0.2-0.2c0-0.1,0.1-0.2,0.2-0.2h1c0.1,0,0.2,0.1,0.2,0.2
								C249.2,333.6,249.1,333.7,249,333.7 M251,333.7h-1c-0.1,0-0.2-0.1-0.2-0.2c0-0.1,0.1-0.2,0.2-0.2h1c0.1,0,0.2,0.1,0.2,0.2
								C251.2,333.6,251.1,333.7,251,333.7 M253,333.7h-1c-0.1,0-0.2-0.1-0.2-0.2c0-0.1,0.1-0.2,0.2-0.2h1c0.1,0,0.2,0.1,0.2,0.2
								C253.2,333.6,253.1,333.7,253,333.7 M255,333.7h-1c-0.1,0-0.2-0.1-0.2-0.2c0-0.1,0.1-0.2,0.2-0.2h1c0.1,0,0.2,0.1,0.2,0.2
								C255.2,333.6,255.1,333.7,255,333.7 M257,333.7h-1c-0.1,0-0.2-0.1-0.2-0.2c0-0.1,0.1-0.2,0.2-0.2h1c0.1,0,0.2,0.1,0.2,0.2
								C257.2,333.6,257.1,333.7,257,333.7 M259,333.7h-1c-0.1,0-0.2-0.1-0.2-0.2c0-0.1,0.1-0.2,0.2-0.2h1c0.1,0,0.2,0.1,0.2,0.2
								C259.2,333.6,259.1,333.7,259,333.7 M260.1,333.2c0,0-0.1,0.1-0.2,0.1c-0.1,0-0.1,0-0.2-0.1c-0.1-0.1-0.1-0.2,0-0.3
								c0.2-0.2,0.3-0.5,0.3-0.8c0-0.1,0.1-0.2,0.2-0.2h0c0.1,0,0.2,0.1,0.2,0.2C260.5,332.5,260.4,332.9,260.1,333.2 M260.5,331.1
								c0,0.1-0.1,0.2-0.2,0.2c-0.1,0-0.2-0.1-0.2-0.2V330c0-0.1,0.1-0.2,0.2-0.2c0.1,0,0.2,0.1,0.2,0.2V331.1z M260.5,328.9
								c0,0.1-0.1,0.2-0.2,0.2c-0.1,0-0.2-0.1-0.2-0.2v-1.1c0-0.1,0.1-0.2,0.2-0.2c0.1,0,0.2,0.1,0.2,0.2V328.9z M260.5,326.9
								c0,0.1-0.1,0.2-0.2,0.2c-0.1,0-0.2-0.1-0.2-0.2v-0.7c0-0.1,0.1-0.2,0.2-0.2c0.1,0,0.2,0.1,0.2,0.2V326.9z"/>
							<path class="st5" d="M262.4,318.5h-2.4h-1.3h-4.5c-1.6,0-2.9,1.4-2.9,3c0,1.7,1.3,3,2.9,3h4.5h1.3h2.4c0.5,0,0.9-0.4,0.9-1
								v-2v-2C263.3,319,262.9,318.5,262.4,318.5 M253.5,322.5c-0.5,0-0.9-0.4-0.9-0.9c0-0.5,0.4-0.9,0.9-0.9c0.5,0,0.9,0.4,0.9,0.9
								C254.4,322.1,254,322.5,253.5,322.5"/>
							<path class="st5" d="M231.8,302.7l2.6,4h17.9l7.9-5.8c0.4-0.3,0.5-0.9,0.2-1.4l-7.9-12c-0.3-0.4-0.9-0.6-1.3-0.2L232,301.3
								C231.6,301.6,231.5,302.2,231.8,302.7 M234.1,301.9l16.9-12.4c0.4-0.3,1-0.2,1.3,0.2l0.3,0.5c0.3,0.4,0.2,1.1-0.2,1.4
								L235.5,304c-0.4,0.3-1,0.2-1.3-0.2l-0.3-0.5C233.6,302.9,233.7,302.2,234.1,301.9"/>
							<path class="st5" d="M257,304.5h4.2c-0.4-0.8-1.1-1.4-2-1.6L257,304.5z"/>
						</g>
					</g>
				</g>
			</g>
		</g>
	</g>
</g>
<path class="st6" d="M57.5,258.1l24.3,18.6h46.8l-32.9-49.8c-3.5-5.3-2.3-12.7,2.8-16.4L306.1,57.9L233.3,2.2
	c-5-3.8-12-2.6-15.6,2.6L55,241.6C51.4,246.9,52.5,254.3,57.5,258.1"/>
<path class="st6" d="M443.1,501.5h-71.6c-25,0-45.5-21.6-45.5-48c0-26.4,20.5-48,45.5-48h71.6h20.7h5.5v-62.3V330
	c0-22.9-17.8-41.7-39.6-41.7h-27.1H144.3H79.1H41.3h-0.5c-9.8,0-17.8-8.4-17.8-18.7c0-9.4,6.6-17.2,15.2-18.5c0-2.4,0.7-4.8,2.1-6.9
	l9.8-14.2h-8.8c-21.8,0-39.6,18.8-39.6,41.7V330v188.8v58.4c0,22.9,17.8,41.7,39.6,41.7h388.5c21.8,0,39.6-18.8,39.6-41.7v-58.4
	v-17.2h-5.5H443.1z M451.1,390.7c0,1.5-1.1,2.7-2.5,2.7c-1.4,0-2.5-1.2-2.5-2.7v-12.5c0-1.5,1.1-2.7,2.5-2.7c1.4,0,2.5,1.2,2.5,2.7
	V390.7z M451.1,365.6c0,1.5-1.1,2.7-2.5,2.7c-1.4,0-2.5-1.2-2.5-2.7v-12.5c0-1.5,1.1-2.7,2.5-2.7c1.4,0,2.5,1.2,2.5,2.7V365.6z
	 M451.1,328v12.5c0,1.5-1.1,2.7-2.5,2.7c-1.4,0-2.5-1.2-2.5-2.7V328c0-1.5,1.1-2.7,2.5-2.7C450,325.4,451.1,326.6,451.1,328
	 M432.8,309.9c0.2-1.5,1.4-2.5,2.8-2.3c4.6,0.6,8.8,3.1,11.7,7c0.9,1.2,0.7,2.8-0.4,3.8c-0.5,0.4-1,0.6-1.6,0.6c-0.8,0-1.5-0.4-2-1
	c-2.1-2.8-5.1-4.6-8.4-5C433.6,312.7,432.6,311.4,432.8,309.9 M411.6,307.5h11.9c1.4,0,2.5,1.2,2.5,2.7c0,1.5-1.1,2.7-2.5,2.7h-11.9
	c-1.4,0-2.5-1.2-2.5-2.7C409,308.7,410.2,307.5,411.6,307.5 M387.8,307.5h11.9c1.4,0,2.5,1.2,2.5,2.7c0,1.5-1.1,2.7-2.5,2.7h-11.9
	c-1.4,0-2.5-1.2-2.5-2.7C385.3,308.7,386.4,307.5,387.8,307.5 M364.1,307.5h11.9c1.4,0,2.5,1.2,2.5,2.7c0,1.5-1.1,2.7-2.5,2.7h-11.9
	c-1.4,0-2.5-1.2-2.5-2.7C361.5,308.7,362.7,307.5,364.1,307.5 M340.3,307.5h11.9c1.4,0,2.5,1.2,2.5,2.7c0,1.5-1.1,2.7-2.5,2.7h-11.9
	c-1.4,0-2.5-1.2-2.5-2.7C337.8,308.7,338.9,307.5,340.3,307.5 M316.6,307.5h11.9c1.4,0,2.5,1.2,2.5,2.7c0,1.5-1.1,2.7-2.5,2.7h-11.9
	c-1.4,0-2.5-1.2-2.5-2.7C314.1,308.7,315.2,307.5,316.6,307.5 M292.9,307.5h11.9c1.4,0,2.5,1.2,2.5,2.7c0,1.5-1.1,2.7-2.5,2.7h-11.9
	c-1.4,0-2.5-1.2-2.5-2.7C290.3,308.7,291.5,307.5,292.9,307.5 M269.1,307.5H281c1.4,0,2.5,1.2,2.5,2.7c0,1.5-1.1,2.7-2.5,2.7h-11.9
	c-1.4,0-2.5-1.2-2.5-2.7C266.6,308.7,267.7,307.5,269.1,307.5 M245.4,307.5h11.9c1.4,0,2.5,1.2,2.5,2.7c0,1.5-1.1,2.7-2.5,2.7h-11.9
	c-1.4,0-2.5-1.2-2.5-2.7C242.8,308.7,244,307.5,245.4,307.5 M221.6,307.5h11.9c1.4,0,2.5,1.2,2.5,2.7c0,1.5-1.1,2.7-2.5,2.7h-11.9
	c-1.4,0-2.5-1.2-2.5-2.7C219.1,308.7,220.2,307.5,221.6,307.5 M197.9,307.5h11.9c1.4,0,2.5,1.2,2.5,2.7c0,1.5-1.1,2.7-2.5,2.7h-11.9
	c-1.4,0-2.5-1.2-2.5-2.7C195.4,308.7,196.5,307.5,197.9,307.5 M174.1,307.5H186c1.4,0,2.5,1.2,2.5,2.7c0,1.5-1.1,2.7-2.5,2.7h-11.9
	c-1.4,0-2.5-1.2-2.5-2.7C171.6,308.7,172.7,307.5,174.1,307.5 M150.4,307.5h11.9c1.4,0,2.5,1.2,2.5,2.7c0,1.5-1.1,2.7-2.5,2.7h-11.9
	c-1.4,0-2.5-1.2-2.5-2.7C147.9,308.7,149,307.5,150.4,307.5 M126.7,307.5h11.9c1.4,0,2.5,1.2,2.5,2.7c0,1.5-1.1,2.7-2.5,2.7h-11.9
	c-1.4,0-2.5-1.2-2.5-2.7C124.1,308.7,125.3,307.5,126.7,307.5 M102.9,307.5h11.9c1.4,0,2.5,1.2,2.5,2.7c0,1.5-1.1,2.7-2.5,2.7h-11.9
	c-1.4,0-2.5-1.2-2.5-2.7C100.4,308.7,101.5,307.5,102.9,307.5 M79.2,307.5h11.9c1.4,0,2.5,1.2,2.5,2.7c0,1.5-1.1,2.7-2.5,2.7H79.2
	c-1.4,0-2.5-1.2-2.5-2.7C76.6,308.7,77.8,307.5,79.2,307.5 M55.4,307.5h11.9c1.4,0,2.5,1.2,2.5,2.7c0,1.5-1.1,2.7-2.5,2.7H55.4
	c-1.4,0-2.5-1.2-2.5-2.7C52.9,308.7,54,307.5,55.4,307.5 M25.9,326c0-1.5,1.2-2.7,2.6-2.6c1.4,0,2.5,1.2,2.5,2.7l0,12.5
	c0,1.5-1.1,2.7-2.5,2.7c-1.4,0-2.5-1.2-2.5-2.7L25.9,326z M25.9,351.1c0-1.5,1.1-2.7,2.5-2.7c1.4,0,2.5,1.2,2.5,2.7v12.5
	c0,1.5-1.1,2.7-2.5,2.7c-1.4,0-2.5-1.2-2.5-2.7V351.1z M25.9,376.1c0-1.5,1.1-2.7,2.5-2.7c1.4,0,2.5,1.2,2.5,2.7v12.5
	c0,1.5-1.1,2.7-2.5,2.7c-1.4,0-2.5-1.2-2.5-2.7V376.1z M25.9,401.2c0-1.5,1.1-2.7,2.5-2.7c1.4,0,2.5,1.2,2.5,2.7v12.5
	c0,1.5-1.1,2.7-2.5,2.7c-1.4,0-2.5-1.2-2.5-2.7V401.2z M25.9,426.2c0-1.5,1.1-2.7,2.5-2.7c1.4,0,2.5,1.2,2.5,2.7v12.5
	c0,1.5-1.1,2.7-2.5,2.7c-1.4,0-2.5-1.2-2.5-2.7V426.2z M25.9,451.3c0-1.5,1.1-2.7,2.5-2.7c1.4,0,2.5,1.2,2.5,2.7v12.5
	c0,1.5-1.1,2.7-2.5,2.7c-1.4,0-2.5-1.2-2.5-2.7V451.3z M25.9,476.3c0-1.5,1.1-2.7,2.5-2.7c1.4,0,2.5,1.2,2.5,2.7v12.5
	c0,1.5-1.1,2.7-2.5,2.7c-1.4,0-2.5-1.2-2.5-2.7V476.3z M25.9,501.4c0-1.5,1.1-2.7,2.5-2.7c1.4,0,2.5,1.2,2.5,2.7v12.5
	c0,1.5-1.1,2.7-2.5,2.7c-1.4,0-2.5-1.2-2.5-2.7V501.4z M25.9,526.4c0-1.5,1.1-2.7,2.5-2.7c1.4,0,2.5,1.2,2.5,2.7v12.5
	c0,1.5-1.1,2.7-2.5,2.7c-1.4,0-2.5-1.2-2.5-2.7V526.4z M25.9,551.4c0-1.5,1.1-2.7,2.5-2.7c1.4,0,2.5,1.2,2.5,2.7V564
	c0,1.5-1.1,2.7-2.5,2.7c-1.4,0-2.5-1.2-2.5-2.7V551.4z M33.2,590.3c-0.5,0.4-1,0.6-1.6,0.6c-0.8,0-1.5-0.4-2-1
	c-2.5-3.3-3.8-7.3-3.8-11.5v-1.9c0-1.5,1.1-2.7,2.5-2.7c1.4,0,2.5,1.2,2.5,2.7v1.9c0,3,0.9,5.8,2.7,8.2
	C34.5,587.7,34.3,589.4,33.2,590.3 M32.9,317.5c-0.7,0-1.3-0.3-1.8-0.8c-1-1-1-2.7,0-3.8c3.3-3.5,7.8-5.4,12.5-5.5h0
	c1.4,0,2.5,1.2,2.5,2.7c0,1.5-1.1,2.7-2.5,2.7c-3.3,0-6.5,1.4-8.9,3.9C34.2,317.2,33.5,317.5,32.9,317.5 M53.5,597.1h-9.9
	c-0.8,0-1.5-0.1-2.3-0.2c-1.4-0.2-2.4-1.5-2.2-3c0.2-1.5,1.4-2.5,2.8-2.3c0.5,0.1,1.1,0.1,1.6,0.1h9.9c1.4,0,2.5,1.2,2.5,2.7
	C56.1,595.9,54.9,597.1,53.5,597.1 M77.3,597.1H65.4c-1.4,0-2.5-1.2-2.5-2.7c0-1.5,1.1-2.7,2.5-2.7h11.9c1.4,0,2.5,1.2,2.5,2.7
	C79.8,595.9,78.7,597.1,77.3,597.1 M101,597.1H89.1c-1.4,0-2.5-1.2-2.5-2.7c0-1.5,1.1-2.7,2.5-2.7H101c1.4,0,2.5,1.2,2.5,2.7
	C103.5,595.9,102.4,597.1,101,597.1 M124.8,597.1h-11.9c-1.4,0-2.5-1.2-2.5-2.7c0-1.5,1.1-2.7,2.5-2.7h11.9c1.4,0,2.5,1.2,2.5,2.7
	C127.3,595.9,126.2,597.1,124.8,597.1 M148.5,597.1h-11.9c-1.4,0-2.5-1.2-2.5-2.7c0-1.5,1.1-2.7,2.5-2.7h11.9c1.4,0,2.5,1.2,2.5,2.7
	C151,595.9,149.9,597.1,148.5,597.1 M172.2,597.1h-11.9c-1.4,0-2.5-1.2-2.5-2.7c0-1.5,1.1-2.7,2.5-2.7h11.9c1.4,0,2.5,1.2,2.5,2.7
	C174.8,595.9,173.6,597.1,172.2,597.1 M196,597.1h-11.9c-1.4,0-2.5-1.2-2.5-2.7c0-1.5,1.1-2.7,2.5-2.7H196c1.4,0,2.5,1.2,2.5,2.7
	C198.5,595.9,197.4,597.1,196,597.1 M219.7,597.1h-11.9c-1.4,0-2.5-1.2-2.5-2.7c0-1.5,1.1-2.7,2.5-2.7h11.9c1.4,0,2.5,1.2,2.5,2.7
	C222.3,595.9,221.1,597.1,219.7,597.1 M243.5,597.1h-11.9c-1.4,0-2.5-1.2-2.5-2.7c0-1.5,1.1-2.7,2.5-2.7h11.9c1.4,0,2.5,1.2,2.5,2.7
	C246,595.9,244.9,597.1,243.5,597.1 M267.2,597.1h-11.9c-1.4,0-2.5-1.2-2.5-2.7c0-1.5,1.1-2.7,2.5-2.7h11.9c1.4,0,2.5,1.2,2.5,2.7
	C269.7,595.9,268.6,597.1,267.2,597.1 M290.9,597.1h-11.9c-1.4,0-2.5-1.2-2.5-2.7c0-1.5,1.1-2.7,2.5-2.7h11.9c1.4,0,2.5,1.2,2.5,2.7
	C293.5,595.9,292.3,597.1,290.9,597.1 M314.7,597.1h-11.9c-1.4,0-2.5-1.2-2.5-2.7c0-1.5,1.1-2.7,2.5-2.7h11.9c1.4,0,2.5,1.2,2.5,2.7
	C317.2,595.9,316.1,597.1,314.7,597.1 M338.4,597.1h-11.9c-1.4,0-2.5-1.2-2.5-2.7c0-1.5,1.1-2.7,2.5-2.7h11.9c1.4,0,2.5,1.2,2.5,2.7
	C341,595.9,339.8,597.1,338.4,597.1 M362.2,597.1h-11.9c-1.4,0-2.5-1.2-2.5-2.7c0-1.5,1.1-2.7,2.5-2.7h11.9c1.4,0,2.5,1.2,2.5,2.7
	C364.7,595.9,363.6,597.1,362.2,597.1 M385.9,597.1H374c-1.4,0-2.5-1.2-2.5-2.7c0-1.5,1.1-2.7,2.5-2.7h11.9c1.4,0,2.5,1.2,2.5,2.7
	C388.4,595.9,387.3,597.1,385.9,597.1 M409.6,597.1h-11.9c-1.4,0-2.5-1.2-2.5-2.7c0-1.5,1.1-2.7,2.5-2.7h11.9c1.4,0,2.5,1.2,2.5,2.7
	C412.2,595.9,411,597.1,409.6,597.1 M433.4,597.1h-11.9c-1.4,0-2.5-1.2-2.5-2.7c0-1.5,1.1-2.7,2.5-2.7h11.9c1.4,0,2.6,1.2,2.6,2.7
	C435.9,595.9,434.8,597.1,433.4,597.1 M445.9,591.6c-0.5,0.5-1.1,0.8-1.8,0.8c-0.7,0-1.3-0.3-1.8-0.8c-1-1-1-2.7,0-3.8
	c2.4-2.5,3.7-5.8,3.7-9.4c0-1.5,1.1-2.7,2.5-2.7h0c1.4,0,2.5,1.2,2.5,2.7C451.1,583.4,449.2,588.1,445.9,591.6 M451.1,565.9
	c0,1.5-1.1,2.7-2.5,2.7c-1.4,0-2.5-1.2-2.5-2.7v-12.5c0-1.5,1.1-2.7,2.5-2.7c1.4,0,2.5,1.2,2.5,2.7V565.9z M451.1,540.9
	c0,1.5-1.1,2.7-2.5,2.7c-1.4,0-2.5-1.2-2.5-2.7v-12.5c0-1.5,1.1-2.7,2.5-2.7c1.4,0,2.5,1.2,2.5,2.7V540.9z M451.1,516.6
	c0,1-1.1,1.9-2.5,1.9c-1.4,0-2.5-0.8-2.5-1.9v-8.9c0-1,1.1-1.9,2.5-1.9c1.4,0,2.5,0.8,2.5,1.9V516.6z"/>
<path class="st6" d="M473,417.7h-28.9h-15.5h-53.5c-18.7,0-34,16.1-34,35.8c0,19.7,15.3,35.8,34,35.8h53.5h15.5H473
	c6.1,0,11.2-5.3,11.2-11.8v-24.1v-24.1C484.1,423,479.1,417.7,473,417.7 M368.5,464.7c-5.9,0-10.6-5-10.6-11.2
	c0-6.2,4.8-11.2,10.6-11.2c5.9,0,10.6,5,10.6,11.2C379.2,459.7,374.4,464.7,368.5,464.7"/>
<path class="st6" d="M110.3,229.6l31.1,47h211.9l94-69.1c5-3.7,6.3-11.1,2.8-16.4L356.1,49c-3.5-5.3-10.5-6.6-15.5-2.9L113.1,213.2
	C108.1,216.9,106.8,224.3,110.3,229.6 M138.6,220.6L338.3,73.8c5-3.7,12-2.4,15.5,2.9l3.9,5.9c3.5,5.3,2.3,12.7-2.8,16.4
	L155.2,245.8c-5,3.7-12,2.4-15.5-2.9l-3.9-5.9C132.3,231.7,133.5,224.3,138.6,220.6"/>
<path class="st6" d="M409.3,250.8H459c-5.1-9.3-13.5-16.3-23.4-19.3L409.3,250.8z"/>
</svg>
