<?xml version="1.0" encoding="utf-8"?>
<!-- Generator: Adobe Illustrator 19.2.1, SVG Export Plug-In . SVG Version: 6.00 Build 0)  -->
<svg version="1.1" id="Layer_1" xmlns="http://www.w3.org/2000/svg" xmlns:xlink="http://www.w3.org/1999/xlink" x="0px" y="0px"
	 viewBox="0 0 425 223.1" style="enable-background:new 0 0 425 223.1;" xml:space="preserve">
<style type="text/css">
	.st0{fill:#FFFFFF;}
	.st1{fill:#FFFFFF;stroke:#FFFFFF;stroke-linecap:round;stroke-miterlimit:10;}
</style>
<path class="st0" d="M168.4,5.2c51.9,0,95.5,35.3,108.2,83.2C267.5,38.1,223.5,0,170.6,0C135.3,0,104,17,84.3,43.2
	C104.8,19.9,134.9,5.2,168.4,5.2z"/>
<g>
	<path class="st0" d="M74.6,175.5c25.3,0,49.4,5.5,71.1,15.3c2.7,1.2,5.5,2.6,8.1,3.9c0.1-2.3,0.7-4.5,1.7-6.4
		c2.5-4.5,7.3-7.6,12.8-7.6c5.6,0,10.5,3.2,13,7.9c1,2,1.6,4.3,1.6,6.7c0,0.2,0,0.5,0,0.7c2.8-1.1,5.6-2.1,8.5-3.1
		c17.6-5.9,36.5-9.1,56.1-9.1c42.1,0,80.7,14.7,111,39.3c-32.2-27.3-73.9-43.8-119.4-43.8c-17.1,0-33.7,2.3-49.5,6.7
		c-3.6-8.2-11.7-13.9-21.2-13.9c-8.9,0-16.7,5.1-20.5,12.5c-23.4-10.6-49.4-16.4-76.8-16.4c-18.2,0-35.9,2.6-52.5,7.5
		c3.4-6.7,7.2-13.1,11.4-19.2c16.1-3.7,33-5.3,50.4-4.3c20.4,1.1,39.8,5.6,57.7,12.8c-21.6-10.4-45.7-16.9-71.2-18.3
		c-10.3-0.6-20.5-0.3-30.5,0.8c-3.7,0.4-7.4,0.9-11,1.5c-2.7,3.5-5.3,7.1-7.8,10.8c-4.3,6.4-8.2,13.1-11.8,20.2
		c-2,4.1-3.9,8.2-5.7,12.5c4.3-2.1,8.8-4,13.3-5.7C32.4,179.5,53,175.5,74.6,175.5z"/>
</g>
<path class="st0" d="M158.3,161.8c-5-41.2-34.7-76.6-76.6-87.2C119.8,90.4,147.8,123.1,158.3,161.8z"/>
<path class="st0" d="M57.9,116.9c4.2-5.2,9-9.8,14.3-13.9c-8,3.7-15.8,7.8-23.3,12.4c-4.5,2.8-8.8,5.7-13.1,8.8
	c5.5,0,10.9,0.2,16.3,0.7c36.1,3,69.3,16.3,96.7,36.9C123.8,139.2,92.5,123.3,57.9,116.9z"/>
<g>
	<path class="st0" d="M258.6,141.5c0.3,2.8,0.9,7.2,4.2,8.3c2.3,0.7,4.3,0.7,5.1,0.7c0.4,0,0.6,0.1,0.6,0.4c0,0.5-0.7,0.7-1.6,0.7
		c-1.7,0-10.2-0.2-13.1-0.5c-1.8-0.2-2.2-0.4-2.2-0.8c0-0.3,0.2-0.5,0.5-0.5s0.5-1.4,0.3-2.8l-3.8-40.4h-0.2l-19.2,40.8
		c-1.6,3.4-1.9,4.2-2.6,4.2c-0.5,0-0.9-0.8-2.4-3.6c-2-3.8-8.8-17.4-9.2-18.2c-0.7-1.4-9.5-20.2-10.3-22.3h-0.3l-3.1,36.4
		c-0.1,1.3-0.1,2.7-0.1,4c0,1.2,0.9,2.2,2,2.4c1.3,0.3,2.5,0.4,3,0.4c0.3,0,0.6,0.2,0.6,0.4c0,0.5-0.5,0.7-1.4,0.7
		c-2.9,0-6.7-0.2-7.3-0.2c-0.7,0-4.5,0.2-6.6,0.2c-0.8,0-1.3-0.2-1.3-0.7c0-0.2,0.4-0.4,0.8-0.4c0.6,0,1.2,0,2.4-0.2
		c2.6-0.5,2.8-3.5,3.1-6.5l5.6-51.1c0.1-0.9,0.4-1.4,0.9-1.4c0.5,0,0.8,0.3,1.2,1.2l24,49.3l23-49.2c0.3-0.7,0.6-1.3,1.2-1.3
		s0.8,0.6,0.9,2.1L258.6,141.5z"/>
	<path class="st0" d="M289.2,102.5c0.9-2.2,1.2-2.6,1.6-2.6c0.7,0,0.9,0.9,1.6,2.4c1.3,2.8,12.3,30.3,16.5,40.4
		c2.5,6,4.4,6.8,5.9,7.3c1,0.3,2,0.4,2.7,0.4c0.4,0,0.9,0.2,0.9,0.5s-0.8,0.5-1.6,0.5c-1,0-6.1,0-10.9-0.2c-1.3-0.1-2.4-0.1-2.4-0.5
		c0-0.3,0.2-0.3,0.5-0.5c0.4-0.2,1.1-0.7,0.6-1.8l-6.2-15.3c-0.2-0.3-0.2-0.4-0.6-0.4h-15.9c-0.3,0-0.5,0.2-0.7,0.5l-3.9,10.7
		c-0.6,1.6-1,3.3-1,4.5c0,1.3,1.2,1.8,2.4,1.8h0.6c0.5,0,0.7,0.2,0.7,0.5c0,0.4-0.4,0.5-1,0.5c-1.6,0-5.4-0.2-6.2-0.2
		c-0.7,0-4.2,0.2-7,0.2c-0.9,0-1.3-0.2-1.3-0.5c0-0.3,0.3-0.5,0.6-0.5c0.5,0,1.5-0.1,2-0.2c3.1-0.4,4.5-2.7,5.8-6.1L289.2,102.5z
		 M296.8,130.3c0.3,0,0.3-0.2,0.2-0.5l-6.8-18.3c-0.4-1-0.8-1-1.2,0l-6.4,18.3c-0.1,0.3,0,0.5,0.2,0.5H296.8z"/>
	<path class="st0" d="M326.6,142.5c0.2,5.5,0.8,7.1,2.7,7.6c1.3,0.3,2.8,0.4,3.4,0.4c0.3,0,0.5,0.2,0.5,0.5c0,0.4-0.5,0.5-1.3,0.5
		c-3.9,0-6.7-0.2-7.3-0.2s-3.5,0.2-6.7,0.2c-0.7,0-1.1-0.1-1.1-0.5c0-0.3,0.2-0.5,0.5-0.5c0.5,0,1.8-0.1,2.8-0.4
		c1.7-0.5,2-2.3,2-8.3v-38.2c0-2.7,0.4-3.4,0.9-3.4c0.8,0,2,1.3,2.7,2c1.1,1.1,11.1,11.8,21.8,22.7c6.8,7.1,14.2,15,16.3,17.2
		l-0.7-33.4c-0.1-4.3-0.5-5.8-2.6-6.2c-1.3-0.2-2.8-0.3-3.4-0.3c-0.5,0-0.5-0.4-0.5-0.6c0-0.4,0.5-0.5,1.3-0.5
		c3.1,0,6.4,0.2,7.2,0.2c0.8,0,3.1-0.2,5.9-0.2c0.7,0,1.3,0.1,1.3,0.5c0,0.2-0.3,0.6-0.8,0.6c-0.3,0-0.9,0-1.6,0.2
		c-2.3,0.5-2.4,1.8-2.4,5.8l-0.2,39c0,4.4-0.1,4.8-0.5,4.8c-0.7,0-1.4-0.5-5.3-4.1c-0.7-0.6-10.7-10.4-17.9-18
		c-8-8.4-15.8-16.5-17.9-18.9L326.6,142.5z"/>
	<path class="st0" d="M395.7,102.5c0.9-2.2,1.2-2.6,1.6-2.6c0.7,0,0.9,0.9,1.6,2.4c1.3,2.8,12.3,30.3,16.5,40.4
		c2.5,6,4.4,6.8,5.9,7.3c1,0.3,2,0.4,2.7,0.4c0.4,0,0.9,0.2,0.9,0.5s-0.8,0.5-1.6,0.5c-1,0-6.1,0-10.9-0.2c-1.3-0.1-2.4-0.1-2.4-0.5
		c0-0.3,0.2-0.3,0.5-0.5c0.4-0.2,1.1-0.7,0.6-1.8l-6.2-15.3c-0.2-0.3-0.2-0.4-0.6-0.4h-15.9c-0.3,0-0.5,0.2-0.7,0.5l-3.9,10.7
		c-0.6,1.6-1,3.3-1,4.5c0,1.3,1.2,1.8,2.4,1.8h0.6c0.5,0,0.7,0.2,0.7,0.5c0,0.4-0.4,0.5-1,0.5c-1.6,0-5.4-0.2-6.2-0.2
		c-0.7,0-4.2,0.2-7,0.2c-0.9,0-1.3-0.2-1.3-0.5c0-0.3,0.3-0.5,0.6-0.5c0.5,0,1.5-0.1,2-0.2c3.1-0.4,4.5-2.7,5.8-6.1L395.7,102.5z
		 M403.3,130.3c0.3,0,0.3-0.2,0.2-0.5l-6.8-18.3c-0.4-1-0.8-1-1.2,0l-6.4,18.3c-0.1,0.3,0,0.5,0.2,0.5H403.3z M409.5,90.7
		c0.4,0.7,0,0.9-0.3,0.9c-0.2,0-1-0.2-2.4,0c-3.8,0.4-9.3,2.2-11.9,3.3c-0.5,0.2-1,0.4-1.2,0.4s-0.4-0.2-0.4-0.5
		c0-0.2,0.2-0.4,0.5-0.6c2.8-2,10.1-6.3,10.7-6.7c1.3-0.8,1.8-1,2.2-1c0.2,0,0.4,0.2,0.8,0.7C408,88,408.6,89.1,409.5,90.7z"/>
</g>
<g>
	<path class="st1" d="M195.5,169.2c-1.3,0-2.4-0.4-3.4-1.3c-0.9-0.9-1.4-2-1.4-3.3c0-1.3,0.4-2.4,1.2-3.3c0.8-0.9,1.9-1.3,3.2-1.3
		c1,0,2,0.2,3.1,0.5l-0.2,0.5c-1-0.3-2-0.5-2.9-0.5c-1.1,0-2,0.4-2.7,1.2c-0.7,0.8-1,1.8-1,2.9c0,1.1,0.4,2.1,1.2,2.9
		c0.8,0.8,1.8,1.2,2.9,1.2c1,0,1.9-0.2,2.6-0.5l0.2,0.4c-0.3,0.2-0.7,0.3-1.3,0.4S196,169.2,195.5,169.2z"/>
	<path class="st1" d="M201.2,165.9l-1.3,3.1h-0.6l3.8-9.1h0.4l3.8,9.1h-0.7l-1.3-3.1H201.2z M203.2,161c0,0,0,0.1-0.1,0.2
		c-0.1,0.4-0.2,0.7-0.3,0.9l-1.4,3.4h3.6l-1.4-3.3C203.3,161.4,203.2,161.1,203.2,161z"/>
	<path class="st1" d="M211.8,160c1.4,0,2.5,0.4,3.5,1.3c0.9,0.9,1.4,2,1.4,3.5c0,0.7-0.1,1.4-0.4,2c-0.2,0.6-0.6,1-1,1.4
		c-0.9,0.7-1.9,1-3.2,1c-0.8,0-1.8,0-2.9-0.1v-9C210.1,160,210.9,160,211.8,160z M212.1,168.6c1.2,0,2.1-0.3,2.9-1s1.1-1.6,1.1-2.9
		c0-1.3-0.4-2.3-1.2-3.1c-0.8-0.8-1.8-1.1-3-1.1c-0.8,0-1.4,0-2,0.1v8C210.4,168.6,211.1,168.6,212.1,168.6z"/>
	<path class="st1" d="M220,165.9l-1.3,3.1H218l3.8-9.1h0.4l3.8,9.1h-0.7l-1.3-3.1H220z M222,161c0,0,0,0.1-0.1,0.2
		c-0.1,0.4-0.2,0.7-0.3,0.9l-1.4,3.4h3.6l-1.4-3.3C222.1,161.4,222,161.1,222,161z"/>
	<path class="st1" d="M235.2,160c1.4,0,2.5,0.4,3.5,1.3c0.9,0.9,1.4,2,1.4,3.5c0,0.7-0.1,1.4-0.4,2c-0.2,0.6-0.6,1-1,1.4
		c-0.9,0.7-1.9,1-3.2,1c-0.8,0-1.8,0-2.9-0.1v-9C233.5,160,234.3,160,235.2,160z M235.5,168.6c1.2,0,2.1-0.3,2.9-1s1.1-1.6,1.1-2.9
		c0-1.3-0.4-2.3-1.2-3.1c-0.8-0.8-1.8-1.1-3-1.1c-0.8,0-1.4,0-2,0.1v8C233.8,168.6,234.5,168.6,235.5,168.6z"/>
	<path class="st1" d="M243,169.1v-9h0.6v9H243z"/>
	<path class="st1" d="M247.5,165.9l-1.3,3.1h-0.6l3.8-9.1h0.4l3.8,9.1h-0.7l-1.3-3.1H247.5z M249.5,161c0,0,0,0.1-0.1,0.2
		c-0.1,0.4-0.2,0.7-0.3,0.9l-1.4,3.4h3.6l-1.4-3.3C249.7,161.4,249.5,161.1,249.5,161z"/>
	<path class="st1" d="M254.7,168.4h0.7v0.6l-0.5,1h-0.3l0.2-0.8V168.4z"/>
	<path class="st1" d="M266.4,169.2c-1.3,0-2.4-0.4-3.4-1.3c-0.9-0.9-1.4-2-1.4-3.3c0-1.3,0.4-2.4,1.2-3.3c0.8-0.9,1.9-1.3,3.2-1.3
		c1,0,2,0.2,3.1,0.5l-0.2,0.5c-1-0.3-2-0.5-2.9-0.5c-1.1,0-2,0.4-2.7,1.2c-0.7,0.8-1,1.8-1,2.9c0,1.1,0.4,2.1,1.2,2.9
		c0.8,0.8,1.8,1.2,2.9,1.2c1,0,1.9-0.2,2.6-0.5l0.2,0.4c-0.3,0.2-0.7,0.3-1.3,0.4S266.9,169.2,266.4,169.2z"/>
	<path class="st1" d="M272.1,165.9l-1.3,3.1h-0.6l3.8-9.1h0.4l3.8,9.1h-0.7l-1.3-3.1H272.1z M274.1,161c0,0,0,0.1-0.1,0.2
		c-0.1,0.4-0.2,0.7-0.3,0.9l-1.4,3.4h3.6l-1.4-3.3C274.3,161.4,274.1,161.1,274.1,161z"/>
	<path class="st1" d="M282.7,160c1.4,0,2.5,0.4,3.5,1.3c0.9,0.9,1.4,2,1.4,3.5c0,0.7-0.1,1.4-0.4,2c-0.2,0.6-0.6,1-1,1.4
		c-0.9,0.7-1.9,1-3.2,1c-0.8,0-1.8,0-2.9-0.1v-9C281,160,281.9,160,282.7,160z M283,168.6c1.2,0,2.1-0.3,2.9-1s1.1-1.6,1.1-2.9
		c0-1.3-0.4-2.3-1.2-3.1c-0.8-0.8-1.8-1.1-3-1.1c-0.8,0-1.4,0-2,0.1v8C281.3,168.6,282,168.6,283,168.6z"/>
	<path class="st1" d="M290.9,165.9l-1.3,3.1h-0.6l3.8-9.1h0.4l3.8,9.1h-0.7l-1.3-3.1H290.9z M292.9,161c0,0,0,0.1-0.1,0.2
		c-0.1,0.4-0.2,0.7-0.3,0.9l-1.4,3.4h3.6l-1.4-3.3C293,161.4,292.9,161.1,292.9,161z"/>
	<path class="st1" d="M309.6,168.2c-0.6,0.7-1.5,1-2.6,1c-1.2,0-2.1-0.3-2.7-1c-0.6-0.7-0.9-1.6-0.9-2.8v-5.3h0.6v5.3
		c0,2.2,1,3.3,2.9,3.3c1.9,0,2.9-1.1,2.9-3.3v-5.3h0.6v5.3C310.5,166.6,310.2,167.5,309.6,168.2z"/>
	<path class="st1" d="M318.1,168.6h-0.3l-2.6-6.4c-0.2-0.4-0.3-0.7-0.4-0.9l-0.1,1l-1,6.8H313l1.5-9.1h0.4l2.8,6.7
		c0.1,0.3,0.3,0.6,0.3,0.9c0-0.1,0.2-0.4,0.4-0.9l3.1-6.7h0.3l1.4,9.1h-0.6l-1-6.9c-0.1-0.4-0.1-0.8-0.1-1c0,0,0,0-0.1,0.1
		c0,0.1-0.1,0.2-0.2,0.4c-0.1,0.2-0.1,0.3-0.2,0.5L318.1,168.6z"/>
	<path class="st1" d="M324.5,168.4h0.7v0.6l-0.5,1h-0.3l0.2-0.8V168.4z"/>
	<path class="st1" d="M336.3,169.2c-1.3,0-2.4-0.4-3.4-1.3c-0.9-0.9-1.4-2-1.4-3.3c0-1.3,0.4-2.4,1.2-3.3c0.8-0.9,1.9-1.3,3.2-1.3
		c1,0,2,0.2,3.1,0.5l-0.2,0.5c-1-0.3-2-0.5-2.9-0.5c-1.1,0-2,0.4-2.7,1.2c-0.7,0.8-1,1.8-1,2.9c0,1.1,0.4,2.1,1.2,2.9
		c0.8,0.8,1.8,1.2,2.9,1.2c1,0,1.9-0.2,2.6-0.5l0.2,0.4c-0.3,0.2-0.7,0.3-1.3,0.4S336.8,169.2,336.3,169.2z"/>
	<path class="st1" d="M342,165.9l-1.3,3.1h-0.6l3.8-9.1h0.4l3.8,9.1h-0.7l-1.3-3.1H342z M344,161c0,0,0,0.1-0.1,0.2
		c-0.1,0.4-0.2,0.7-0.3,0.9l-1.4,3.4h3.6l-1.4-3.3C344.1,161.4,344,161.1,344,161z"/>
	<path class="st1" d="M352.6,160c1.4,0,2.5,0.4,3.5,1.3c0.9,0.9,1.4,2,1.4,3.5c0,0.7-0.1,1.4-0.4,2c-0.2,0.6-0.6,1-1,1.4
		c-0.9,0.7-1.9,1-3.2,1c-0.8,0-1.8,0-2.9-0.1v-9C350.9,160,351.7,160,352.6,160z M352.9,168.6c1.2,0,2.1-0.3,2.9-1s1.1-1.6,1.1-2.9
		c0-1.3-0.4-2.3-1.2-3.1c-0.8-0.8-1.8-1.1-3-1.1c-0.8,0-1.4,0-2,0.1v8C351.2,168.6,351.9,168.6,352.9,168.6z"/>
	<path class="st1" d="M360.8,165.9l-1.3,3.1h-0.6l3.8-9.1h0.4l3.8,9.1h-0.7l-1.3-3.1H360.8z M362.8,161c0,0,0,0.1-0.1,0.2
		c-0.1,0.4-0.2,0.7-0.3,0.9l-1.4,3.4h3.6l-1.4-3.3C362.9,161.4,362.8,161.1,362.8,161z"/>
	<path class="st1" d="M377.7,168.6h-0.3l-2.6-6.4c-0.2-0.4-0.3-0.7-0.4-0.9l-0.1,1l-1,6.8h-0.6l1.5-9.1h0.4l2.8,6.7
		c0.1,0.3,0.3,0.6,0.3,0.9c0-0.1,0.2-0.4,0.4-0.9l3.1-6.7h0.3l1.4,9.1h-0.6l-1-6.9c-0.1-0.4-0.1-0.8-0.1-1c0,0,0,0-0.1,0.1
		c0,0.1-0.1,0.2-0.2,0.4c-0.1,0.2-0.1,0.3-0.2,0.5L377.7,168.6z"/>
	<path class="st1" d="M385.9,165.9l-1.3,3.1h-0.6l3.8-9.1h0.4l3.8,9.1h-0.7l-1.3-3.1H385.9z M387.9,161c0,0,0,0.1-0.1,0.2
		c-0.1,0.4-0.2,0.7-0.3,0.9l-1.4,3.4h3.6l-1.4-3.3C388,161.4,387.9,161.1,387.9,161z"/>
	<path class="st1" d="M394.5,161.5l0,1.1v6.5h-0.6V160h0.3l5.9,6.9c0.4,0.5,0.7,0.9,0.9,1.1c0-0.4-0.1-0.9-0.1-1.4v-6.5h0.6v9.1
		h-0.3l-6.1-7c-0.4-0.5-0.7-0.8-0.8-1L394.5,161.5z"/>
	<path class="st1" d="M411.8,169.1v-4.5h-6.2v4.5H405v-9h0.6v4h6.2v-4h0.6v9H411.8z"/>
	<path class="st1" d="M416.4,165.9l-1.3,3.1h-0.6l3.8-9.1h0.4l3.8,9.1h-0.7l-1.3-3.1H416.4z M417.3,158.8c-0.3,0-0.6,0.3-1,0.8
		l-0.3-0.2c0.1-0.2,0.2-0.3,0.3-0.5c0.1-0.1,0.2-0.2,0.4-0.4s0.4-0.2,0.5-0.2s0.2,0,0.3,0c0.1,0,0.2,0,0.2,0.1
		c0.1,0,0.2,0.1,0.2,0.1c0,0,0.1,0.1,0.2,0.1c0.1,0.1,0.2,0.1,0.2,0.1c0.4,0.2,0.7,0.3,0.9,0.3c0.3,0,0.6-0.3,1-0.8l0.3,0.2
		c-0.1,0.2-0.2,0.3-0.3,0.5c-0.1,0.1-0.2,0.2-0.4,0.4s-0.4,0.2-0.5,0.2s-0.2,0-0.3,0c-0.1,0-0.2,0-0.2-0.1c-0.1,0-0.2-0.1-0.2-0.1
		c0,0-0.1-0.1-0.2-0.1c-0.1-0.1-0.2-0.1-0.2-0.1C417.8,158.9,417.5,158.8,417.3,158.8z M418.4,161c0,0,0,0.1-0.1,0.2
		c-0.1,0.4-0.2,0.7-0.3,0.9l-1.4,3.4h3.6l-1.4-3.3C418.5,161.4,418.4,161.1,418.4,161z"/>
	<path class="st1" d="M423.5,169.1v-0.7h0.7v0.7H423.5z"/>
</g>
</svg>
