<svg id="Camada_1" data-name="Camada 1" xmlns="http://www.w3.org/2000/svg" viewBox="0 0 428.87 503.5"><defs><style>.cls-1{fill:#fff;}.cls-2{fill:none;stroke:#fff;stroke-miterlimit:10;stroke-width:6px;}</style></defs><title>Prancheta 1</title><path class="cls-1" d="M91.11,224.91c-17.76,0-36.3-13.15-35.38-42,1.71-50.38,57.08-56.43,56.69-39.59-.13,5.79-3.16,14.86-7.37,16.57-20.91-10.65-38.28,8.68-38.8,25-.39,8.29,9.73,20,23.94,20,16.84,0,29.59-16.7,29.73-23.41.13-4.87,2.89.13,2.89.13C129.12,204.92,114.13,224.91,91.11,224.91Z"/><path class="cls-1" d="M199.49,192.95c-.13.92-2.5,3.29-2.5,3.29l-.66,1.58-5,2.5,3.68.39a30.39,30.39,0,0,0-5.79,3.16c-2.1,1.84-2.76,3.68-4.34,4.34-1.32,0-29.2,6.71-55.37,19.86-4.08,2.1-11.84-14.86-5.52-18.41.92-.39,1.84-.79,2.89-1.18-.39-22.49-.53-62.08-3-70.5a27,27,0,0,1,10.52-1.71c13.81-2.1,43.93-2,52.48-2a28.39,28.39,0,0,0,0,3.42,14.18,14.18,0,0,0-4.08,2.89c-.39.39-3,2.37-3,2.37h2.63l-4.21,2.37-.13,1.58s-5.26,2.37-6.05,2.63c-.66,0-14.07,2.5-25.52,4.47,0,1.05-.13,2.1-.13,3.16-.13,3.42-.26,6.58-.53,9.73A299.21,299.21,0,0,1,179,164.28a17.76,17.76,0,0,1-1.05,2.76l-.53,3.16-4.08,2.37H175l-4.34,2.89.26,1.31-4.74,1.32-.79,1.58s-4.74,2.24-6.58,3c-.79,0-8.16,2.24-14.6,3.95-.53,7-1.18,12.36-1.71,15.65C160.16,196.11,184.23,190.32,199.49,192.95Z"/><path class="cls-1" d="M245,149.68c-15.52,0-36.3,6.58-36.3,7.5-.26,2.37,48.8,10.13,47,39.85-1.45,24.33-17.76,29.59-35.91,29.59s-30-18.81-29.33-29.07a68.17,68.17,0,0,1,2.76-16.84,122.09,122.09,0,0,0-.39,12.89,107.27,107.27,0,0,1,1.58-14.34l2.1-2.37.66,1.58c-2.37,40.64,47.09,25.25,47.48,18.94.66-11.44-56.43-15.13-55.11-37.88.66-11.44,2.1-10.92,2.1-10.92.79-14.34,44.59-17.62,48.93-17.62C240.52,131,252.09,137.44,245,149.68Z"/><path class="cls-1" d="M328.11,136.65c-.53,4.87-4.74,13.68-16.18,17.36-6.71.26-12.89.66-18.42.92-.79,26.57-4.47,56.82-4.47,56.82l-2.89,6.44-1.05-.13-2.1,4.74s-.66-1.05-1.58.13a14.32,14.32,0,0,0-1.18,2.76h-1.05l-1.71,2.63L276.29,225s-1.18,4.47-1.71,4.6c-.66-4.08-.53-46-1.71-73.66-11.84.66-18.55,1.05-20.78,1.18-11,.26-11.31-21.31-4.21-22.36a177.57,177.57,0,0,1,23.54-1.18,4.13,4.13,0,0,1,1.45-1.05c3.29-.92,9.34-1.84,14.07,1.45C300,134.55,314,135.6,328.11,136.65Z"/><path class="cls-1" d="M371.38,218.6a14.38,14.38,0,0,1-.92,4.21c-.26.66-1.45,1.18-1.71,1.45-.39.53,0,.79-.39,1.05a7,7,0,0,1-1.32.79,5,5,0,0,1-2.1.26c-2.76,0-7.89-7.89-13.29-19.33a18.78,18.78,0,0,1-2.89,1.05c-5.92-.66-20.12,1.31-29.07,2.5-3,5.79-6.18,11.44-9.73,17.1-.66.26-.66-1.18-1.45-1.84-.39-.39-1.45.53-2,0a31.26,31.26,0,0,1-.79-4.08,3.65,3.65,0,0,1-2.5-2.24c-.26-.53.39-5.26.39-5.26s-1.45,1.71-1.71.79a15.29,15.29,0,0,1-.13-4.87c2.5-7.37,17.23-40.91,19.73-75,10.52-1.32,16.7-.92,19.86,1.05,5-.13,9.86,1.45,10.52,7.23,1.18,9.6,3.29,33.41,18.81,68.79.26,1.45-1.45-1.45-1.32-.4S371.38,217.81,371.38,218.6Zm-26-25.52c-3.16-7.5-6.18-15.52-8.81-23.28-2.76,8.16-5.52,15.65-8.42,22.62A149.77,149.77,0,0,1,345.34,193.08Z"/><path class="cls-1" d="M94.86,342.34c-4.1,0-11.51.57-18.57-1.25-.46.8-.91,1.48-1.25,2.17-.57.91-1.37-.12-1.71-1.25-.46,2.39-.23,3.08-1,3.53-.57.34-1.25,2.05-1.71,2.17a80.49,80.49,0,0,1-.46-9c-5.7-3.08-10.25-8.55-11.51-18.46a41,41,0,0,0,11.17,4.22c-.11-5.81-.23-12.08-.46-18.23-1.82,0-3.76.11-5.81.23,0,0-6-3.65-2.28-12.31a7.64,7.64,0,0,1,2.85-.91L64,292s1.94-.46,4.9-1.25c-.23-4-.46-7.75-.68-11.05a5.53,5.53,0,0,1-2.62-.46c-1.82-1.37-3.53-7.41-1.94-10.14,0,0,1.25-.23,3.3-.57a3.86,3.86,0,0,0-.46-1.37s8.32-3.53,13.22-.23c10.48-1.14,23.7-1.82,31.45.46,3.76,2.73,4.67,9.68,4.67,15.15,0,0-1,5.24-9.91,10,12.3,3,22.56,9.91,23.36,24.38C130.3,334.94,114.23,342.23,94.86,342.34ZM83.47,306c-.34,9.23-1,15.72-1.59,19.94,10.94.34,23.36-1.82,33.27-9C115.14,316.94,116.85,306.8,83.47,306Zm.11-19.83c6.61-2.28,13.22-5,16.63-7.86-1.37-.8-9-.23-16.75.46C83.47,281.39,83.58,283.78,83.58,286.17Z"/><path class="cls-1" d="M180.09,332.09c0,.8,1.25,5.47,1.14,6.15a11.25,11.25,0,0,1-1,4c-.34.46-1.37,1-1.59,1.37s0,.68-.34.91-.91.46-1.25.68a4.36,4.36,0,0,1-1.82.23c-2.51.11-6.5-8.43-10.48-20.17-.91.34-1.94.68-3,1-3.42-.34-10.48.34-17,1.25l-2.85,7.41-.46.57-.91.91-2.62,3.3L140,328.67,135.43,342a8.42,8.42,0,0,0-3,.46c-.23.12-1.14,2.74-1.37,2.85a5.85,5.85,0,0,1-1.37.57,1.93,1.93,0,0,1-1.14,0c0-1.37,1.48-8.09,3.42-17h-.91c-3.42-.34-4-14.24,2.17-15.38q1-.17,2.39-.34c4.33-19.6,9-41.59,8.32-47.06a24.74,24.74,0,0,1,8.55.57c2.73-2.28,19-7.29,19.25,3.53.23,9-.91,29.4,9.57,62.21C181.46,333.68,180.2,331.06,180.09,332.09ZM169.84,254.5c-11.28,3.65-14.81,6.61-15.38,6.84-7,2.73-7.52-3.76-6.49-8.77,3.87-10.14,12.3-14.36,14.58-13.67C167,240.14,174.74,246.18,169.84,254.5Zm-8.77,58.68c-1.82-6.49-3.53-13.33-4.9-19.94-1.71,6.27-3.87,13.1-6,19.26C153.88,312.61,157.64,312.83,161.06,313.18Z"/><path class="cls-1" d="M232.73,278.08c-13.44,0-31.45,5.7-31.45,6.49-.23,2.05,42.27,8.77,40.68,34.52-1.25,21.08-15.38,25.64-31.11,25.64s-26-16.29-25.41-25.18A59,59,0,0,1,187.84,305a105.74,105.74,0,0,0-.34,11.17,92.9,92.9,0,0,1,1.37-12.42l1.82-2.05.57,1.37c-2.05,35.21,40.79,21.88,41.13,16.41.57-9.91-48.88-13.1-47.74-32.81.57-9.91,1.82-9.46,1.82-9.46.68-12.42,38.62-15.27,42.38-15.27C228.86,261.9,238.88,267.49,232.73,278.08Z"/><path class="cls-1" d="M244.81,263.73c4.79-1.37,17.43-3,17,16.86-.46,22-2.85,48.42-2.85,48.42s-.46.91-1.59,2.73c-.68,1-2.28,4.56-2.28,4.56a5.16,5.16,0,0,0-2.16,1.48,23.25,23.25,0,0,0-.91,2.28l-.91-.11-1.37,2.16s-.8-.57-1-.46c-.57.23-.91,1.48-1.37,1.48-.8-4.44-1.25-65.17-4-77.7A2.1,2.1,0,0,1,244.81,263.73Z"/><path class="cls-1" d="M290.27,343.26c-15.38,0-31.45-11.39-30.65-36.35,1.48-43.64,49.45-48.88,49.11-34.29-.11,5-2.73,12.87-6.38,14.36-18.12-9.23-33.16,7.52-33.61,21.65-.34,7.18,8.43,17.32,20.74,17.32,14.58,0,25.64-14.47,25.75-20.28.11-4.22,2.51.11,2.51.11C323.2,325.94,310.21,343.26,290.27,343.26Z"/><path class="cls-1" d="M368.44,337.79a12.47,12.47,0,0,1-.8,3.65c-.23.57-1.25,1-1.48,1.25-.34.46,0,.68-.34.91a6.07,6.07,0,0,1-1.14.68,4.36,4.36,0,0,1-1.82.23c-2.39,0-6.84-6.84-11.51-16.75a16.27,16.27,0,0,1-2.51.91c-5.13-.57-17.43,1.14-25.18,2.16-2.62,5-5.36,9.91-8.43,14.81-.57.23-.57-1-1.25-1.6-.34-.34-1.25.46-1.71,0a26.93,26.93,0,0,1-.68-3.53,3.16,3.16,0,0,1-2.17-1.94c-.23-.46.34-4.56.34-4.56s-1.25,1.48-1.48.68a13.27,13.27,0,0,1-.11-4.22c2.17-6.38,14.93-35.43,17.09-64.94,9.12-1.14,14.47-.8,17.21.91,4.33-.11,8.54,1.25,9.11,6.27,1,8.32,2.85,28.94,16.29,59.59.23,1.25-1.25-1.25-1.14-.34S368.44,337.1,368.44,337.79Zm-22.56-22.1c-2.73-6.49-5.36-13.44-7.63-20.17-2.39,7.06-4.79,13.56-7.29,19.6A129.72,129.72,0,0,1,345.88,315.68Z"/><path class="cls-1" d="M150.1,382.35c0,.28-.75,1-.75,1l-.2.47-1.5.75,1.1.12a9.11,9.11,0,0,0-1.73.94c-.63.55-.83,1.1-1.3,1.3a75.87,75.87,0,0,0-16.56,5.94c-1.22.63-3.54-4.44-1.65-5.51.28-.12.55-.24.87-.35-.12-6.73-.16-18.57-.91-21.08a8.08,8.08,0,0,1,3.15-.51c4.13-.63,13.14-.59,15.7-.59a8.36,8.36,0,0,0,0,1,4.24,4.24,0,0,0-1.22.87c-.12.12-.9.71-.9.71H145l-1.26.71,0,.47s-1.57.71-1.81.79-4.21.75-7.63,1.34c0,.31,0,.63,0,.94,0,1-.08,2-.16,2.91a89.33,89.33,0,0,1,9.91-.79,5.27,5.27,0,0,1-.31.83l-.16.94-1.22.71h.51l-1.3.87.08.39-1.42.39-.24.47s-1.42.67-2,.9c-.24,0-2.44.67-4.37,1.18-.16,2.08-.35,3.7-.51,4.68C138.33,383.29,145.53,381.56,150.1,382.35Z"/><path class="cls-1" d="M163.7,369.41c-4.64,0-10.86,2-10.86,2.24-.08.71,14.59,3,14,11.92-.43,7.28-5.31,8.85-10.74,8.85s-9-5.62-8.77-8.69a20.32,20.32,0,0,1,.83-5,36.41,36.41,0,0,0-.12,3.86,32.2,32.2,0,0,1,.47-4.29l.63-.71.2.47c-.71,12.16,14.08,7.55,14.2,5.67.2-3.42-16.88-4.52-16.48-11.33.2-3.42.63-3.26.63-3.26.24-4.29,13.34-5.27,14.63-5.27A3.89,3.89,0,0,1,163.7,369.41Z"/><path class="cls-1" d="M174.91,383.65c-.2,2.67-.32,4.48-.32,4.48s-.28.47-.71,1.18c-.24.35-.83,1.65-.83,1.65a2.05,2.05,0,0,0-.79.51c-.08.12-.35.87-.35.87l-.31,0-.51.79s-.28-.24-.35-.2-.31.55-.51.59c-.12-.75-.24-5.67-.39-11.25-1.77-1.14-3.22-3.15-3.22-6.73,0,0,.59-1.14.59,0,0,.63.94,1.46,2.48,2.12-.08-2.4-.2-4.76-.31-6.81-.47.08-1,.2-1.5.28-1.61,1.14-4-4.88-1.06-5.55.59-.12,1.3-.28,2-.39v-.12a.65.65,0,0,1,.51-.63,5.5,5.5,0,0,1,3.78.16c7.16-.59,15.7.71,15.66,10.11C188.68,383.14,178.37,383.65,174.91,383.65Zm.63-13.41v.35c-.08,2.67-.2,5.47-.35,8.06,4.72-.12,10.27-2.24,10.42-4.8C185.77,371.81,181.76,370.12,175.54,370.24Z"/><path class="cls-1" d="M190.13,364.45c1.65-.47,6-1,5.86,5.82-.16,7.59-1,16.72-1,16.72s-.16.31-.55.94c-.24.35-.79,1.57-.79,1.57a1.78,1.78,0,0,0-.75.51,8.22,8.22,0,0,0-.31.79l-.31,0-.47.75s-.28-.2-.35-.16-.31.51-.47.51c-.28-1.53-.43-22.5-1.38-26.83A.73.73,0,0,1,190.13,364.45Z"/><path class="cls-1" d="M214.2,382.63a13,13,0,0,1,1.61,8.46,11.22,11.22,0,0,0-1.38-6.22s1.5,5,1,6.69a3,3,0,0,1-.2-.24s-.47.79-.71.83-1,.24-1,.24l-.35-.39a22.54,22.54,0,0,0-4.33-8,25.87,25.87,0,0,1-3.5.24h-.24c-.16,2.44-.28,4.05-.28,4.05s-.28.47-.67,1.1c-.23.35-.79,1.57-.79,1.57a1.78,1.78,0,0,0-.75.51,8.22,8.22,0,0,0-.31.79l-.31,0-.47.75s-.28-.2-.35-.16-.31.51-.47.51c-.12-.67-.24-5.23-.39-10.5a6.49,6.49,0,0,1-2.83-3.82,4.48,4.48,0,0,1-.16-1.61,7.09,7.09,0,0,0,1.18,2.87,6.37,6.37,0,0,1-.79-3.82,4.26,4.26,0,0,0,2.48,1.85c-.12-2.6-.24-5.15-.35-7.28-.79.12-1.57.28-2.4.47-1.26-.47-2.48-3.82-1.1-5.07s23.29-6.33,23.17,8.85C219.44,379.17,217.08,381.37,214.2,382.63Zm-8.57-12.31c0,.39,0,.87,0,1.38,0,2.48-.16,5.11-.31,7.55,4.76,0,10.86-2.52,11.05-5.11C216.57,371.93,212.63,370,205.63,370.31Z"/><path class="cls-1" d="M220.14,364.45c1.65-.47,6-1,5.86,5.82-.16,7.59-1,16.72-1,16.72s-.16.31-.55.94c-.24.35-.79,1.57-.79,1.57a1.78,1.78,0,0,0-.75.51,8.22,8.22,0,0,0-.31.79l-.31,0-.47.75s-.28-.2-.35-.16-.32.51-.47.51c-.28-1.53-.43-22.5-1.38-26.83A.73.73,0,0,1,220.14,364.45Z"/><path class="cls-1" d="M250.11,365.51a6.64,6.64,0,0,1-4.84,5.19c-2,.08-3.86.2-5.51.28-.24,7.95-1.34,17-1.34,17l-.87,1.93-.31,0-.63,1.42s-.2-.31-.47,0a4.33,4.33,0,0,0-.35.83h-.31l-.51.79-.35-1s-.36,1.34-.51,1.38c-.2-1.22-.16-13.77-.51-22l-6.21.35c-3.3.08-3.38-6.37-1.26-6.69a53.13,53.13,0,0,1,7-.35,1.25,1.25,0,0,1,.43-.32,5.12,5.12,0,0,1,4.21.43C241.7,364.89,245.91,365.2,250.11,365.51Z"/><path class="cls-1" d="M253.38,388.92c8.42-2.87,6.18-21.4,2.28-24l.28-.35a3.83,3.83,0,0,1,.67,0s2.79,2,3.58,4.05a9.24,9.24,0,0,0-3-4.13c10.35,2.28,10.54,28.72-.9,28.17s-11.84-13.77-11.76-17.23a48,48,0,0,1,1.46-8.73s-.31-1-.08-1.22c1.1-.94,6.49-.87,6.45,2.64C252.39,369.13,248.7,382.67,253.38,388.92Z"/><path class="cls-1" d="M283.19,390a4.26,4.26,0,0,1-.28,1.26c-.08.2-.43.35-.51.43s0,.24-.12.32a2.09,2.09,0,0,1-.39.24,1.52,1.52,0,0,1-.63.08c-.83,0-2.36-2.36-4-5.78a5.65,5.65,0,0,1-.87.32c-1.77-.2-6,.39-8.69.75-.9,1.73-1.85,3.42-2.91,5.11-.2.08-.2-.35-.43-.55s-.43.16-.59,0a9.44,9.44,0,0,1-.24-1.22,1.09,1.09,0,0,1-.75-.67,9.21,9.21,0,0,1,.12-1.57s-.43.51-.51.24a4.61,4.61,0,0,1,0-1.46c.75-2.2,5.15-12.23,5.9-22.42,3.15-.39,5-.28,5.94.31,1.5,0,3,.43,3.15,2.16A66.1,66.1,0,0,0,283,388.13c.08.43-.43-.43-.39-.12S283.19,389.79,283.19,390Zm-7.79-7.63c-.94-2.24-1.85-4.64-2.63-7-.83,2.44-1.65,4.68-2.52,6.77A44.86,44.86,0,0,1,275.4,382.39Z"/><path class="cls-1" d="M299.87,384.51l-.55,1.1.24.12a2.65,2.65,0,0,1-.71.47,65.35,65.35,0,0,0-12.67,7.55c-1.18.87-5.55-5.43-3.11-6.73a2.44,2.44,0,0,1,.55-.31c.55-7.08,1.57-19.79.24-22.46,0,0,7-3.34,7,4.8A83,83,0,0,1,289,384c3.54-1.61,7.63-3.07,10.86-2.83.08.12-.87.35-.79.51s1.14.28,1.18.47-.43.9-.43.9Z"/><line class="cls-2" x1="120.55" y1="377.89" x2="60.85" y2="377.89"/><line class="cls-2" x1="368.01" y1="377.57" x2="308.31" y2="377.57"/><path class="cls-1" d="M157.83,95.48a.84.84,0,0,1,.88.18,4.59,4.59,0,0,0,1.44.6c.54.21,1.08.4,1.63.59a.27.27,0,0,1,.21.34,6.66,6.66,0,0,0,0,1c0,.27-.07.35-.34.25l-3.08-1.12-.73-.24Z"/><path class="cls-1" d="M170.94,41.47q0-9.2,0-18.39a1,1,0,0,1,.6-1q3.59-1.8,7.16-3.64c2.6-1.34,5.19-2.7,7.79-4a1.31,1.31,0,0,1,.92-.13L201.64,17l10.17,1.92,8.41,1.56,10.32,1.94,1.85.36c.42.08.5.18.5.6,0,6.49,0,13,0,19.47-.06,5.75,0,11.5,0,17.24,0,.51,0,.53-.51.51l-4.66-.13L224,60.3l-4.51-.13-3.92-.12-4.29-.13-4-.12L203,59.68l-4-.12-4.2-.13c-1.33,0-2.65-.09-4-.12-1.12,0-2.24-.09-3.36-.11s-2.28.14-3.42.23l-2.55.2-3.57.29-2.65.2-2.71.22-1.26.09c-.21,0-.31-.07-.3-.29s0-.23,0-.34Q170.94,50.64,170.94,41.47Z"/><path class="cls-1" d="M170.94,80.28q0-9.09,0-18.17c0-.56,0-.57.55-.61l5-.38,5.72-.48,4.21-.32a26.63,26.63,0,0,1,3.2.06c.72,0,1.44,0,2.16.06,1.11.07,2.22,0,3.33.08l4.38.13,4,.12,4.32.13,3.86.12,4.35.13,4,.12,4.2.13,4.07.12c1.4,0,2.8.11,4.2.11.3,0,.33.15.33.39,0,2,0,3.92,0,5.87-.1,3.85,0,7.7,0,11.56,0,4.4,0,8.8,0,13.2q0,2.84,0,5.68c0,.25-.08.37-.35.4l-10.46,1.41-8.75,1.17-9.95,1.32-7.59,1-8.38,1.12a1.14,1.14,0,0,1-.55-.05L178,101.56c-2.21-.8-4.42-1.59-6.63-2.37a.56.56,0,0,1-.44-.62Q170.95,89.43,170.94,80.28Z"/><path class="cls-1" d="M267,45.59q0,7.65,0,15.3a1.59,1.59,0,0,1,0,.37c-.05.21-.14.39-.43.31a.8.8,0,0,0-.21,0c-1.14,0-2.29,0-3.43-.07-1.45-.06-2.9-.09-4.35-.13l-3.86-.12-4.35-.13-4-.12-4.26-.13-3.89-.12c-1.35,0-2.69-.11-4-.11-.3,0-.33-.16-.33-.39,0-1.9,0-3.79,0-5.69.11-8.88,0-17.76.07-26.64q0-2.32,0-4.63c0-.22.07-.23.26-.19l5.07.94,7.25,1.36,10.86,2,9,1.68a.58.58,0,0,1,.53.53,5.66,5.66,0,0,1,.09,1.25Q267,38.23,267,45.59Z"/><path class="cls-1" d="M169.83,41.76q0,9.12,0,18.24c0,.56,0,.57-.55.61l-5.75.44-4.18.36c-.57,0-.58,0-.58-.55q0-7.82,0-15.64t0-15.73a1.3,1.3,0,0,1,.73-1.24c2.08-1.1,4.18-2.14,6.28-3.2,1.22-.62,2.43-1.26,3.64-1.9.4-.21.41-.21.41.24Q169.83,32.58,169.83,41.76Z"/><path class="cls-1" d="M169.83,80.15q0,8.92,0,17.83c0,.09,0,.19,0,.28,0,.35,0,.36-.35.24-2.44-.88-4.89-1.75-7.32-2.64-1-.37-2-.69-3-1.15a.59.59,0,0,1-.4-.68q0-15.42,0-30.84c0-.47,0-.43.46-.55a30.39,30.39,0,0,1,5-.53c1.39-.15,2.79-.25,4.18-.36l1.17-.07c.22,0,.32.09.31.31s0,.21,0,.31Q169.83,71.22,169.83,80.15Z"/><path class="cls-1" d="M172.79,101.59v.12c0,.77,0,.77-.74.5l-4.29-1.57c-.24-.09-.36-.2-.35-.47s0-.64,0-1,0-.32.3-.23l4.88,1.76c.16.06.23.14.21.32a4,4,0,0,0,0,.52Z"/><path class="cls-1" d="M178.51,103.16a7.83,7.83,0,0,0,0,1c0,.33,0,.36-.34.25l-4-1.46a.32.32,0,0,1-.23-.35c0-.35,0-.7,0-1.05s.09-.32.33-.23l3.49,1.26.58.21A.27.27,0,0,1,178.51,103.16Z"/><path class="cls-1" d="M166.36,98.72c0,.38,0,.76,0,1.14,0,.18-.06.24-.25.17l-2.81-1a.29.29,0,0,1-.22-.3q0-.55,0-1.11c0-.18.07-.25.25-.18l2.9,1C166.36,98.51,166.42,98.59,166.36,98.72Z"/><path class="cls-1" d="M253.39,110.51l-10.35,2-1.93.36a56.86,56.86,0,0,1-26.67,6.62,57.84,57.84,0,0,1-6.56-.38l-5.29,1-7.35,1.38,1.07.32h0l.19.06h0a62.2,62.2,0,0,0,57.17-11.37Z"/><path class="cls-1" d="M259.35,95.09l2.08-.28a57.17,57.17,0,0,0,5.58-10q0-3.19,0-6.37,0-7.6,0-15.21c0-.48-.06-.52-.53-.55-1-.07-2-.06-3.05-.1-1.41-.06-2.82-.08-4.23-.13l-4.07-.12L251,62.18l-4-.12-4.32-.13-3.95-.12c-1.44,0-2.88-.07-4.32-.13-.45,0-.45,0-.46.44,0,5.58,0,11.17,0,16.75-.07,6.37,0,12.73,0,19.1,0,.08,0,.17,0,.25s.06.29.29.26c.61-.1,1.22-.17,1.83-.25L245,97l6.64-.9Z"/><path class="cls-1" d="M274.09,59.72c0,.83.06,1.66.06,2.5s0,1.67-.06,2.5H423.87V438.78H5V64.72H155.27v-5H0V443.78H428.87V59.72Z"/><path class="cls-1" d="M273.06,73.61c-.33,1.69-.73,3.36-1.2,5H413V424.89H15.84V78.61H155.27v-5H10.84V429.89H418V73.61Z"/><path class="cls-1" d="M255.45,98.33l3.71-.48q.73-.91,1.42-1.85l-4.2.56-6.64.9-8.14,1.08-7.19,1-8.94,1.19-6.79.91-6.64.89-5.72.78-6.3.84-5.69.77-6.79.91a2.47,2.47,0,0,1-1.24-.11c-2.14-.79-4.28-1.55-6.42-2.32-.21-.08-.28,0-.28.21s0,.68,0,1a.46.46,0,0,0,.37.51q3,1.07,5.92,2.16a1.42,1.42,0,0,0,.7.07l5.85-.78,9.28-1.2,7.38-1,6.4-.83,6.34-.84,6.43-.84,5-.65,6-.78,4.87-.64,6-.77Z"/><path class="cls-1" d="M254.58,100q0,1.49,0,3,1.45-1.43,2.8-3c-.8-.11-1.59-.22-2.39-.35C254.58,99.55,254.58,99.52,254.58,100Z"/><path class="cls-1" d="M252.06,105.28l-6.65,1.12-6.67,1.13c-.21,0-.3,0-.3-.25q0-1.22,0-2.44c0-.23.09-.32.31-.36l2.65-.42c2.6-.41,5.2-.82,7.81-1.21.3,0,.36-.17.37-.44a15,15,0,0,0-.13-1.8c0-.4,0-.4-.39-.37l-.15,0-5,.66-9.67,1.25-8.42,1.11a3,3,0,0,0-.83.15l2.56.33a4.94,4.94,0,0,0,1.29.11l5.26-.76,3.91-.57c.23,0,.36,0,.35.29a.86.86,0,0,0,.07.42c.12.26,0,.31-.23.34l-8.25,1.2a6.26,6.26,0,0,1-1.78.14c-1.74-.24-3.49-.45-5.23-.68a1.67,1.67,0,0,1-1-.26.56.56,0,0,0-.51-.14l-4.47.59-6,.78-4.87.64-6,.77-5.39.71-6.95.91a3.94,3.94,0,0,1-2.59-.13,3.55,3.55,0,0,0-.52-.2l-7.26-2.65-8.56-3.14L162,99.67l-4.21-1.53v.74c1,.33,2,.77,3,1.17l12.12,4.9,10.43,4.22,2.09.85a1.2,1.2,0,0,0,.66.07L197,108.52l1.83-.28c.33,0,.38,0,.4.32a2.1,2.1,0,0,0,0,.28c.07.41.07.41-.32.47l-8.31,1.2-4.43.65a1.84,1.84,0,0,1-1-.1L170,104.92l-10-4c-.57-.23-1.15-.46-1.72-.7-.24-.1-.3,0-.3.21q0,2,0,4.08a.38.38,0,0,0,.24.39l2.56,1.24a1.72,1.72,0,0,0,1,0c1.77-.18,3.54-.39,5.31-.58a.6.6,0,0,1,.67.47.52.52,0,0,1-.45.57,14.57,14.57,0,0,1-1.47.18c-1.61.14-3.21.31-4.81.54a.66.66,0,0,1-.41-.08l-2.6-1.29-.12,0v1.42l.23.09,2.27,1.19a.74.74,0,0,0,.47.09c.87-.12,1.74-.23,2.61-.39s1.51-.16,2.27-.24l1.53-.19c.21,0,.28.05.27.25s0,.56,0,.83a.6.6,0,0,0,.43.68c1.54.73,3.08,1.49,4.61,2.24a1.21,1.21,0,0,0,.75.11l7.05-1.08.55-.07a.55.55,0,0,1,.64.41.54.54,0,0,1-.44.62,2.27,2.27,0,0,1-.33.07c-2.33.36-4.66.69-7,1-.63.07-1.33.44-1.9-.2l-4.22-2.05c-.2-.1-.25,0-.25.17,0,.37,0,.74,0,1.11a.42.42,0,0,0,.27.43q2.21,1.14,4.41,2.3a1.06,1.06,0,0,0,.74.11c.9-.18,1.81-.24,2.7-.49a10.93,10.93,0,0,1,1.79-.24c1.3-.15,2.58-.39,3.87-.59.35-.06.38,0,.38.31,0,.75,0,1.5,0,2.26a.37.37,0,0,0,.24.38l4.69,2.31a.76.76,0,0,0,.51.08l1.09-.2,9.91-1.81,16.11-2.92L229.8,111l12.28-2.22,7.36-1.33Q250.78,106.4,252.06,105.28Zm-29,4.9-2.68.45-8.58,1.45-8.67,1.46-3.47.58c-.33.06-.38,0-.38-.32s0-.95,0-1.42,0-1,0-1.45a.31.31,0,0,1,.3-.35l5.67-.88,4.78-.75,7-1.09,5.91-.91c.34-.05.38,0,.35.35,0,.54,0,1.09,0,1.63a4.87,4.87,0,0,0,0,1.11C223.31,110.19,223.13,110.17,223,110.18Z"/><path class="cls-1" d="M224.77,114.67l9.28-1.75,8.74-1.63,1.55-.29.77-.47-.09,0c.84-.53,1.66-1.09,2.47-1.67l-10.08,1.82-15.35,2.78-15,2.72-11.37,2.05c-2.86.52-5.72,1-8.57,1.56a1.65,1.65,0,0,1-1.1-.16l-4.21-2.08c-.32-.16-.34-.14-.34.21s0,.93,0,1.39a.48.48,0,0,0,.31.51c.87.43,1.73.88,2.59,1.32l1.74.93h.19a2.36,2.36,0,0,1,.32-.11l3.49-.65,12.26-2.3,9.13-1.71Z"/><path class="cls-1" d="M266.39,96.41c.48-.73.94-1.47,1.38-2.21l.42-.7c.33-.56.64-1.13.94-1.69s.47-.87.7-1.3.33-.67.5-1c.33-.68.66-1.37,1-2.06l0,0A62.18,62.18,0,0,0,214.43,0a62.51,62.51,0,0,0-49.56,24.63L179,17.38A57.46,57.46,0,0,1,213.84,5l.47.09a57.16,57.16,0,0,1,51.26,82.77l-.09.19q-.57,1.12-1.19,2.22l-.46.79c-.22.37-.44.74-.66,1.1A57.72,57.72,0,0,1,245,110.54l.09,0a57.53,57.53,0,0,1-36.66,8.64l4.42,2.35,5.32,2.83a62.07,62.07,0,0,0,45-23.52c1.09-1.38,2.09-2.79,3-4.23Z"/></svg>