<?xml version="1.0" encoding="utf-8"?>
<!-- Generator: Adobe Illustrator 19.2.1, SVG Export Plug-In . SVG Version: 6.00 Build 0)  -->
<svg version="1.1" xmlns="http://www.w3.org/2000/svg" xmlns:xlink="http://www.w3.org/1999/xlink" x="0px" y="0px"
	 viewBox="0 0 654.8 349.8" style="enable-background:new 0 0 654.8 349.8;" xml:space="preserve">
<style type="text/css">
	.st0{display:none;}
	.st1{fill:#FFFFFF;}
</style>
<g id="Bg" class="st0">
</g>
<g id="White">
</g>
<g id="Fdo">
</g>
<g id="Logo">
	<path class="st1" d="M142.2,84.2c-9.1,0-18-8.8-17.6-18.7c0.8-19.8,7.8-16.1,16.4-56.7c0.1-0.3,0.9-1.1,1.3-1
		c0.4-0.1,1.4,0.6,1.4,1c9,40.8,15.9,37.1,16.8,56.7C161,75.4,151.3,84.2,142.2,84.2 M175.8,98.3c4.5-8.4,12.3-28.2-10.8-58.6
		C146,14.5,145.4,1.4,142.3,0.1V0c-0.1,0-0.3,0-0.4,0c-0.1,0-0.2,0-0.4,0v0.1c-3,1.3-3,14.5-22.1,39.6
		C96.3,70.1,104,89.9,108.5,98.3c6,11.1,16.8,18.1,26.4,20.1v229.5c0,1,0.8,1.9,1.9,1.9h10.9c1,0,1.9-0.9,1.9-1.9V118.3
		C159.2,116.1,170,109.2,175.8,98.3"/>
	<path class="st1" d="M276,145.6c-40.8,9.1-37,15.9-56.7,16.9c-10,0.5-18.8-9.2-18.8-18.3c-0.1-9.1,8.7-18.1,18.7-17.7
		c19.8,0.8,16.1,7.7,56.7,16.3c0.3,0.1,1.1,0.9,1,1.3C277.1,144.5,276.3,145.5,276,145.6 M244.9,121.7
		c-30.4-23.1-50.2-15.4-58.6-10.8c-4.3,2.3-13.4,9.6-18,19.8c-1.9,4.2-6.2,15-5.2,30.8l0,186.8c0,0.9,0.8,1.6,1.9,1.6h8.6h2.3h58.9
		c1.4,0,2.5-1.2,2.5-2.6c0-1.4-1.4-2.4-2.5-2.5c-63.1-8.5-60.6-136.8-58.6-173c0.1-0.9,1-0.3,1.2,0c0,0,0,0,0,0
		c2.6,2.5,5.6,4.8,8.9,6.5c8.4,4.5,28.2,12.2,58.6-10.9c27-20.6,40.2-18.9,39.6-22.8C285.2,140.5,272,142.2,244.9,121.7"/>
	<path class="st1" d="M65.3,162.5c-19.6-1-15.9-7.8-56.7-16.9c-0.3-0.1-1.1-1-0.9-1.4c-0.1-0.4,0.6-1.2,1-1.3
		c40.6-8.6,36.9-15.5,56.7-16.3c10-0.4,18.8,8.6,18.7,17.7C84.1,153.3,75.2,163,65.3,162.5 M98.4,110.8
		c-8.4-4.5-28.2-12.3-58.6,10.8C12.6,142.2-0.6,140.6,0,144.5c-0.6,3.9,12.6,2.3,39.6,22.8c30.4,23.1,50.2,15.4,58.6,10.9
		c3.3-1.8,6.3-4,8.9-6.5c0,0,0,0,0,0c0.3-0.3,1.2-0.9,1.2,0c2,36.3,4.5,164.6-58.6,173c-1.1,0.1-2.6,1.2-2.6,2.5
		c0,1.4,1.2,2.6,2.6,2.6h58.9h2.3h8.6c1,0,1.9-0.7,1.9-1.6l0-186.8c1-15.8-3.3-26.5-5.2-30.8C111.8,120.5,102.6,113.1,98.4,110.8"/>
	<path class="st1" d="M385.2,322.6c-6.2,4.6-20.9,16.9-41.8,16.9c-46.4,0-49.3-54.3-49.3-81.2c0-24.8,5.3-65.8,38.2-65.8
		c21.9,0,26.9,17.6,28.1,25.5h28.8c-2.6-19.3-17.3-35.7-54.8-35.7c-53.6,0-66.8,37.4-66.8,81.9c0,54,19,85.6,68.2,85.6
		c23.8,0,43.2-6.5,49.3-8.9V322.6z"/>
	<path class="st1" d="M489,227.4c0,29.9-16.4,36.3-35.4,36.3h-11c0,0-1.6,0-1.6-1.6v-51.3c0-10.2,0.7-17.9,13.7-17.9
		C476.2,192.8,489,199.5,489,227.4 M515.5,228.4c0-29.4-19.3-46.1-48.9-46.1h-57.3c0,0-1.6,0-1.6,1c0,0,0,1,1.1,2.1
		c6.4,6.3,5.7,6,5.7,30.7v132.1c0,0,0,1.6,1.6,1.6h3h20.4h3c1.1,0,1.6-0.5,1.1-1.7c-0.7-1.6-2.1-7.7-2.6-12.4v-60.3h8.4
		C479.3,275.4,515.5,275.4,515.5,228.4"/>
	<path class="st1" d="M616.3,223.6c0.9,28.9-21.8,31.6-32.7,31.6h-14.8c0,0-1.3,0-1.3-1.3v-45.4c0-12.2,4.1-16,18.6-16
		C594.5,192.6,615.4,196.2,616.3,223.6 M574,337.3c0,0-2-0.6-2.9-1.4c-0.9-0.7-2.2-2-2.2-2c-1-1.4-1.6-3.2-1.6-5.6v-60.1
		c0,0,0-1.3,1.3-1.3h20.6c21.2,0,39,8.7,39,33.4c0,25.4-11.3,38.2-37.8,38.2C583.9,338.5,578.2,338.5,574,337.3 M639.5,221.9
		c-0.6-27.9-22.3-39.8-50-39.8l-46.4,0.2l-6.7-0.2c0,0-1.3,0-1.3,1c0,0,0,1,0.9,2c5.7,5.3,4.9,6.1,4.9,28.5c0,0.7,0,1.6,0,2.4v116.4
		c-0.2,8.5-3.8,16.2-3.8,16.2c0,1,1.3,1,1.3,1h3.8h44c0.1,0,0.1,0,0.2,0h6.6l-0.1,0c22.3-0.4,62-4.4,62-44.5
		c0-31.6-20-40.8-37.1-44.3v-0.2c0,0,0-0.2,1.3-0.7C631.9,253.7,639.9,241.3,639.5,221.9"/>
</g>
</svg>
