<?xml version="1.0" encoding="UTF-8"?>
<svg width="18px" height="18px" viewBox="0 0 18 18" version="1.1" xmlns="http://www.w3.org/2000/svg" xmlns:xlink="http://www.w3.org/1999/xlink">
    <title>arrow-down-dark</title>
    <g id="arrow-down-dark" stroke="none" stroke-width="1" fill="none" fill-rule="evenodd">
        <path d="M9.00382096,13 C9.194869,12.9975468 9.37127001,12.9613615 9.53302402,12.8914443 C9.69477802,12.8215271 9.85207424,12.7129715 10.0049127,12.5657774 L15.6522926,6.99448022 C15.8840975,6.77368905 16,6.50383318 16,6.1849126 C16,5.96657467 15.9452329,5.76724931 15.8356987,5.58693652 C15.7261645,5.40662374 15.5796943,5.26372278 15.3962882,5.15823367 C15.2128821,5.05274456 15.0090975,5 14.7849345,5 C14.4461426,5 14.1481077,5.125115 13.8908297,5.37534499 L8.6981441,10.5381785 L9.3209607,10.5381785 L4.11299127,5.37534499 C3.85316594,5.125115 3.55385735,5 3.2150655,5 C2.99090247,5 2.7871179,5.05274456 2.60371179,5.15823367 C2.42030568,5.26372278 2.27383552,5.40662374 2.16430131,5.58693652 C2.0547671,5.76724931 2,5.96657467 2,6.1849126 C2,6.34437289 2.02865721,6.4909537 2.08597162,6.62465501 C2.14328603,6.75835633 2.22925764,6.88285802 2.34388646,6.99816007 L7.9989083,12.5657774 C8.30203785,12.8552591 8.63700873,13 9.00382096,13 Z" id="Path" fill="#222428" fill-rule="nonzero"></path>
    </g>
</svg>