<?xml version="1.0" encoding="UTF-8"?>
<svg width="24px" height="24px" viewBox="0 0 24 24" version="1.1" xmlns="http://www.w3.org/2000/svg" xmlns:xlink="http://www.w3.org/1999/xlink">
    <title>ico-instagram</title>
    <g id="Home" stroke="none" stroke-width="1" fill="none" fill-rule="evenodd">
        <g id="Desktop-HD" transform="translate(-1264.000000, -2024.000000)" fill="#6E757C" fill-rule="nonzero">
            <path d="M1280.98387,2024 C1283.01613,2024 1284.80645,2024.67742 1286.06452,2025.98387 C1287.32258,2027.24194 1288,2028.98387 1288,2031.01613 L1288,2031.01613 L1288,2040.98387 C1288,2043.06452 1287.32258,2044.85484 1286.01613,2046.1129 C1284.75806,2047.32258 1283.01613,2048 1280.93548,2048 L1280.93548,2048 L1271.06452,2048 C1269.08065,2048 1267.33871,2047.37097 1266.03226,2046.1129 C1264.67742,2044.80645 1264,2043.01613 1264,2040.93548 L1264,2040.93548 L1264,2031.01613 C1264,2026.80645 1266.80645,2024 1271.01613,2024 L1271.01613,2024 Z M1281.03226,2026.22581 L1271.06452,2026.22581 C1269.6129,2026.22581 1268.35484,2026.66129 1267.53226,2027.48387 C1266.66129,2028.35484 1266.22581,2029.56452 1266.22581,2031.01613 L1266.22581,2031.01613 L1266.22581,2040.93548 C1266.22581,2042.43548 1266.66129,2043.64516 1267.53226,2044.51613 C1268.40323,2045.33871 1269.6129,2045.77419 1271.06452,2045.77419 L1271.06452,2045.77419 L1280.93548,2045.77419 C1282.3871,2045.77419 1283.59677,2045.33871 1284.46774,2044.51613 C1285.33871,2043.69355 1285.87097,2042.48387 1285.87097,2040.98387 L1285.87097,2040.98387 L1285.87097,2031.01613 C1285.87097,2029.6129 1285.3871,2028.40323 1284.56452,2027.53226 C1283.69355,2026.66129 1282.48387,2026.22581 1281.03226,2026.22581 L1281.03226,2026.22581 Z M1276,2029.75806 C1279.3871,2029.75806 1282.19355,2032.56452 1282.19355,2035.95161 C1282.19355,2039.33871 1279.43548,2042.14516 1276,2042.14516 C1272.56452,2042.14516 1269.80645,2039.3871 1269.80645,2035.95161 C1269.80645,2032.51613 1272.6129,2029.75806 1276,2029.75806 Z M1276,2031.98387 C1273.82258,2031.98387 1272.03226,2033.77419 1272.03226,2035.95161 C1272.03226,2038.12903 1273.82258,2039.91935 1276,2039.91935 C1278.17742,2039.91935 1279.96774,2038.12903 1279.96774,2035.95161 C1279.96774,2033.77419 1278.17742,2031.98387 1276,2031.98387 Z M1282.43548,2028.20968 C1283.21046,2028.20968 1283.83871,2028.83792 1283.83871,2029.6129 C1283.83871,2030.38788 1283.21046,2031.01613 1282.43548,2031.01613 C1281.6605,2031.01613 1281.03226,2030.38788 1281.03226,2029.6129 C1281.03226,2028.83792 1281.6605,2028.20968 1282.43548,2028.20968 Z" id="ico-instagram"></path>
        </g>
    </g>
</svg>