<?xml version="1.0" encoding="UTF-8"?>
<svg width="24px" height="20px" viewBox="0 0 24 20" version="1.1" xmlns="http://www.w3.org/2000/svg" xmlns:xlink="http://www.w3.org/1999/xlink">
    <title>ico-twitter</title>
    <g id="Home" stroke="none" stroke-width="1" fill="none" fill-rule="evenodd">
        <g id="Desktop-HD" transform="translate(-1384.000000, -2026.000000)" fill="#6E757C" fill-rule="nonzero">
            <path d="M1408,2028.30875 C1407.11772,2028.70093 1406.1682,2028.96547 1405.17191,2029.08386 C1406.18915,2028.47488 1406.96912,2027.51026 1407.33695,2026.35954 C1406.38548,2026.92418 1405.3322,2027.3339 1404.21022,2027.55508 C1403.31234,2026.59826 1402.03252,2026 1400.61628,2026 C1397.89733,2026 1395.69283,2028.20449 1395.69283,2030.92394 C1395.69283,2031.3093 1395.73619,2031.68492 1395.82047,2032.04592 C1391.72815,2031.84033 1388.09963,2029.8804 1385.67103,2026.90128 C1385.24718,2027.62816 1385.00457,2028.47391 1385.00457,2029.37714 C1385.00457,2031.0852 1385.8737,2032.59253 1387.19493,2033.47531 C1386.38816,2033.44949 1385.62865,2033.22782 1384.96462,2032.85902 C1384.96413,2032.87948 1384.96413,2032.90043 1384.96413,2032.92138 C1384.96413,2035.30662 1386.66147,2037.29627 1388.9142,2037.74935 C1388.50107,2037.8614 1388.06601,2037.92181 1387.61683,2037.92181 C1387.29919,2037.92181 1386.9908,2037.89112 1386.69021,2037.83314 C1387.31722,2039.78917 1389.13538,2041.2132 1391.28969,2041.25266 C1389.60453,2042.57341 1387.48188,2043.3607 1385.17459,2043.3607 C1384.77754,2043.3607 1384.38536,2043.33731 1384,2043.29152 C1386.17965,2044.68924 1388.76755,2045.50381 1391.5479,2045.50381 C1400.60508,2045.50381 1405.55727,2038.00122 1405.55727,2031.49443 C1405.55727,2031.28104 1405.55289,2031.06814 1405.54363,2030.85671 C1406.50533,2030.16394 1407.34036,2029.29627 1408,2028.30875 Z" id="ico-twitter"></path>
        </g>
    </g>
</svg>