<?xml version="1.0" encoding="UTF-8"?>
<svg width="24px" height="24px" viewBox="0 0 24 24" version="1.1" xmlns="http://www.w3.org/2000/svg" xmlns:xlink="http://www.w3.org/1999/xlink">
    <title>ico-link</title>
    <g id="ico-link" stroke="none" stroke-width="1" fill="none" fill-rule="evenodd">
        <path d="M13.4761085,8.33454391 L11.6017927,10.198621 C11.8590517,10.2460128 12.1281237,10.3328978 12.4090085,10.4592759 C12.6898934,10.585654 12.9117137,10.7330951 13.0744694,10.9015992 C13.4629831,11.2859993 13.7228672,11.7085761 13.8541218,12.1693296 C13.9853764,12.6300832 13.9880015,13.0895203 13.8619971,13.5476409 C13.7359927,14.0057615 13.4813587,14.4270219 13.0980952,14.811422 L10.2866214,17.6233349 C9.90335798,18.007735 9.48334322,18.2631241 9.02657717,18.3895022 C8.56981112,18.5158803 8.11304506,18.5145639 7.65627901,18.3855529 C7.19951296,18.2565419 6.7794982,17.9972035 6.39623473,17.6075376 C6.00772108,17.2231376 5.74783695,16.8005608 5.61658233,16.3398072 C5.48532772,15.8790537 5.48270263,15.4209331 5.60870706,14.9654453 C5.73471149,14.5099575 5.98934543,14.0873807 6.3726089,13.6977149 L6.85300078,13.223797 C6.65874396,12.7709421 6.5261768,12.2601639 6.45529931,11.6914624 C6.38442182,11.1227609 6.44348639,10.5777553 6.63249304,10.0564456 L4.60854691,12.0547995 C3.88927163,12.7604106 3.41150485,13.5463245 3.17524654,14.4125411 C2.93898824,15.2787577 2.94161333,16.1462908 3.18312182,17.0151403 C3.42463031,17.8839898 3.9023971,18.6738529 4.61642219,19.3847298 C5.33044728,20.1061382 6.1192875,20.5853218 6.98294285,20.8222808 C7.8465982,21.0592397 8.708941,21.0592397 9.56997126,20.8222808 C10.4310015,20.5853218 11.2159041,20.1114039 11.924679,19.4005271 L14.8700325,16.4543374 C15.5788074,15.7434605 16.051324,14.9549138 16.2875823,14.0886972 C16.5238406,13.2224806 16.5225281,12.3562639 16.2836447,11.4900473 C16.0447613,10.6238307 15.5683071,9.83528395 14.854282,9.12440709 C14.7072768,8.97170021 14.5025196,8.82030976 14.2400104,8.67023576 C13.9775011,8.52016175 13.7228672,8.40826447 13.4761085,8.33454391 Z M10.5228797,15.6644742 L12.3971956,13.8003971 C12.1399366,13.7530053 11.8721772,13.6661204 11.5939174,13.5397423 C11.3156576,13.4133642 11.0925248,13.2685559 10.9245189,13.1053175 C10.5360052,12.7156517 10.2761211,12.290442 10.1448665,11.8296885 C10.0136119,11.368935 10.0122993,10.9108143 10.1409288,10.4553265 C10.2695583,9.99983878 10.5255048,9.57989485 10.9087683,9.19549477 L13.7202421,6.38358185 C14.1035056,5.99391602 14.5235203,5.73589404 14.9802864,5.60951594 C15.4370524,5.48313783 15.8925059,5.4857707 16.3466469,5.61741457 C16.8007879,5.74905843 17.2221152,6.0070804 17.6106288,6.39148048 C17.9938923,6.78114632 18.2511513,7.20503956 18.3824059,7.6631602 C18.5136606,8.12128085 18.5162856,8.57940149 18.3902812,9.03752214 C18.2642768,9.49564278 18.0096428,9.91690314 17.6263794,10.3013032 L17.1538628,10.7752211 C17.3481196,11.228076 17.4806868,11.7388542 17.5515642,12.3075557 C17.6224417,12.8762572 17.5633772,13.4238957 17.3743705,13.9504711 L19.3983166,11.9442186 C20.1175919,11.2386075 20.5940462,10.4526937 20.8276794,9.58647705 C21.0613126,8.72026043 21.0573749,7.85404381 20.8158665,6.98782719 C20.574358,6.12161056 20.0992163,5.33043095 19.3904414,4.61428833 C18.6711661,3.89814571 17.8810133,3.42027849 17.0199831,3.18068666 C16.1589528,2.94109483 15.2979225,2.93977839 14.4368923,3.17673734 C13.575862,3.4136963 12.7883344,3.89024708 12.0743093,4.6063897 L9.13683104,7.54468073 C8.42280595,8.26082334 7.9489768,9.05068652 7.71534359,9.91427027 C7.48171038,10.777854 7.48302292,11.6427542 7.71928123,12.5089708 C7.95553953,13.3751874 8.43068123,14.1637342 9.14470632,14.874611 C9.29696167,15.0273179 9.50434396,15.1800248 9.76685318,15.3327317 C10.0293624,15.4854386 10.2813713,15.5960194 10.5228797,15.6644742 Z" id="Shape" fill="#6E757C" fill-rule="nonzero"></path>
    </g>
</svg>