<?xml version="1.0" encoding="UTF-8"?>
<svg width="24px" height="24px" viewBox="0 0 24 24" version="1.1" xmlns="http://www.w3.org/2000/svg" xmlns:xlink="http://www.w3.org/1999/xlink">
    <title>ico-facebook</title>
    <g id="Home" stroke="none" stroke-width="1" fill="none" fill-rule="evenodd">
        <g id="Desktop-HD" transform="translate(-1344.000000, -2024.000000)" fill="#6E757C">
            <path d="M1368,2036 C1368,2029.37258 1362.62742,2024 1356,2024 C1349.37258,2024 1344,2029.37258 1344,2036 C1344,2041.98955 1348.38825,2046.95398 1354.125,2047.85422 L1354.125,2039.46875 L1351.07812,2039.46875 L1351.07812,2036 L1354.125,2036 L1354.125,2033.35625 C1354.125,2030.34875 1355.91652,2028.6875 1358.65758,2028.6875 C1359.9705,2028.6875 1361.34375,2028.92188 1361.34375,2028.92188 L1361.34375,2031.875 L1359.83058,2031.875 C1358.33991,2031.875 1357.875,2032.79998 1357.875,2033.74897 L1357.875,2036 L1361.20312,2036 L1360.67109,2039.46875 L1357.875,2039.46875 L1357.875,2047.85422 C1363.6118,2046.95398 1368,2041.98955 1368,2036 Z" id="ico-facebook"></path>
        </g>
    </g>
</svg>