<?xml version="1.0" encoding="UTF-8"?>
<svg width="24px" height="18px" viewBox="0 0 24 18" version="1.1" xmlns="http://www.w3.org/2000/svg" xmlns:xlink="http://www.w3.org/1999/xlink">
    <title>ico-youtube</title>
    <g id="Home" stroke="none" stroke-width="1" fill="none" fill-rule="evenodd">
        <g id="Desktop-HD" transform="translate(-1304.000000, -2027.000000)" fill="#6E757C" fill-rule="nonzero">
            <path d="M1327.84421,2030.97555 C1327.84421,2028.86588 1326.29243,2027.16877 1324.37498,2027.16877 C1321.77775,2027.04688 1319.12894,2027 1316.42388,2027 C1316.28324,2027 1316.14259,2027 1316.00195,2027 C1315.86131,2027 1315.72066,2027 1315.58002,2027 C1312.87964,2027 1310.22615,2027.04688 1307.62892,2027.16877 C1305.71615,2027.16877 1304.16438,2028.87526 1304.16438,2030.98493 C1304.04717,2032.65391 1303.9956,2034.32289 1304.00029,2035.99187 C1303.9956,2037.66085 1304.04717,2039.32983 1304.15969,2041.0035 C1304.15969,2043.11316 1305.71147,2044.82434 1307.62423,2044.82434 C1310.35273,2044.95092 1313.15156,2045.00717 1315.99726,2045.00249 C1318.84765,2045.01186 1321.6371,2044.9556 1324.37029,2044.82434 C1326.28774,2044.82434 1327.83952,2043.11316 1327.83952,2041.0035 C1327.95204,2039.32983 1328.00361,2037.66085 1327.99892,2035.98718 C1328.00829,2034.3182 1327.95672,2032.64922 1327.84421,2030.97555 Z M1313.70476,2040.59094 L1313.70476,2031.37873 L1320.50257,2035.98249 L1313.70476,2040.59094 Z" id="ico-youtube"></path>
        </g>
    </g>
</svg>