<?xml version="1.0" encoding="UTF-8"?>
<svg width="24px" height="18px" viewBox="0 0 24 18" version="1.1" xmlns="http://www.w3.org/2000/svg" xmlns:xlink="http://www.w3.org/1999/xlink">
    <title>ico-youtube-white</title>
    <g id="Home" stroke="none" stroke-width="1" fill="none" fill-rule="evenodd">
        <g id="Desktop-HD" transform="translate(-1342.000000, -1080.000000)" fill="#FFFFFF" fill-rule="nonzero">
            <path d="M1365.84421,1083.97555 C1365.84421,1081.86588 1364.29243,1080.16877 1362.37498,1080.16877 C1359.77775,1080.04688 1357.12894,1080 1354.42388,1080 C1354.28324,1080 1354.14259,1080 1354.00195,1080 C1353.86131,1080 1353.72066,1080 1353.58002,1080 C1350.87964,1080 1348.22615,1080.04688 1345.62892,1080.16877 C1343.71615,1080.16877 1342.16438,1081.87526 1342.16438,1083.98493 C1342.04717,1085.65391 1341.9956,1087.32289 1342.00029,1088.99187 C1341.9956,1090.66085 1342.04717,1092.32983 1342.15969,1094.0035 C1342.15969,1096.11316 1343.71147,1097.82434 1345.62423,1097.82434 C1348.35273,1097.95092 1351.15156,1098.00717 1353.99726,1098.00249 C1356.84765,1098.01186 1359.6371,1097.9556 1362.37029,1097.82434 C1364.28774,1097.82434 1365.83952,1096.11316 1365.83952,1094.0035 C1365.95204,1092.32983 1366.00361,1090.66085 1365.99892,1088.98718 C1366.00829,1087.3182 1365.95672,1085.64922 1365.84421,1083.97555 Z M1351.70476,1093.59094 L1351.70476,1084.37873 L1358.50257,1088.98249 L1351.70476,1093.59094 Z" id="ico-youtube-white"></path>
        </g>
    </g>
</svg>