<?xml version="1.0" encoding="UTF-8"?>
<svg width="302px" height="52px" viewBox="0 0 302 52" version="1.1" xmlns="http://www.w3.org/2000/svg" xmlns:xlink="http://www.w3.org/1999/xlink">
    <title>logo-novo-hasd-full</title>
    <g id="Home" stroke="none" stroke-width="1" fill="none" fill-rule="evenodd">
        <g id="Desktop-HD" transform="translate(-125.000000, -10.000000)" fill="#222428">
            <path d="M186.341151,15.5012574 L188.963485,15.5012574 L188.963485,20.6739321 L193.596356,20.6739321 L193.596356,15.5012574 L196.21869,15.5012574 L196.21869,29.2560164 L193.596356,29.2560164 L193.596356,23.240884 L188.963485,23.240884 L188.963485,29.2560164 L186.341151,29.2560164 L186.341151,15.5012574 Z M202.017124,29.2560972 L204.639458,29.2560972 L204.639458,15.5013382 L202.017124,15.5013382 L202.017124,29.2560972 Z M210.439506,15.5012574 L212.947229,15.5012574 L218.843244,24.5429376 L218.843244,15.5012574 L221.465578,15.5012574 L221.465578,29.2560164 L218.939291,29.2560164 L213.06184,20.2329139 L213.06184,29.2560164 L210.439506,29.2560164 L210.439506,15.5012574 Z M233.44728,10.8077256 L236.452997,10.8077256 L233.045335,14.4667225 L231.207521,14.4667225 L233.44728,10.8077256 Z M234.308478,15.501419 L239.611259,29.2561779 L236.892877,29.2561779 L235.821022,26.4210611 L230.212342,26.4210611 L229.08318,29.2561779 L226.364799,29.2561779 L231.666773,15.501419 L234.308478,15.501419 Z M233.0074,19.1410304 L231.188958,23.8541092 L234.825842,23.8541092 L233.0074,19.1410304 Z M247.304892,20.8842638 L248.51073,20.8842638 C249.698004,20.8842638 250.310609,20.4052825 250.310609,19.4667054 C250.310609,18.5660914 249.678633,18.0685324 248.434054,18.0685324 L247.304892,18.0685324 L247.304892,20.8842638 Z M244.682558,15.5015805 L247.879562,15.5015805 C249.621328,15.5015805 250.846536,15.7115892 251.765039,16.6122032 C252.45432,17.2826154 252.875637,18.3173119 252.875637,19.4860908 C252.875637,21.2865111 251.975698,22.5126386 250.233932,23.1450877 L253.488242,29.2563395 L250.635878,29.2563395 L247.554292,23.4318303 L247.304892,23.4318303 L247.304892,29.2563395 L244.682558,29.2563395 L244.682558,15.5015805 Z M258.291173,29.2560972 L260.914314,29.2560972 L260.914314,15.5013382 L258.291173,15.5013382 L258.291173,29.2560972 Z M268.685108,22.4167615 C268.685108,25.2139152 270.790885,27.0716841 273.221932,27.0716841 C275.710284,27.0716841 277.70145,25.0224843 277.70145,22.3973761 C277.70145,19.8691951 275.806331,17.6657197 273.183997,17.6657197 C270.714209,17.6657197 268.685108,19.5816447 268.685108,22.4167615 M280.343155,22.4167615 C280.343155,26.4594281 277.184893,29.5812875 273.241303,29.5812875 C269.163731,29.5812875 266.043403,26.3633088 266.043403,22.359413 C266.043403,18.2787834 269.297713,15.1561163 273.202561,15.1561163 C276.992798,15.1561163 280.343155,18.2214349 280.343155,22.4167615 M299.425822,19.1411112 L297.60738,23.85419 L301.244265,23.85419 L299.425822,19.1411112 Z M298.085195,15.5014997 L300.727708,15.5014997 L306.029681,29.2562587 L303.312107,29.2562587 L302.239444,26.4211419 L296.630764,26.4211419 L295.501603,29.2562587 L292.783221,29.2562587 L298.085195,15.5014997 Z M313.570607,18.0682901 L313.570607,26.6891453 L314.949169,26.6891453 C316.385036,26.6891453 317.399587,26.4977143 318.203479,25.6350634 C318.835454,24.9452657 319.218029,23.834643 319.218029,22.4938186 C319.218029,19.6199309 317.628809,18.0682901 314.642463,18.0682901 L313.570607,18.0682901 Z M310.948273,15.5013382 L314.259888,15.5013382 C316.671564,15.5013382 318.375395,15.7888885 319.868568,17.24441 C321.113148,18.451152 321.859734,20.3670771 321.859734,22.5511671 C321.859734,24.9073026 320.979166,26.8611908 319.504557,28.0105843 C317.935515,29.2367117 316.30836,29.2560972 314.297823,29.2560972 L310.948273,29.2560972 L310.948273,15.5013382 Z M326.145624,15.5012574 L328.844635,15.5012574 L332.290232,25.2715061 L335.812505,15.5012574 L338.492952,15.5012574 L333.534811,29.2560164 L331.027088,29.2560164 L326.145624,15.5012574 Z M343.487574,15.5012574 L350.991373,15.5012574 L350.991373,18.0682093 L346.109909,18.0682093 L346.109909,20.5204642 L350.991373,20.5204642 L350.991373,23.0874161 L346.109909,23.0874161 L346.109909,26.6890645 L350.991373,26.6890645 L350.991373,29.2560164 L343.487574,29.2560164 L343.487574,15.5012574 Z M356.29262,15.5012574 L358.800344,15.5012574 L364.696358,24.5429376 L364.696358,15.5012574 L367.318692,15.5012574 L367.318692,29.2560164 L364.792405,29.2560164 L358.914955,20.2329139 L358.914955,29.2560164 L356.29262,29.2560164 L356.29262,15.5012574 Z M371.968674,15.5012574 L379.56852,15.5012574 L379.56852,18.0682093 L377.041426,18.0682093 L377.041426,29.2560164 L374.419092,29.2560164 L374.419092,18.0682093 L371.968674,18.0682093 L371.968674,15.5012574 Z M384.046989,29.2560972 L386.669323,29.2560972 L386.669323,15.5013382 L384.046989,15.5013382 L384.046989,29.2560972 Z M393.483357,25.2905684 C394.115332,26.477925 394.842547,27.0909887 395.76105,27.0909887 C396.642426,27.0909887 397.35027,26.5166958 397.35027,25.8075128 C397.35027,25.3099538 397.025001,24.7348532 396.469702,24.2752573 C393.617339,21.880351 391.932878,20.5774896 391.932878,18.6236014 C391.932878,16.6697132 393.636709,15.1560355 395.703745,15.1560355 C397.445511,15.1560355 398.594043,16.0954204 399.68527,17.3595109 L397.732846,19.084005 C397.082307,18.1640056 396.412397,17.6664466 395.66581,17.6664466 C394.976529,17.6664466 394.497907,18.068694 394.497907,18.6236014 C394.497907,19.1599312 394.899853,19.50483 395.301799,19.8497289 C397.866828,22.1105528 399.915299,23.1832124 399.915299,25.6928157 C399.915299,27.9916028 398.192904,29.6005921 395.703745,29.6005921 C393.694015,29.6005921 392.29689,28.6240519 391.281532,26.6120075 L393.483357,25.2905684 Z M403.934032,15.5012574 L411.533878,15.5012574 L411.533878,18.0682093 L409.006784,18.0682093 L409.006784,29.2560164 L406.38445,29.2560164 L406.38445,18.0682093 L403.934032,18.0682093 L403.934032,15.5012574 Z M420.396141,19.1411112 L418.577699,23.85419 L422.214583,23.85419 L420.396141,19.1411112 Z M419.056321,15.5014997 L421.698026,15.5014997 L427,29.2562587 L424.282426,29.2562587 L423.209763,26.4211419 L417.601083,26.4211419 L416.471921,29.2562587 L413.75354,29.2562587 L419.056321,15.5014997 Z M188.963646,44.7848638 L188.963646,53.405719 L190.342208,53.405719 C191.777268,53.405719 192.791819,53.214288 193.596518,52.3516371 C194.227686,51.6618395 194.611068,50.5512168 194.611068,49.2103923 C194.611068,46.3365047 193.021848,44.7848638 190.035502,44.7848638 L188.963646,44.7848638 Z M186.341312,42.2179119 L189.652927,42.2179119 C192.064603,42.2179119 193.768434,42.5054622 195.261607,43.9609837 C196.506187,45.1677258 197.252773,47.0836509 197.252773,49.2677408 C197.252773,51.6238764 196.372205,53.5777646 194.897596,54.7271581 C193.328554,55.9532855 191.701399,55.9726709 189.690862,55.9726709 L186.341312,55.9726709 L186.341312,42.2179119 Z M204.563508,49.1333353 C204.563508,51.930489 206.669285,53.7882578 209.100332,53.7882578 C211.588684,53.7882578 213.57985,51.739058 213.57985,49.1139499 C213.57985,46.5857688 211.684732,44.3822934 209.062397,44.3822934 C206.592609,44.3822934 204.563508,46.2982185 204.563508,49.1333353 M216.221555,49.1333353 C216.221555,53.1760019 213.063293,56.2978612 209.119703,56.2978612 C205.042131,56.2978612 201.921803,53.0798825 201.921803,49.0759868 C201.921803,44.9953571 205.176113,41.87269 209.080961,41.87269 C212.871199,41.87269 216.221555,44.9380086 216.221555,49.1333353 M230.786447,52.0071422 C231.417615,53.1944988 232.145637,53.8075625 233.06414,53.8075625 C233.944709,53.8075625 234.65336,53.2332696 234.65336,52.5240865 C234.65336,52.0265276 234.328091,51.451427 233.772792,50.9918311 C230.920429,48.5969247 229.235968,47.2940634 229.235968,45.3401752 C229.235968,43.386287 230.9398,41.8726092 233.006835,41.8726092 C234.748601,41.8726092 235.897133,42.8111864 236.98836,44.0760846 L235.035936,45.8005788 C234.385397,44.8805793 233.715487,44.3830204 232.9689,44.3830204 C232.279619,44.3830204 231.800997,44.7852677 231.800997,45.3401752 C231.800997,45.876505 232.202943,46.2214038 232.604889,46.5663026 C235.169918,48.8271265 237.218389,49.8997861 237.218389,52.4093895 C237.218389,54.7081765 235.495994,56.3171659 233.006835,56.3171659 C230.997105,56.3171659 229.59998,55.3406256 228.584622,53.3285812 L230.786447,52.0071422 Z M246.845883,37.5242993 L249.850792,37.5242993 L246.443937,41.1832962 L244.606124,41.1832962 L246.845883,37.5242993 Z M242.615765,42.2179927 L250.119563,42.2179927 L250.119563,44.7849446 L245.238099,44.7849446 L245.238099,47.2371995 L250.119563,47.2371995 L250.119563,49.8041514 L245.238099,49.8041514 L245.238099,53.4057998 L250.119563,53.4057998 L250.119563,55.9727517 L242.615765,55.9727517 L242.615765,42.2179927 Z M254.061378,42.2178312 L261.661224,42.2178312 L261.661224,44.7847831 L259.13413,44.7847831 L259.13413,55.9725901 L256.511795,55.9725901 L256.511795,44.7847831 L254.061378,44.7847831 L254.061378,42.2178312 Z M266.139612,55.9724286 L268.761946,55.9724286 L268.761946,42.2176696 L266.139612,42.2176696 L266.139612,55.9724286 Z M275.882201,42.2178312 L278.447229,42.2178312 L281.624862,51.8152266 L284.841237,42.2178312 L287.367524,42.2178312 L289.68396,55.9725901 L287.156866,55.9725901 L285.683064,47.275001 L282.754831,55.9725901 L280.457766,55.9725901 L277.566661,47.275001 L276.054117,55.9725901 L273.50846,55.9725901 L275.882201,42.2178312 Z M296.631087,49.1333353 C296.631087,51.930489 298.736864,53.7882578 301.167911,53.7882578 C303.656263,53.7882578 305.647429,51.739058 305.647429,49.1139499 C305.647429,46.5857688 303.752311,44.3822934 301.129169,44.3822934 C298.660188,44.3822934 296.631087,46.2982185 296.631087,49.1333353 M308.289134,49.1333353 C308.289134,53.1760019 305.130872,56.2978612 301.186475,56.2978612 C297.10971,56.2978612 293.989382,53.0798825 293.989382,49.0759868 C293.989382,44.9953571 297.243692,41.87269 301.14854,41.87269 C304.938778,41.87269 308.289134,44.9380086 308.289134,49.1333353 M324.48118,44.7848638 L324.48118,53.405719 L325.859742,53.405719 C327.295609,53.405719 328.31016,53.214288 329.114051,52.3516371 C329.746027,51.6618395 330.128602,50.5512168 330.128602,49.2103923 C330.128602,46.3365047 328.539382,44.7848638 325.553036,44.7848638 L324.48118,44.7848638 Z M321.858846,42.2179119 L325.170461,42.2179119 C327.582137,42.2179119 329.285968,42.5054622 330.779141,43.9609837 C332.023721,45.1677258 332.770307,47.0836509 332.770307,49.2677408 C332.770307,51.6238764 331.889739,53.5777646 330.41513,54.7271581 C328.846087,55.9532855 327.218933,55.9726709 325.208396,55.9726709 L321.858846,55.9726709 L321.858846,42.2179119 Z M337.917637,55.9724286 L340.539971,55.9724286 L340.539971,42.2176696 L337.917637,42.2176696 L337.917637,55.9724286 Z M351.872183,45.857685 L350.053741,50.5707638 L353.690626,50.5707638 L351.872183,45.857685 Z M350.532364,42.2180735 L353.174069,42.2180735 L358.476043,55.9728325 L355.758468,55.9728325 L354.685805,53.1377157 L349.077125,53.1377157 L347.947964,55.9728325 L345.229582,55.9728325 L350.532364,42.2180735 Z M153.281822,57.2164068 L151.473872,57.2164068 L151.473872,28.6721923 L151.456923,28.6721923 C151.425445,26.8636948 150.933101,25.0826598 149.999263,23.4760937 C148.558553,20.9979916 146.238889,19.2290725 143.468852,18.4964654 C137.750404,16.9835954 131.86811,20.4091596 130.356374,26.1318954 C130.079532,27.1795155 129.968956,28.2327896 130.006891,29.2642552 L130.006891,57.2164068 L128.35068,57.2164068 L128.35068,31.3239554 C128.35068,27.5187602 129.355545,23.7652594 131.25712,20.469739 C133.158696,17.1742186 135.903712,14.4263362 139.196764,12.5233347 L140.816654,11.5879885 L142.435738,12.5233347 C145.728789,14.4263362 148.474613,17.1742186 150.375381,20.469739 C152.276957,23.7652594 153.281822,27.5187602 153.281822,31.3239554 L153.281822,57.2164068 Z M135.115963,38.0248469 L135.115963,57.2164068 L131.037583,57.2164068 L131.037583,33.4676591 C131.918152,35.3246203 133.323348,36.9223015 135.115963,38.0248469 L135.115963,38.0248469 Z M131.11426,27.6019559 L132.322519,28.8111211 L131.100539,30.0340177 C131.068254,29.77393 131.047269,29.5114192 131.037583,29.2464852 L131.037583,28.6721923 L131.032741,28.6721923 C131.040005,28.3167931 131.06664,27.9597784 131.11426,27.6019559 L131.11426,27.6019559 Z M133.030364,22.9736883 L133.462173,24.6133713 L131.816455,25.0479276 C132.137689,24.2967428 132.547706,23.6020988 133.030364,22.9736883 L133.030364,22.9736883 Z M136.448519,21.6272098 L134.8028,21.1983075 C135.44204,20.7055949 136.139392,20.2936548 136.878714,19.9729878 L136.448519,21.6272098 Z M138.457441,19.4431198 L140.290412,21.2766569 L140.290412,26.2296302 C140.089439,26.2579006 139.896537,26.3079796 139.712514,26.3782517 L137.18542,22.0690357 L137.822238,19.6200117 C138.031282,19.5537782 138.243554,19.4948142 138.457441,19.4431198 L138.457441,19.4431198 Z M140.702043,20.5222412 L139.4389,19.2581507 C139.863445,19.1999944 140.294447,19.1701086 140.729485,19.1701086 C141.141117,19.1701086 141.555977,19.1967635 141.972451,19.2508811 L140.702043,20.5222412 Z M143.486609,19.5731636 L144.140376,22.0795361 L141.620546,26.3814826 C141.458315,26.3192877 141.289627,26.2716319 141.114482,26.2417461 L141.114482,21.2766569 L142.957138,19.4326194 C143.040271,19.4520048 143.122597,19.4713902 143.205731,19.4931988 C143.300164,19.5182383 143.39379,19.5448932 143.486609,19.5731636 L143.486609,19.5731636 Z M144.87647,21.6369025 L144.424483,19.9035234 C145.221917,20.2306523 145.964468,20.6587468 146.639221,21.1773066 L144.87647,21.6369025 Z M147.883801,24.6828357 L148.366459,22.8961467 C148.636037,23.242661 148.883823,23.6093684 149.108202,23.9946535 C149.330967,24.3767077 149.524676,24.77007 149.690943,25.1715097 L147.883801,24.6828357 Z M146.3648,38.0086924 C148.163064,36.8980697 149.566647,35.3141198 150.443179,33.4305038 L150.443179,57.2164068 L146.3648,57.2164068 L146.3648,38.0086924 Z M141.255728,39.6015272 C142.660924,39.5336783 144.042715,39.1863563 145.334107,38.5692539 L145.334107,57.2164068 L141.255728,57.2164068 L141.255728,39.6015272 Z M137.986083,39.2542052 C138.72702,39.4496748 139.476834,39.5643718 140.225035,39.6007195 L140.225035,57.2164068 L136.146656,57.2164068 L136.146656,38.5829853 C136.727782,38.857612 137.342001,39.0837751 137.986083,39.2542052 L137.986083,39.2542052 Z M136.41462,36.0014943 L136.874678,37.7809138 C136.070786,37.4335918 135.333078,36.9836886 134.67124,36.4530129 L136.41462,36.0014943 Z M133.446838,33.0072556 L132.994043,34.7228647 C132.492822,34.0581065 132.079576,33.3311535 131.762378,32.561391 L133.446838,33.0072556 Z M133.07637,29.2238689 L138.016754,29.2238689 C138.042581,29.4185308 138.088587,29.6075386 138.153964,29.7876614 L133.890754,32.2706098 L131.429037,31.6203907 C131.370924,31.4241134 131.320076,31.2262206 131.27407,31.0267124 L133.07637,29.2238689 Z M148.230862,28.4961082 L143.304199,28.4961082 C143.274336,28.2836763 143.218645,28.078514 143.141161,27.8854676 L147.435849,25.4162505 L150.027512,26.1165486 C150.072711,26.268401 150.113874,26.4210611 150.151809,26.5737213 L148.230862,28.4961082 Z M148.313996,34.9272193 L147.829724,33.0597577 L149.692557,32.5759301 C149.343881,33.4272729 148.879787,34.2172285 148.313996,34.9272193 L148.313996,34.9272193 Z M142.741636,30.5461157 L146.970947,33.0339105 L147.655386,35.6711345 C147.59808,35.7292908 147.539967,35.7866393 147.481048,35.8431801 L144.839342,35.1582288 L142.357447,30.9362472 C142.498693,30.8199347 142.627025,30.6890831 142.741636,30.5461157 L142.741636,30.5461157 Z M148.230862,29.320796 L150.134859,31.2262206 C150.12356,31.2690301 150.113067,31.3118395 150.101767,31.3554567 L150.101767,31.3554567 C150.076747,31.4499606 150.050112,31.5444645 150.02267,31.6381607 L147.388229,32.3223043 L143.154075,29.8320863 C143.216223,29.6689257 143.263843,29.4976879 143.293707,29.320796 L148.230862,29.320796 Z M142.907903,38.3350135 L141.01682,36.4425125 L141.01682,31.5210405 C141.237164,31.4919624 141.44863,31.4354216 141.647988,31.3562645 L144.129076,35.5766306 L143.451095,38.1920461 C143.271107,38.245356 143.090312,38.2930118 142.907903,38.3350135 L142.907903,38.3350135 Z M137.816588,38.1314667 L137.152328,35.5612838 L139.635837,31.3401099 C139.812597,31.413613 139.999041,31.4685383 140.19275,31.5032705 L140.19275,36.4425125 L138.353323,38.2833191 C138.318617,38.2744341 138.28391,38.2663568 138.249204,38.2566641 C138.103116,38.2178933 137.959448,38.1758916 137.816588,38.1314667 L137.816588,38.1314667 Z M133.642161,35.4958581 L134.305614,32.9838315 L138.553489,30.5089603 C138.666486,30.6543509 138.794011,30.7884334 138.933642,30.907169 L136.441255,35.1420743 L133.929496,35.7922934 C133.831834,35.6953663 133.735787,35.5968238 133.642161,35.4958581 L133.642161,35.4958581 Z M139.325096,38.4779809 L140.605189,37.1969282 L141.916759,38.51029 C141.061212,38.616102 140.191136,38.6064093 139.325096,38.4779809 L139.325096,38.4779809 Z M145.603685,37.2623539 C145.209811,37.4925557 144.803022,37.6920639 144.388162,37.862494 L144.865977,36.0176488 L146.727197,36.499861 C146.373678,36.7777186 145.999174,37.0329599 145.603685,37.2623539 L145.603685,37.2623539 Z M150.326954,30.2512959 L148.984713,28.9088559 L150.339061,27.5534924 C150.460936,28.4427983 150.457708,29.3498741 150.326954,30.2512959 L150.326954,30.2512959 Z M144.851449,22.4963225 L147.40195,21.8307566 C147.50849,21.9325301 147.613415,22.0367267 147.71592,22.1433464 L147.025024,24.7006056 L142.720651,27.1754768 C142.605233,27.0357403 142.475287,26.9081197 142.334041,26.7942304 L144.851449,22.4963225 Z M140.662494,27.2344408 C141.566469,27.2344408 142.300949,27.9694711 142.300949,28.8741237 C142.300949,29.7787764 141.566469,30.5146144 140.662494,30.5146144 C139.758519,30.5146144 139.023233,29.7787764 139.023233,28.8741237 C139.023233,27.9694711 139.758519,27.2344408 140.662494,27.2344408 L140.662494,27.2344408 Z M134.040071,21.8517575 L136.474347,22.4866298 L138.997405,26.7885763 C138.863423,26.8960038 138.739934,27.0163549 138.628551,27.1472064 L134.320949,24.6359876 L133.68171,22.2103877 C133.797935,22.0876134 133.917389,21.96807 134.040071,21.8517575 L134.040071,21.8517575 Z M131.35236,26.3952139 C131.388681,26.259516 131.427423,26.1254336 131.468586,25.9929666 L133.906089,25.3492093 L138.197549,27.8507354 C138.124908,28.0243964 138.070831,28.2085579 138.036125,28.3983734 L133.07637,28.3983734 L131.296669,26.6181462 C131.314426,26.5438354 131.33299,26.4695247 131.35236,26.3952139 L131.35236,26.3952139 Z M154.655541,31.3239554 C154.655541,27.2772503 153.586913,23.2862781 151.565884,19.7815568 C149.544047,16.2776432 146.624693,13.3560998 143.122597,11.3327472 L140.816654,10 L138.509904,11.3327472 C135.008616,13.3560998 132.089261,16.2776432 130.067425,19.7815568 C128.045588,23.2862781 126.976961,27.2772503 126.976961,31.3239554 L126.976961,58.5911557 L154.655541,58.5911557 L154.655541,31.3239554 Z M125,62 L156.272687,62 L156.272687,60.2965067 L125,60.2965067 L125,62 Z" id="logo-novo-hasd-full"></path>
        </g>
    </g>
</svg>