<?xml version="1.0" encoding="UTF-8"?>
<svg width="31px" height="52px" viewBox="0 0 31 52" version="1.1" xmlns="http://www.w3.org/2000/svg" xmlns:xlink="http://www.w3.org/1999/xlink">
    <title>logo-novo-hasd</title>
    <g id="Home" stroke="none" stroke-width="1" fill="none" fill-rule="evenodd">
        <g id="Desktop-HD" transform="translate(-125.000000, -10.000000)" fill="#222428">
            <path d="M153.609873,57.6132287 L151.780937,57.6132287 L151.780937,28.8288856 L151.763497,28.8288856 C151.731993,27.004925 151.234112,25.2095865 150.288984,23.5893483 C148.831348,21.0902417 146.485403,19.3066888 143.683209,18.5681251 C137.898234,17.0421716 131.947861,20.4964723 130.418215,26.2674837 C130.138615,27.3236972 130.026662,28.3860841 130.064917,29.4260222 L130.064917,57.6132287 L128.389564,57.6132287 L128.389564,31.5030924 C128.389564,27.6654793 129.40614,23.8806208 131.32959,20.5576452 C133.253039,17.2341083 136.03048,14.4633719 139.361496,12.5445653 L140.999719,11.6011568 L142.637942,12.5445653 C145.968958,14.4633719 148.746399,17.2341083 150.669848,20.5576452 C152.593297,23.8806208 153.609873,27.6654793 153.609873,31.5030924 L153.609873,57.6132287 Z M135.233309,38.2601649 L135.233309,57.6132287 L131.107372,57.6132287 L131.107372,33.6649067 C131.997931,35.5376933 133.419562,37.148952 135.233309,38.2601649 L135.233309,38.2601649 Z M131.185007,27.7496621 L132.407486,28.9691902 L131.170943,30.2027488 C131.138876,29.9400985 131.117498,29.6752033 131.107372,29.4086244 L131.107372,28.8288856 L131.102309,28.8288856 C131.109622,28.4708281 131.136626,28.1105257 131.185007,27.7496621 L131.185007,27.7496621 Z M133.123084,23.0831291 L133.560206,24.735918 L131.894979,25.1736685 C132.220711,24.4165846 132.63533,23.7167449 133.123084,23.0831291 L133.123084,23.0831291 Z M136.581242,21.7244187 L134.916578,21.2922804 C135.562416,20.7956019 136.268449,20.3803001 137.016114,20.0564769 L136.581242,21.7244187 Z M138.613831,19.5221968 L140.467521,21.3714122 L140.467521,26.3656969 C140.264431,26.3943191 140.069217,26.4448288 139.883004,26.5161035 L137.326656,22.1700263 L137.970806,19.7006643 C138.182898,19.6338793 138.397239,19.5743901 138.613831,19.5221968 L138.613831,19.5221968 Z M140.884391,20.6109609 L139.606216,19.335311 C140.036025,19.2775054 140.472022,19.2471996 140.911957,19.2471996 C141.328263,19.2471996 141.748508,19.2741381 142.169315,19.3285763 L140.884391,20.6109609 Z M143.701212,19.6529607 L144.362239,22.1806895 L141.813204,26.5189096 C141.649495,26.4560531 141.478471,26.4089108 141.30126,26.378605 L141.30126,21.3714122 L143.165639,19.5115336 C143.249463,19.5311763 143.333286,19.5513801 143.416548,19.5732677 C143.512186,19.5985225 143.606699,19.625461 143.701212,19.6529607 L143.701212,19.6529607 Z M145.107653,21.7350819 L144.650278,19.9863246 C145.456451,20.3163212 146.208053,20.7478983 146.889896,21.2709541 L145.107653,21.7350819 Z M148.149505,24.8060703 L148.637259,23.0051197 C148.910108,23.3541977 149.161017,23.7234796 149.388298,24.1124041 C149.612766,24.4979613 149.809106,24.8941817 149.977316,25.2988203 L148.149505,24.8060703 Z M146.612545,38.2438896 C148.431918,37.1242584 149.851299,35.5270301 150.738482,33.627305 L150.738482,57.6132287 L146.612545,57.6132287 L146.612545,38.2438896 Z M141.444154,39.8500974 C142.865785,39.7816287 144.263788,39.4319895 145.570091,38.809598 L145.570091,57.6132287 L141.444154,57.6132287 L141.444154,39.8500974 Z M138.136204,39.4998969 C138.886681,39.6974459 139.645034,39.8124957 140.4017,39.8495361 L140.4017,57.6132287 L136.275763,57.6132287 L136.275763,38.8230672 C136.864218,39.1003092 137.485303,39.328164 138.136204,39.4998969 L138.136204,39.4998969 Z M136.546362,36.2201352 L137.012176,38.0143512 C136.199253,37.6635895 135.452713,37.2106861 134.783247,36.6752835 L136.546362,36.2201352 Z M133.544454,33.2002176 L133.086516,34.9304547 C132.580197,34.2603596 132.161078,33.5274081 131.840409,32.7512427 L133.544454,33.2002176 Z M133.169778,29.3850533 L138.167708,29.3850533 C138.193587,29.582041 138.24028,29.7722941 138.306665,29.954129 L133.993952,32.4582866 L131.503426,31.8016607 C131.444918,31.604673 131.393161,31.4048792 131.346467,31.2034017 L133.169778,29.3850533 Z M148.500553,28.6515405 L143.516686,28.6515405 C143.486307,28.437155 143.43005,28.2306265 143.351851,28.0353224 L147.696068,25.5457565 L150.317675,26.2523308 C150.363244,26.4049822 150.405437,26.5587562 150.44313,26.7130913 L148.500553,28.6515405 Z M148.584376,35.1364219 L148.094372,33.2540946 L149.979004,32.7658344 C149.625706,33.6239377 149.156517,34.420307 148.584376,35.1364219 L148.584376,35.1364219 Z M142.947921,30.71907 L147.225754,33.2271561 L147.917723,35.8862101 C147.859778,35.945138 147.80127,36.0029435 147.741637,36.0607491 L145.069398,35.3693277 L142.559181,31.111923 C142.701513,30.9946283 142.831468,30.862742 142.947921,30.71907 L142.947921,30.71907 Z M148.500553,29.4832665 L150.426252,31.4043179 C150.415001,31.4475318 150.404874,31.4913068 150.39306,31.5345207 L150.39306,31.5345207 C150.367744,31.6304891 150.340741,31.725335 150.312612,31.8196197 L147.648249,32.5099187 L143.364228,29.9984652 C143.427799,29.8340282 143.475618,29.6617341 143.505997,29.4832665 L148.500553,29.4832665 Z M143.115569,38.5733249 L141.202809,36.6651815 L141.202809,31.702325 C141.425027,31.6725805 141.638806,31.6158974 141.841333,31.5356431 L144.350425,35.7913641 L143.665207,38.4290917 C143.482932,38.4824075 143.299532,38.5306723 143.115569,38.5733249 L143.115569,38.5733249 Z M137.965181,38.3673577 L137.292901,35.77565 L139.805931,31.5193678 C139.984268,31.5940098 140.173294,31.6490093 140.368508,31.6838048 L140.368508,36.6651815 L138.50863,38.5205704 C138.473187,38.5121521 138.437745,38.5037338 138.402865,38.4941931 C138.254907,38.455469 138.1092,38.4128164 137.965181,38.3673577 L137.965181,38.3673577 Z M133.742481,35.7099874 L134.413072,33.1772077 L138.711157,30.6814683 C138.824798,30.8279464 138.95419,30.9626389 139.095397,31.0827397 L136.574491,35.3536136 L134.033333,36.0091169 C133.934319,35.9114649 133.837556,35.811568 133.742481,35.7099874 L133.742481,35.7099874 Z M139.491451,38.7169969 L140.78594,37.4256328 L142.113058,38.7501088 C141.247815,38.8567404 140.367383,38.8466384 139.491451,38.7169969 L139.491451,38.7169969 Z M145.842941,37.4918566 C145.444074,37.7236399 145.03283,37.9245562 144.613148,38.0962891 L145.096402,36.2358493 L146.978783,36.7229871 C146.621547,37.0024739 146.24237,37.2600733 145.842941,37.4918566 L145.842941,37.4918566 Z M150.620341,30.4216241 L149.262844,29.0674035 L150.632718,27.7008361 C150.756485,28.5982247 150.753109,29.5124499 150.620341,30.4216241 L150.620341,30.4216241 Z M145.081775,22.6016035 L147.661188,21.9298248 C147.769766,22.0325278 147.87553,22.1374757 147.979044,22.2452296 L147.280886,24.8240293 L142.926544,27.3197686 C142.809528,27.1783415 142.678447,27.0498225 142.535553,26.9347726 L145.081775,22.6016035 Z M140.843885,27.3786966 C141.758072,27.3786966 142.501798,28.1206276 142.501798,29.0326079 C142.501798,29.9445882 141.758072,30.6865193 140.843885,30.6865193 C139.929698,30.6865193 139.185972,29.9445882 139.185972,29.0326079 C139.185972,28.1206276 139.929698,27.3786966 140.843885,27.3786966 L140.843885,27.3786966 Z M134.144723,21.9517123 L136.607121,22.5909403 L139.159531,26.9297217 C139.02395,27.0380369 138.899058,27.1592601 138.786542,27.2911465 L134.428824,24.758928 L133.781861,22.3131371 C133.900002,22.1891078 134.020956,22.069007 134.144723,21.9517123 L134.144723,21.9517123 Z M131.426353,26.5329401 C131.462358,26.3960027 131.501738,26.2607491 131.543369,26.127179 L134.009142,25.477849 L138.349983,28.0005269 C138.276848,28.1761883 138.222278,28.3613904 138.187398,28.552766 L133.169778,28.552766 L131.370095,26.7574276 C131.388097,26.6827855 131.406663,26.6075822 131.426353,26.5329401 L131.426353,26.5329401 Z M155,31.5030924 C155,27.4224717 153.918728,23.3979727 151.873762,19.8639789 C149.828796,16.3305463 146.875269,13.3841484 143.332724,11.3441187 L140.999719,10 L138.666714,11.3441187 C135.124731,13.3841484 132.171204,16.3305463 130.125676,19.8639789 C128.08071,23.3979727 127,27.4224717 127,31.5030924 L127,59 L155,59 L155,31.5030924 Z M125,62 L156,62 L156,60 L125,60 L125,62 Z" id="logo-novo-hasd"></path>
        </g>
    </g>
</svg>