<?xml version="1.0" encoding="UTF-8"?>
<svg width="32px" height="32px" viewBox="0 0 32 32" version="1.1" xmlns="http://www.w3.org/2000/svg" xmlns:xlink="http://www.w3.org/1999/xlink">
    <title>Call</title>
    <g id="Site" stroke="none" stroke-width="1" fill="none" fill-rule="evenodd">
        <g id="Mobile" transform="translate(-32.000000, -844.000000)" fill="#FFFFFF" fill-rule="nonzero">
            <path d="M38.4444444,857.857778 C41.0044444,862.888889 45.12,867.004444 50.16,869.564444 L54.0711111,865.644444 C54.56,865.155556 55.2622222,865.013333 55.8755556,865.208889 C57.8666667,865.866667 60.0088889,866.222222 62.2222222,866.222222 C63.2088889,866.222222 64,867.013333 64,868 L64,874.222222 C64,875.208889 63.2088889,876 62.2222222,876 C45.5288889,876 32,862.471111 32,845.777778 C32,844.791111 32.8,844 33.7777778,844 L40,844 C40.9866667,844 41.7777778,844.791111 41.7777778,845.777778 C41.7777778,847.991111 42.1333333,850.133333 42.7911111,852.124444 C42.9866667,852.737778 42.8444444,853.44 42.3555556,853.928889 L38.4444444,857.857778 Z" id="Call"></path>
        </g>
    </g>
</svg>