<?xml version="1.0" encoding="UTF-8"?>
<svg width="32px" height="32px" viewBox="0 0 32 32" version="1.1" xmlns="http://www.w3.org/2000/svg" xmlns:xlink="http://www.w3.org/1999/xlink">
    <title>Navigate</title>
    <g id="Site" stroke="none" stroke-width="1" fill="none" fill-rule="evenodd">
        <g id="Notebook" transform="translate(-464.000000, -1004.000000)" fill="#FFFFFF" fill-rule="nonzero">
            <path d="M483.999232,1035.99775 L483.711706,1035.99775 C482.078093,1035.89054 480.733355,1034.67259 480.465449,1033.05753 L478.610445,1022.42836 C478.522345,1021.89537 478.104628,1021.47766 477.571643,1021.38956 L466.942469,1019.53455 C465.339715,1019.25159 464.132666,1017.91815 464.010181,1016.29522 C463.887696,1014.6723 464.880938,1013.1728 466.423067,1012.65249 L491.280123,1004.19367 L491.280123,1004.19367 C492.56732,1003.75104 493.994235,1004.08077 494.956731,1005.04327 C495.919227,1006.00577 496.248963,1007.43268 495.806334,1008.71988 L487.35679,1033.57693 C486.881691,1035.0271 485.525225,1036.00511 483.999232,1035.99775 Z" id="Navigate"></path>
        </g>
    </g>
</svg>