<?xml version="1.0" encoding="UTF-8"?>
<svg width="222px" height="51px" viewBox="0 0 222 51" version="1.1" xmlns="http://www.w3.org/2000/svg" xmlns:xlink="http://www.w3.org/1999/xlink">
    <title>silitec-logo-horizontal</title>
    <g id="Site" stroke="none" stroke-width="1" fill="none" fill-rule="evenodd">
        <g id="Mobile" transform="translate(-48.000000, -48.000000)" fill="#FFFFFF" fill-rule="nonzero">
            <path d="M93.2577674,89.1824904 C100.18957,80.9759148 101.170889,70.5213759 94.4118888,64.8872658 C90.2813884,61.4441986 81.0451521,61.3943581 72.3846824,61.8244603 L71.3485533,61.8781898 L71.3485533,61.8781898 L70.3201333,61.9354081 L70.3201333,61.9354081 L68.7967303,62.0253298 L68.7967303,62.0253298 L65.8461396,62.2060685 L65.8461396,62.2060685 L64.8991173,62.2624781 L64.8991173,62.2624781 L63.973985,62.3151049 L63.973985,62.3151049 L63.0729245,62.3628302 C58.4833882,62.5948221 54.9450851,62.5857547 53.8120763,61.6413109 C53.2270868,61.1536803 53.4044769,60.4444406 53.9801719,59.5578393 L54.0769617,59.4125184 C54.0936561,59.3880415 54.110627,59.3634368 54.1278673,59.3387051 L54.2344843,59.1887989 C54.2527734,59.1635629 54.2713175,59.1382018 54.2901094,59.1127164 L54.4657338,58.8800148 L54.4657338,58.8800148 L54.5896763,58.7212208 L54.5896763,58.7212208 L54.718704,58.5595481 L54.718704,58.5595481 L54.9210255,58.3117332 L54.9210255,58.3117332 L55.2053656,57.9716291 L55.2053656,57.9716291 C58.5477548,54.0145676 62.3909314,51.8466382 65.8162162,50.8086559 L66.1173393,50.7199849 C66.5673271,50.5913266 67.0095213,50.4821223 67.441792,50.3908437 L67.7284788,50.3326301 L67.7284788,50.3326301 L68.0120851,50.2796273 C68.200098,50.2460066 68.3859636,50.2157927 68.5694951,50.1888512 L68.8430183,50.1508767 C68.8883059,50.1449511 68.9334418,50.1392258 68.9784231,50.1336988 L69.2464313,50.1028988 C69.2907823,50.0981564 69.3349727,50.093608 69.3789998,50.0892516 L69.6411776,50.0653997 C69.727901,50.0582057 69.8139473,50.0517628 69.8992932,50.0460541 L70.1532063,50.0311142 C70.1951672,50.0289857 70.2369471,50.0270367 70.2785431,50.0252649 C70.7389311,49.9852515 70.8569081,49.7445701 70.8327409,49.4701572 L70.6439943,48.3805082 C70.6278828,48.1975663 70.4195604,47.9391587 70.1013167,48.0129036 L69.8130784,48.0508066 L69.8130784,48.0508066 L69.5210812,48.092704 L69.5210812,48.092704 L69.2254556,48.1387128 L69.2254556,48.1387128 L68.9263324,48.1889498 C68.8761943,48.1976815 68.8259159,48.2065942 68.7754999,48.2156904 L68.4713748,48.2724891 L68.4713748,48.2724891 L68.1640782,48.3338085 L68.1640782,48.3338085 L67.8537409,48.3997655 C67.8017718,48.4111513 67.7496815,48.4227352 67.6974727,48.4345197 L67.3828188,48.5076524 L67.3828188,48.5076524 L67.0654504,48.5857152 C62.8163561,49.6599383 57.8782121,52.0800196 53.6435109,57.0934912 C46.7117083,65.3000668 45.9502315,75.0903009 52.5590321,80.5992085 C56.9588911,84.2668055 66.7583352,84.4369594 75.6659775,84.1836681 L76.6894668,84.1527379 L76.6894668,84.1527379 L77.7028929,84.1190986 L77.7028929,84.1190986 L79.1994656,84.065856 L79.1994656,84.065856 L81.6130117,83.9784394 L81.6130117,83.9784394 L82.5439065,83.9469959 C82.6972028,83.9420252 82.8495429,83.9372038 83.000882,83.9325539 L83.8965472,83.9068849 C88.4583915,83.7866917 91.9723047,83.8731688 93.1053135,84.8176126 C93.6372718,85.2610379 93.4132295,85.9681929 92.8934637,86.7640574 L92.80155,86.9013277 L92.80155,86.9013277 L92.7043578,87.04014 L92.7043578,87.04014 L92.6024024,87.1802984 L92.6024024,87.1802984 L92.4961992,87.3216069 L92.4961992,87.3216069 L92.3862633,87.4638697 L92.3862633,87.4638697 L92.1572551,87.7504742 L92.1572551,87.7504742 L91.8591777,88.1106071 L91.8591777,88.1106071 L91.7379236,88.2546156 L91.7379236,88.2546156 C86.2344924,94.7701392 79.900109,97.1180116 74.4612074,96.9916067 C74.1849746,97.0156147 74.0249866,97.3060329 73.9990872,97.5387117 L74.1377671,98.5866265 C74.1538785,98.7695685 74.2701234,99.0359787 74.7305114,98.9959653 C80.8576993,98.5095231 87.334227,96.1953822 93.2577674,89.1824904 Z M115,98.9393064 L116.602533,98.9393064 L116.602533,96.5823699 L117.695652,96.5823699 C119.01164,96.5823699 119.913728,95.8034682 119.913728,94.3468208 C119.913728,92.8800578 119.01164,92.0708092 117.716878,92.0708092 L115,92.0708092 L115,98.9393064 Z M118.258131,94.316474 C118.258131,95.2572254 117.929134,95.6416185 117.186238,95.6416185 L116.602533,95.6416185 L116.602533,93.0115607 L117.08011,93.0115607 C117.929134,93.0115607 118.258131,93.3757225 118.258131,94.316474 Z M125.851592,92.0708092 L123.134714,92.0708092 L123.134714,98.9393064 L124.737248,98.9393064 L124.737248,96.4913295 L125.278501,96.4913295 L126.541424,98.9393064 L128.313762,98.9393064 L126.605101,96.2485549 C127.485964,96.0057803 128.048442,95.3179191 128.048442,94.2254335 C128.048442,92.8395954 127.146354,92.0708092 125.851592,92.0708092 Z M126.392845,94.265896 C126.392845,95.216763 126.053235,95.550578 125.320952,95.550578 L124.737248,95.550578 L124.737248,93.0115607 L125.214824,93.0115607 C126.063848,93.0115607 126.392845,93.3352601 126.392845,94.265896 Z M132.925026,95.5 C132.925026,93.8612717 133.084218,93.0216763 133.84834,93.0216763 C134.612461,93.0216763 134.771654,93.8612717 134.771654,95.5 C134.771654,97.1488439 134.612461,97.9783237 133.84834,97.9783237 C133.084218,97.9783237 132.925026,97.1488439 132.925026,95.5 Z M131.269428,95.5101156 C131.269428,97.7557803 131.84252,99 133.795276,99 C135.726806,99 136.416638,97.7557803 136.416638,95.5101156 C136.416638,93.2543353 135.832934,92 133.901404,92 C131.938035,92 131.269428,93.2543353 131.269428,95.5101156 Z M144.859124,95.5101156 C144.859124,93.2543353 144.148066,92.0708092 142.089182,92.0708092 L141.983054,92.0708092 L139.902944,92.0708092 L139.902944,98.9393064 L141.951215,98.9393064 C144.041938,98.9393064 144.859124,97.7557803 144.859124,95.5101156 Z M141.983054,93.0115607 C142.927593,93.0115607 143.214139,93.5072254 143.214139,95.5101156 C143.214139,97.482659 142.927593,97.9985549 142.089182,97.9985549 L141.505478,97.9985549 L141.505478,93.0115607 L141.983054,93.0115607 Z M148.228689,96.4508671 C148.228689,97.8973988 148.716878,99 150.659021,99 C152.601164,99 153.195481,97.8973988 153.195481,96.4508671 L153.195481,92.0708092 L151.624786,92.0708092 L151.624786,96.2182081 C151.624786,97.2196532 151.508045,97.9783237 150.743923,97.9783237 C149.990414,97.9783237 149.894899,97.2196532 149.894899,96.2182081 L149.894899,92.0708092 L148.228689,92.0708092 L148.228689,96.4508671 Z M156.119308,93.0115607 L157.626327,93.0115607 L157.626327,98.9393064 L159.239473,98.9393064 L159.239473,93.0115607 L160.746491,93.0115607 L160.746491,92.0708092 L156.119308,92.0708092 L156.119308,93.0115607 Z M164.933242,95.5 C164.933242,93.8612717 165.092434,93.0216763 165.856556,93.0216763 C166.620678,93.0216763 166.77987,93.8612717 166.77987,95.5 C166.77987,97.1488439 166.620678,97.9783237 165.856556,97.9783237 C165.092434,97.9783237 164.933242,97.1488439 164.933242,95.5 Z M163.277645,95.5101156 C163.277645,97.7557803 163.850736,99 165.803492,99 C167.735022,99 168.424855,97.7557803 168.424855,95.5101156 C168.424855,93.2543353 167.84115,92 165.90962,92 C163.946251,92 163.277645,93.2543353 163.277645,95.5101156 Z M174.076173,92 C172.505478,92 171.614002,92.7991329 171.614002,93.9017341 C171.614002,94.7919075 172.187093,95.3381503 173.078569,95.9653179 C173.779014,96.4407514 174.033721,96.7442197 174.033721,97.1893064 C174.033721,97.5939306 173.65166,97.9783237 172.770798,97.9783237 C172.420575,97.9783237 172.123417,97.9682081 171.709517,97.8973988 L171.5291,98.8482659 C171.974837,98.9393064 172.473639,99 173.036118,99 C174.712941,99 175.678706,98.1806358 175.678706,97.0780347 C175.678706,96.1676301 175.137453,95.5809249 174.224752,94.9638728 C173.524307,94.4783237 173.248374,94.2052023 173.248374,93.7904624 C173.248374,93.3858382 173.566758,93.0216763 174.352105,93.0216763 C174.659877,93.0216763 174.914584,93.0317919 175.328483,93.1026012 L175.508901,92.1517341 C175.063163,92.0606936 174.606813,92 174.076173,92 Z M184.604074,95.8742775 L186.344574,95.8742775 L186.344574,98.9393064 L187.95772,98.9393064 L187.95772,92.0708092 L186.344574,92.0708092 L186.344574,94.933526 L184.604074,94.933526 L184.604074,92.0708092 L183.001541,92.0708092 L183.001541,98.9393064 L184.604074,98.9393064 L184.604074,95.8742775 Z M193.089011,95.5 C193.089011,93.8612717 193.248203,93.0216763 194.012325,93.0216763 C194.776446,93.0216763 194.935638,93.8612717 194.935638,95.5 C194.935638,97.1488439 194.776446,97.9783237 194.012325,97.9783237 C193.248203,97.9783237 193.089011,97.1488439 193.089011,95.5 Z M191.433413,95.5101156 C191.433413,97.7557803 192.006505,99 193.959261,99 C195.890791,99 196.580623,97.7557803 196.580623,95.5101156 C196.580623,93.2543353 195.996919,92 194.065389,92 C192.10202,92 191.433413,93.2543353 191.433413,95.5101156 Z M202.231941,92 C200.661246,92 199.769771,92.7991329 199.769771,93.9017341 C199.769771,94.7919075 200.342862,95.3381503 201.234338,95.9653179 C201.934783,96.4407514 202.18949,96.7442197 202.18949,97.1893064 C202.18949,97.5939306 201.807429,97.9783237 200.926566,97.9783237 C200.576344,97.9783237 200.279185,97.9682081 199.865286,97.8973988 L199.684868,98.8482659 C200.130606,98.9393064 200.629408,99 201.191886,99 C202.868709,99 203.834474,98.1806358 203.834474,97.0780347 C203.834474,96.1676301 203.293221,95.5809249 202.38052,94.9638728 C201.680075,94.4783237 201.404142,94.2052023 201.404142,93.7904624 C201.404142,93.3858382 201.722527,93.0216763 202.507874,93.0216763 C202.815645,93.0216763 203.070353,93.0317919 203.484252,93.1026012 L203.66467,92.1517341 C203.218932,92.0606936 202.762581,92 202.231941,92 Z M207.140363,98.9393064 L208.742896,98.9393064 L208.742896,96.5823699 L209.836015,96.5823699 C211.152003,96.5823699 212.054091,95.8034682 212.054091,94.3468208 C212.054091,92.8800578 211.152003,92.0708092 209.857241,92.0708092 L207.140363,92.0708092 L207.140363,98.9393064 Z M210.398494,94.316474 C210.398494,95.2572254 210.069497,95.6416185 209.3266,95.6416185 L208.742896,95.6416185 L208.742896,93.0115607 L209.220472,93.0115607 C210.069497,93.0115607 210.398494,93.3757225 210.398494,94.316474 Z M216.930674,92.0708092 L215.328141,92.0708092 L215.328141,98.9393064 L216.930674,98.9393064 L216.930674,92.0708092 Z M220.03492,93.0115607 L221.541938,93.0115607 L221.541938,98.9393064 L223.155084,98.9393064 L223.155084,93.0115607 L224.662102,93.0115607 L224.662102,92.0708092 L220.03492,92.0708092 L220.03492,93.0115607 Z M228.434954,92.0708092 L226.705067,98.9393064 L228.392503,98.9393064 L228.636597,97.533237 L230.196679,97.533237 L230.451387,98.9393064 L232.223725,98.9393064 L230.504451,92.0708092 L228.434954,92.0708092 Z M229.262752,93.9725434 L229.347655,92.9812139 L229.485621,92.9812139 L229.570524,93.9725434 L230.037487,96.5924855 L228.795789,96.5924855 L229.262752,93.9725434 Z M237.015406,92.0708092 L235.412872,92.0708092 L235.412872,98.9393064 L239.201643,98.9393064 L239.201643,97.9985549 L237.015406,97.9985549 L237.015406,92.0708092 Z M243.579425,92.0708092 L241.849538,98.9393064 L243.536974,98.9393064 L243.781068,97.533237 L245.34115,97.533237 L245.595858,98.9393064 L247.368196,98.9393064 L245.648922,92.0708092 L243.579425,92.0708092 Z M244.407224,93.9725434 L244.492126,92.9812139 L244.630092,92.9812139 L244.714995,93.9725434 L245.181958,96.5924855 L243.94026,96.5924855 L244.407224,93.9725434 Z M253.274221,92.0708092 L250.557343,92.0708092 L250.557343,98.9393064 L252.159877,98.9393064 L252.159877,96.4913295 L252.70113,96.4913295 L253.964053,98.9393064 L255.736392,98.9393064 L254.02773,96.2485549 C254.908593,96.0057803 255.471072,95.3179191 255.471072,94.2254335 C255.471072,92.8395954 254.568983,92.0708092 253.274221,92.0708092 Z M253.815474,94.265896 C253.815474,95.216763 253.475864,95.550578 252.743581,95.550578 L252.159877,95.550578 L252.159877,93.0115607 L252.637453,93.0115607 C253.486477,93.0115607 253.815474,93.3352601 253.815474,94.265896 Z M262.915953,92.0708092 L258.893701,92.0708092 L258.893701,98.9393064 L262.915953,98.9393064 L262.915953,97.9985549 L260.496234,97.9985549 L260.496234,95.8742775 L262.661246,95.8742775 L262.661246,94.933526 L260.496234,94.933526 L260.496234,93.0115607 L262.915953,93.0115607 L262.915953,92.0708092 Z M268.397467,92 C266.826772,92 265.935296,92.7991329 265.935296,93.9017341 C265.935296,94.7919075 266.508388,95.3381503 267.399863,95.9653179 C268.100308,96.4407514 268.355015,96.7442197 268.355015,97.1893064 C268.355015,97.5939306 267.972954,97.9783237 267.092092,97.9783237 C266.741869,97.9783237 266.444711,97.9682081 266.030811,97.8973988 L265.850394,98.8482659 C266.296131,98.9393064 266.794933,99 267.357412,99 C269.034235,99 270,98.1806358 270,97.0780347 C270,96.1676301 269.458747,95.5809249 268.546046,94.9638728 C267.845601,94.4783237 267.569668,94.2052023 267.569668,93.7904624 C267.569668,93.3858382 267.888052,93.0216763 268.6734,93.0216763 C268.981171,93.0216763 269.235878,93.0317919 269.649777,93.1026012 L269.830195,92.1517341 C269.384457,92.0606936 268.928107,92 268.397467,92 Z M127.491605,48 C129.940939,48 132.067538,48.2764966 134.131759,48.6993737 L134.518133,48.7803468 L133.633311,53.6705202 C133.171973,53.5877562 132.750962,53.521115 132.358058,53.4675431 L131.899281,53.4093347 C131.526907,53.3657296 131.177751,53.3339725 130.839593,53.3110096 L130.438301,53.28748 C130.305775,53.2809136 130.174227,53.2755588 130.042874,53.2712203 L129.64862,53.261058 L129.64862,53.261058 L129.250847,53.2558205 L129.250847,53.2558205 L128.844862,53.2543353 L128.844862,53.2543353 C124.993284,53.2543353 123.431833,55.1271676 123.431833,57.2080925 C123.431833,58.5206759 123.94431,59.5574443 125.139076,60.7427285 L125.371132,60.9668133 C125.411155,61.0044854 125.451854,61.0423284 125.493235,61.0803553 L125.749744,61.3108268 C125.882131,61.4272695 126.020748,61.5456001 126.165734,61.6661685 L126.464242,61.9103925 C126.515423,61.9516282 126.567322,61.9931386 126.619944,62.0349363 L126.944398,62.2892765 L126.944398,62.2892765 L127.28646,62.5511377 L127.28646,62.5511377 L127.646378,62.8211415 L127.646378,62.8211415 L128.220282,63.2427746 L128.220282,63.2427746 L128.438949,63.3987261 L128.438949,63.3987261 L128.867381,63.7100668 L128.867381,63.7100668 L129.2838,64.0209784 C133.113765,66.9220158 135.350907,69.8173031 135.350907,74.1156069 C135.350907,79.7861272 130.614506,84 122.390866,84 C119.785557,84 117.458803,83.72158 115.366757,83.296216 L115,83.2196532 L115.884822,78.3294798 C117.689165,78.6531792 119.041137,78.7302505 120.525622,78.7433811 L121.089657,78.7456647 L121.089657,78.7456647 C125.409671,78.7456647 127.283412,76.7687861 127.283412,74.6878613 C127.283412,72.8390396 126.468501,71.4653521 124.345031,69.7170396 L124.032723,69.4646404 L124.032723,69.4646404 L123.702292,69.2065938 L123.702292,69.2065938 L123.353417,68.9423491 L123.353417,68.9423491 L122.98578,68.6713559 L122.98578,68.6713559 L122.59906,68.3930636 L122.59906,68.3930636 L122.180873,68.0821507 C122.112002,68.030524 122.043547,67.9789872 121.975515,67.9275312 L121.572423,67.6196909 C121.506099,67.5685213 121.440208,67.5174141 121.374754,67.4663602 L120.987324,67.1606023 C120.923641,67.1097247 120.860407,67.0588821 120.797626,67.0080652 L120.426423,66.7033996 L120.426423,66.7033996 L120.066353,66.3989122 C117.171922,63.9117941 115.416387,61.398471 115.416387,57.7803468 C115.416387,52.1098266 119.788449,48 127.491605,48 Z M262.192747,48 C264.961719,48 267.495824,48.2817052 269.661185,48.7113056 L270,48.7803468 L269.06313,53.6705202 C267.501679,53.383024 266.32951,53.2900741 265.111241,53.2636796 L264.620443,53.2563679 C264.53789,53.2556398 264.454873,53.2551316 264.371265,53.2548055 L264.118536,53.2543353 C259.584083,53.2543353 257.612908,55.0882127 256.864551,59.5715037 L256.80499,59.9512617 L256.80499,59.9512617 L256.750917,60.3433903 L256.750917,60.3433903 L256.702161,60.7479945 C256.694469,60.816474 256.686991,60.8854777 256.679723,60.9550078 L256.638619,61.378522 C256.63218,61.4501662 256.625944,61.5223412 256.619909,61.5950492 L256.586068,62.0377093 L256.586068,62.0377093 L256.556854,62.4932646 C256.552361,62.5702708 256.548054,62.6478188 256.543928,62.7259106 L256.521331,63.2010051 C256.517919,63.281281 256.514683,63.3621052 256.511617,63.4434798 L256.495249,63.9383495 L256.495249,63.9383495 L256.482819,64.4465338 L256.482819,64.4465338 L256.474153,64.9681376 L256.474153,64.9681376 L256.467837,65.7759342 L256.467837,65.7759342 L256.467838,66.3265514 L256.467838,66.3265514 L256.471201,66.865361 L256.471201,66.865361 L256.47813,67.3905975 C256.479594,67.4770118 256.481215,67.5628651 256.482999,67.6481595 L256.495675,68.1532378 L256.495675,68.1532378 L256.51245,68.6450116 C256.515599,68.7258711 256.518927,68.8061808 256.52244,68.8859428 L256.545758,69.3579609 L256.545758,69.3579609 L256.573704,69.8169429 C256.578759,69.8923595 256.584016,69.9672375 256.589479,70.0415789 L256.624766,70.481208 C256.643681,70.6978217 256.664531,70.9096474 256.687435,71.1167457 L256.736018,71.5246568 C257.395549,76.6790827 259.460729,78.7456647 264.95131,78.7456647 C266.82505,78.7456647 268.594694,78.5895954 270,77.8092486 C269.947952,81.6589595 267.449631,84 261.77636,84 C251.522834,84 248.347884,78.0693642 248.347884,66.1040462 C248.347884,54.0867052 251.939221,48 262.192747,48 Z M149.924446,48.3641618 L149.924446,83.6878613 L142.065144,83.6878613 L142.065144,48.3641618 L149.924446,48.3641618 Z M166.319678,48.3641618 L166.319678,78.849711 L177.041639,78.849711 L177.041639,83.6878613 L158.460376,83.6878613 L158.460376,48.3641618 L166.319678,48.3641618 Z M190.782404,48.3641618 L190.782404,83.6878613 L182.923103,83.6878613 L182.923103,48.3641618 L190.782404,48.3641618 Z M218.940564,48.3641618 L218.940564,53.2023121 L211.549698,53.2023121 L211.549698,83.6878613 L203.638348,83.6878613 L203.638348,53.2023121 L196.247482,53.2023121 L196.247482,48.3641618 L218.940564,48.3641618 Z M243.871726,48.3641618 L243.871726,53.2023121 L232.004701,53.2023121 L232.004701,63.0867052 L242.622565,63.0867052 L242.622565,67.9248555 L232.004701,67.9248555 L232.004701,78.849711 L243.871726,78.849711 L243.871726,83.6878613 L224.1454,83.6878613 L224.1454,48.3641618 L243.871726,48.3641618 Z" id="silitec-logo-horizontal"></path>
        </g>
    </g>
</svg>