<?xml version="1.0" encoding="UTF-8"?>
<svg width="218px" height="198px" viewBox="0 0 218 198" version="1.1" xmlns="http://www.w3.org/2000/svg" xmlns:xlink="http://www.w3.org/1999/xlink">
    <title>Silitec</title>
    <g id="Site" stroke="none" stroke-width="1" fill="none" fill-rule="evenodd">
        <g id="Mobile" transform="translate(-52.000000, -51.000000)" fill="#FFFFFF" fill-rule="nonzero">
            <path d="M204.633186,144.043899 C220.054707,125.550747 222.237896,101.991909 207.200816,89.2956936 C198.01149,81.536895 177.463183,81.4245816 158.195811,82.3937978 L155.890684,82.5148749 L155.890684,82.5148749 L153.602708,82.6438137 L153.602708,82.6438137 L150.213519,82.8464482 L150.213519,82.8464482 L143.649195,83.2537349 L143.649195,83.2537349 L141.542308,83.3808514 L141.542308,83.3808514 L139.484121,83.4994436 L139.484121,83.4994436 L137.479488,83.6069905 C127.268921,84.1297738 119.397085,84.1093409 116.876425,81.9810789 C115.57497,80.8822251 115.969618,79.283985 117.250395,77.2860684 L117.465728,76.9585944 C117.502869,76.9034367 117.540625,76.847991 117.578981,76.7922593 L117.816177,76.4544523 C117.856865,76.3975843 117.898121,76.3404341 117.939928,76.2830039 L118.330649,75.7586211 L118.330649,75.7586211 L118.60639,75.400786 L118.60639,75.400786 L118.893444,75.0364637 L118.893444,75.0364637 L119.343558,74.4780239 L119.343558,74.4780239 L119.976144,73.7116146 L119.976144,73.7116146 C127.412121,64.7945528 135.962224,59.9092205 143.582623,57.5701737 L144.252546,57.3703575 C145.253656,57.0804317 146.237427,56.8343447 147.199121,56.6286524 L147.836927,56.4974708 L147.836927,56.4974708 L148.46788,56.3780313 C148.886162,56.3022686 149.299666,56.2341828 149.707977,56.1734715 L150.316498,56.0878976 C150.417251,56.0745445 150.517667,56.0616429 150.617739,56.0491879 L151.213991,55.9797815 C151.31266,55.9690947 151.410973,55.9588451 151.508922,55.9490281 L152.092202,55.8952789 C152.28514,55.8790676 152.476571,55.8645487 152.666444,55.8516845 L153.231337,55.8180181 C153.32469,55.8132217 153.417639,55.8088296 153.51018,55.804837 C154.534428,55.7146686 154.796897,55.1723037 154.743131,54.5539265 L154.323217,52.0984511 C154.287373,51.6861996 153.823908,51.1038897 153.115896,51.2700704 L152.474638,51.3554832 L152.474638,51.3554832 L151.825017,51.4498972 L151.825017,51.4498972 L151.167325,51.5535758 L151.167325,51.5535758 L150.501851,51.6667827 C150.390306,51.6864591 150.278449,51.7065436 150.166286,51.7270415 L149.489684,51.8550349 L149.489684,51.8550349 L148.806027,51.9932154 L148.806027,51.9932154 L148.115604,52.1418466 C147.999986,52.167504 147.884098,52.1936078 147.767946,52.2201635 L147.06792,52.3849649 L147.06792,52.3849649 L146.361855,52.5608758 C136.908687,54.9815897 125.922556,60.4351351 116.501409,71.7327699 C101.079888,90.2259221 99.3857937,112.287778 114.088716,124.701856 C123.877298,132.966622 145.678601,133.350057 165.495869,132.779276 L167.772876,132.709576 L167.772876,132.709576 L170.027495,132.633772 L170.027495,132.633772 L173.356993,132.513792 L173.356993,132.513792 L178.726528,132.316802 L178.726528,132.316802 L180.797535,132.245946 C181.138581,132.234744 181.477499,132.22388 181.814191,132.213401 L183.806821,132.155557 C193.95578,131.884707 201.773354,132.07958 204.294014,134.207842 C205.477488,135.207081 204.97905,136.800623 203.822702,138.594068 L203.618217,138.903401 L203.618217,138.903401 L203.401989,139.216208 L203.401989,139.216208 L203.175164,139.532049 L203.175164,139.532049 L202.938888,139.850481 L202.938888,139.850481 L202.694308,140.171064 L202.694308,140.171064 L202.184823,140.816915 L202.184823,140.816915 L201.521675,141.628458 L201.521675,141.628458 L201.251915,141.952975 L201.251915,141.952975 C189.008162,156.635417 174.915749,161.926243 162.815558,161.641395 C162.20101,161.695496 161.845077,162.34994 161.787457,162.874271 L162.095985,165.235701 C162.131829,165.647952 162.390444,166.248296 163.414692,166.158128 C177.046147,165.061952 191.454796,159.847138 204.633186,144.043899 Z M53.4370353,248.070298 L55.6469614,248.070298 L55.6469614,244.866149 L57.1543943,244.866149 C58.969168,244.866149 60.2131661,243.807267 60.2131661,241.827021 C60.2131661,239.833022 58.969168,238.732886 57.1836649,238.732886 L53.4370353,238.732886 L53.4370353,248.070298 Z M57.9300637,241.785766 C57.9300637,243.064675 57.4763703,243.58724 56.4519013,243.58724 L55.6469614,243.58724 L55.6469614,240.011795 L56.3055486,240.011795 C57.4763703,240.011795 57.9300637,240.506856 57.9300637,241.785766 Z M68.4016005,238.732886 L64.654971,238.732886 L64.654971,248.070298 L66.864897,248.070298 L66.864897,244.742384 L67.6112959,244.742384 L69.3528932,248.070298 L71.7969835,248.070298 L69.4407048,244.412342 C70.6554324,244.082301 71.4311017,243.147185 71.4311017,241.662 C71.4311017,239.778016 70.1871037,238.732886 68.4016005,238.732886 Z M69.1479994,241.717007 C69.1479994,243.009668 68.6796707,243.463474 67.669837,243.463474 L66.864897,243.463474 L66.864897,240.011795 L67.5234842,240.011795 C68.694306,240.011795 69.1479994,240.45185 69.1479994,241.717007 Z M78.156009,243.394716 C78.156009,241.166939 78.3755381,240.025546 79.4292777,240.025546 C80.4830172,240.025546 80.7025463,241.166939 80.7025463,243.394716 C80.7025463,245.636245 80.4830172,246.763885 79.4292777,246.763885 C78.3755381,246.763885 78.156009,245.636245 78.156009,243.394716 Z M75.8729067,243.408467 C75.8729067,246.461347 76.6632113,248.152808 79.3561013,248.152808 C82.0197207,248.152808 82.9710134,246.461347 82.9710134,243.408467 C82.9710134,240.341836 82.1660734,238.636624 79.502454,238.636624 C76.7949288,238.636624 75.8729067,240.341836 75.8729067,243.408467 Z M94.6133719,243.408467 C94.6133719,240.341836 93.6328087,238.732886 90.793566,238.732886 L90.6472133,238.732886 L87.7787001,238.732886 L87.7787001,248.070298 L90.6033075,248.070298 C93.486456,248.070298 94.6133719,246.461347 94.6133719,243.408467 Z M90.6472133,240.011795 C91.9497525,240.011795 92.3449048,240.685629 92.3449048,243.408467 C92.3449048,246.090051 91.9497525,246.791389 90.793566,246.791389 L89.9886261,246.791389 L89.9886261,240.011795 L90.6472133,240.011795 Z M99.2600706,244.687377 C99.2600706,246.653871 99.9332931,248.152808 102.611548,248.152808 C105.289803,248.152808 106.109378,246.653871 106.109378,244.687377 L106.109378,238.732886 L103.943358,238.732886 L103.943358,244.371087 C103.943358,245.732507 103.78237,246.763885 102.72863,246.763885 C101.689526,246.763885 101.557808,245.732507 101.557808,244.371087 L101.557808,238.732886 L99.2600706,238.732886 L99.2600706,244.687377 Z M110.141395,240.011795 L112.219604,240.011795 L112.219604,248.070298 L114.444165,248.070298 L114.444165,240.011795 L116.522373,240.011795 L116.522373,238.732886 L110.141395,238.732886 L110.141395,240.011795 Z M122.295988,243.394716 C122.295988,241.166939 122.515517,240.025546 123.569257,240.025546 C124.622996,240.025546 124.842525,241.166939 124.842525,243.394716 C124.842525,245.636245 124.622996,246.763885 123.569257,246.763885 C122.515517,246.763885 122.295988,245.636245 122.295988,243.394716 Z M120.012886,243.408467 C120.012886,246.461347 120.80319,248.152808 123.49608,248.152808 C126.1597,248.152808 127.110992,246.461347 127.110992,243.408467 C127.110992,240.341836 126.306053,238.636624 123.642433,238.636624 C120.934908,238.636624 120.012886,240.341836 120.012886,243.408467 Z M134.904275,238.636624 C132.738254,238.636624 131.508892,239.723009 131.508892,241.221945 C131.508892,242.432096 132.299196,243.174688 133.528559,244.027295 C134.494487,244.673625 134.845733,245.086176 134.845733,245.691252 C134.845733,246.24132 134.318864,246.763885 133.104136,246.763885 C132.621172,246.763885 132.211385,246.750133 131.640609,246.653871 L131.391809,247.946532 C132.006491,248.070298 132.694349,248.152808 133.470018,248.152808 C135.782391,248.152808 137.114201,247.038919 137.114201,245.539983 C137.114201,244.302329 136.367802,243.504729 135.109168,242.665875 C134.14324,242.005793 133.762723,241.634497 133.762723,241.070677 C133.762723,240.520608 134.201782,240.025546 135.284792,240.025546 C135.709215,240.025546 136.060461,240.039298 136.631237,240.13556 L136.880036,238.842899 C136.265355,238.719134 135.636038,238.636624 134.904275,238.636624 Z M149.422464,243.903529 L151.822649,243.903529 L151.822649,248.070298 L154.04721,248.070298 L154.04721,238.732886 L151.822649,238.732886 L151.822649,242.62462 L149.422464,242.62462 L149.422464,238.732886 L147.212538,238.732886 L147.212538,248.070298 L149.422464,248.070298 L149.422464,243.903529 Z M161.123364,243.394716 C161.123364,241.166939 161.342893,240.025546 162.396632,240.025546 C163.450372,240.025546 163.669901,241.166939 163.669901,243.394716 C163.669901,245.636245 163.450372,246.763885 162.396632,246.763885 C161.342893,246.763885 161.123364,245.636245 161.123364,243.394716 Z M158.840261,243.408467 C158.840261,246.461347 159.630566,248.152808 162.323456,248.152808 C164.987075,248.152808 165.938368,246.461347 165.938368,243.408467 C165.938368,240.341836 165.133428,238.636624 162.469809,238.636624 C159.762283,238.636624 158.840261,240.341836 158.840261,243.408467 Z M173.73165,238.636624 C171.56563,238.636624 170.336267,239.723009 170.336267,241.221945 C170.336267,242.432096 171.126572,243.174688 172.355935,244.027295 C173.321862,244.673625 173.673109,245.086176 173.673109,245.691252 C173.673109,246.24132 173.146239,246.763885 171.931512,246.763885 C171.448548,246.763885 171.03876,246.750133 170.467985,246.653871 L170.219185,247.946532 C170.833866,248.070298 171.521724,248.152808 172.297393,248.152808 C174.609766,248.152808 175.941576,247.038919 175.941576,245.539983 C175.941576,244.302329 175.195177,243.504729 173.936544,242.665875 C172.970616,242.005793 172.590099,241.634497 172.590099,241.070677 C172.590099,240.520608 173.029157,240.025546 174.112167,240.025546 C174.53659,240.025546 174.887837,240.039298 175.458612,240.13556 L175.707412,238.842899 C175.09273,238.719134 174.463414,238.636624 173.73165,238.636624 Z M180.500463,248.070298 L182.710389,248.070298 L182.710389,244.866149 L184.217822,244.866149 C186.032596,244.866149 187.276594,243.807267 187.276594,241.827021 C187.276594,239.833022 186.032596,238.732886 184.247093,238.732886 L180.500463,238.732886 L180.500463,248.070298 Z M184.993492,241.785766 C184.993492,243.064675 184.539798,243.58724 183.515329,243.58724 L182.710389,243.58724 L182.710389,240.011795 L183.368976,240.011795 C184.539798,240.011795 184.993492,240.506856 184.993492,241.785766 Z M194.001501,238.732886 L191.791575,238.732886 L191.791575,248.070298 L194.001501,248.070298 L194.001501,238.732886 Z M198.282318,240.011795 L200.360527,240.011795 L200.360527,248.070298 L202.585088,248.070298 L202.585088,240.011795 L204.663297,240.011795 L204.663297,238.732886 L198.282318,238.732886 L198.282318,240.011795 Z M209.866136,238.732886 L207.480586,248.070298 L209.807594,248.070298 L210.144206,246.15881 L212.295591,246.15881 L212.646837,248.070298 L215.090928,248.070298 L212.720014,238.732886 L209.866136,238.732886 Z M211.007687,241.318207 L211.124769,239.97054 L211.315027,239.97054 L211.43211,241.318207 L212.076062,244.879901 L210.363735,244.879901 L211.007687,241.318207 Z M221.698753,238.732886 L219.488827,238.732886 L219.488827,248.070298 L224.713619,248.070298 L224.713619,246.791389 L221.698753,246.791389 L221.698753,238.732886 Z M230.750668,238.732886 L228.365119,248.070298 L230.692127,248.070298 L231.028738,246.15881 L233.180123,246.15881 L233.53137,248.070298 L235.97546,248.070298 L233.604546,238.732886 L230.750668,238.732886 Z M231.892219,241.318207 L232.009301,239.97054 L232.19956,239.97054 L232.316642,241.318207 L232.960594,244.879901 L231.248267,244.879901 L231.892219,241.318207 Z M244.119989,238.732886 L240.373359,238.732886 L240.373359,248.070298 L242.583285,248.070298 L242.583285,244.742384 L243.329684,244.742384 L245.071281,248.070298 L247.515372,248.070298 L245.159093,244.412342 C246.373821,244.082301 247.14949,243.147185 247.14949,241.662 C247.14949,239.778016 245.905492,238.732886 244.119989,238.732886 Z M244.866388,241.717007 C244.866388,243.009668 244.398059,243.463474 243.388225,243.463474 L242.583285,243.463474 L242.583285,240.011795 L243.241872,240.011795 C244.412694,240.011795 244.866388,240.45185 244.866388,241.717007 Z M257.416133,238.732886 L251.869365,238.732886 L251.869365,248.070298 L257.416133,248.070298 L257.416133,246.791389 L254.079291,246.791389 L254.079291,243.903529 L257.064886,243.903529 L257.064886,242.62462 L254.079291,242.62462 L254.079291,240.011795 L257.416133,240.011795 L257.416133,238.732886 Z M264.975251,238.636624 C262.809231,238.636624 261.579868,239.723009 261.579868,241.221945 C261.579868,242.432096 262.370172,243.174688 263.599535,244.027295 C264.565463,244.673625 264.91671,245.086176 264.91671,245.691252 C264.91671,246.24132 264.38984,246.763885 263.175112,246.763885 C262.692148,246.763885 262.282361,246.750133 261.711585,246.653871 L261.462786,247.946532 C262.077467,248.070298 262.765325,248.152808 263.540994,248.152808 C265.853367,248.152808 267.185177,247.038919 267.185177,245.539983 C267.185177,244.302329 266.438778,243.504729 265.180145,242.665875 C264.214217,242.005793 263.8337,241.634497 263.8337,241.070677 C263.8337,240.520608 264.272758,240.025546 265.355768,240.025546 C265.780191,240.025546 266.131437,240.039298 266.702213,240.13556 L266.951012,238.842899 C266.336331,238.719134 265.707014,238.636624 264.975251,238.636624 Z M69.4941524,177.147432 C72.9296711,177.147432 75.9125097,177.535364 78.8078554,178.128673 L79.3497966,178.24228 L78.1087155,185.103326 C77.4616277,184.987206 76.8711036,184.893707 76.3200026,184.818544 L75.6765075,184.736876 C75.1542025,184.675697 74.6644644,184.631141 74.1901528,184.598923 L73.6272866,184.56591 C73.4414014,184.556698 73.2568874,184.549185 73.0726477,184.543098 L72.5196544,184.52884 L72.5196544,184.52884 L71.9617246,184.521491 L71.9617246,184.521491 L71.3922764,184.519407 L71.3922764,184.519407 C65.9899233,184.519407 63.7997801,187.147042 63.7997801,190.066636 C63.7997801,191.908226 64.5185963,193.362841 66.1944164,195.025827 L66.5199057,195.340224 C66.5760424,195.393079 66.6331283,195.446174 66.6911705,195.499526 L67.0509587,195.822884 C67.2366492,195.986256 67.431078,196.152277 67.6344413,196.321438 L68.0531388,196.664091 C68.1249266,196.721946 68.1977216,196.780186 68.2715311,196.838829 L68.7266209,197.195676 L68.7266209,197.195676 L69.2064084,197.563074 L69.2064084,197.563074 L69.7112425,197.941897 L69.7112425,197.941897 L70.5162192,198.533459 L70.5162192,198.533459 L70.8229282,198.752264 L70.8229282,198.752264 L71.4238625,199.189083 L71.4238625,199.189083 L72.0079457,199.6253 C77.3799823,203.695535 80.517873,207.757702 80.517873,213.788339 C80.517873,221.744233 73.8744387,227.656411 62.3396847,227.656411 C58.6853902,227.656411 55.4218065,227.26578 52.4874328,226.668983 L51.973007,226.561563 L53.2140881,219.700517 C55.7449202,220.154676 57.6412417,220.262809 59.72343,220.281232 L60.5145654,220.284436 L60.5145654,220.284436 C66.5739615,220.284436 69.2021333,217.510821 69.2021333,214.591227 C69.2021333,211.99728 68.0591118,210.069959 65.0806616,207.617029 L64.6426081,207.262906 L64.6426081,207.262906 L64.1791341,206.90086 L64.1791341,206.90086 L63.6897911,206.530117 L63.6897911,206.530117 L63.1741305,206.149906 L63.1741305,206.149906 L62.6317038,205.759455 L62.6317038,205.759455 L62.0451415,205.323236 C61.9485402,205.250802 61.8525234,205.178494 61.7570984,205.1063 L61.1917091,204.674392 C61.0986807,204.6026 61.0062589,204.530895 60.9144509,204.459265 L60.3710284,204.030278 C60.2817053,203.958895 60.1930108,203.887562 60.1049522,203.816264 L59.5842906,203.38881 L59.5842906,203.38881 L59.0792439,202.961606 C55.0194179,199.472112 52.5570452,195.945851 52.5570452,190.869525 C52.5570452,182.913631 58.689446,177.147432 69.4941524,177.147432 Z M258.430503,177.147432 C262.314357,177.147432 265.868777,177.542672 268.905986,178.145413 L269.381219,178.24228 L268.067133,185.103326 C265.87699,184.699961 264.232866,184.56955 262.524082,184.532518 L261.835672,184.522259 C261.71988,184.521238 261.603438,184.520525 261.486167,184.520067 L261.13168,184.519407 C254.771504,184.519407 252.006667,187.092387 250.956997,193.382567 L250.873454,193.915377 L250.873454,193.915377 L250.79761,194.465544 L250.79761,194.465544 L250.729224,195.033215 C250.718434,195.129294 250.707945,195.226108 250.697751,195.32366 L250.640096,195.917862 C250.631065,196.018381 250.622319,196.119645 250.613854,196.221656 L250.566387,196.84272 L250.566387,196.84272 L250.525411,197.481876 C250.519108,197.589918 250.513067,197.69872 250.50728,197.808285 L250.475585,198.474856 C250.4708,198.587485 250.466259,198.700883 250.461959,198.815054 L250.439002,199.50937 L250.439002,199.50937 L250.421566,200.222366 L250.421566,200.222366 L250.409412,200.954191 L250.409412,200.954191 L250.400553,202.087551 L250.400553,202.087551 L250.400554,202.860082 L250.400554,202.860082 L250.405271,203.616047 L250.405271,203.616047 L250.41499,204.352968 C250.417043,204.474209 250.419317,204.594664 250.421819,204.714334 L250.4396,205.422973 L250.4396,205.422973 L250.463128,206.112945 C250.467544,206.226393 250.472213,206.339069 250.47714,206.450978 L250.509847,207.113232 L250.509847,207.113232 L250.549045,207.757196 C250.556136,207.863008 250.563509,207.968064 250.571172,208.072367 L250.620666,208.689178 C250.647197,208.993093 250.676442,209.29029 250.708569,209.580855 L250.776712,210.153165 C251.701792,217.384965 254.598483,220.284436 262.299756,220.284436 C264.927928,220.284436 267.41009,220.065466 269.381219,218.970618 C269.308214,224.371867 265.803985,227.656411 257.846465,227.656411 C243.464525,227.656411 239.011234,219.335568 239.011234,202.547901 C239.011234,185.687245 244.048563,177.147432 258.430503,177.147432 Z M100.959209,177.658361 L100.959209,227.218472 L89.9354886,227.218472 L89.9354886,177.658361 L100.959209,177.658361 Z M123.955713,177.658361 L123.955713,220.430415 L138.994696,220.430415 L138.994696,227.218472 L112.931992,227.218472 L112.931992,177.658361 L123.955713,177.658361 Z M158.267956,177.658361 L158.267956,227.218472 L147.244235,227.218472 L147.244235,177.658361 L158.267956,177.658361 Z M197.763538,177.658361 L197.763538,184.446418 L187.39686,184.446418 L187.39686,227.218472 L176.300134,227.218472 L176.300134,184.446418 L165.933457,184.446418 L165.933457,177.658361 L197.763538,177.658361 Z M232.732824,177.658361 L232.732824,184.446418 L216.087735,184.446418 L216.087735,198.31449 L230.980709,198.31449 L230.980709,205.102546 L216.087735,205.102546 L216.087735,220.430415 L232.732824,220.430415 L232.732824,227.218472 L205.064015,227.218472 L205.064015,177.658361 L232.732824,177.658361 Z" id="Silitec"></path>
        </g>
    </g>
</svg>