<?xml version="1.0" encoding="UTF-8"?>
<svg width="32px" height="32px" viewBox="0 0 32 32" version="1.1" xmlns="http://www.w3.org/2000/svg" xmlns:xlink="http://www.w3.org/1999/xlink">
    <title>WhatsApp</title>
    <g id="Site" stroke="none" stroke-width="1" fill="none" fill-rule="evenodd">
        <g id="Mobile" transform="translate(-32.000000, -713.000000)" fill="#FFFFFF">
            <path d="M43.5285,721.12725 C43.21825,720.38425 42.983,720.356 42.513,720.337 C42.353,720.32775 42.17475,720.3185 41.977,720.3185 C41.3655,720.3185 40.72625,720.49725 40.3405,720.89225 C39.8705,721.372 38.70425,722.49125 38.70425,724.78625 C38.70425,727.0815 40.378,729.30125 40.60375,729.612 C40.839,729.922 43.867,734.7005 48.56875,736.648 C52.2455,738.17175 53.3365,738.0305 54.17325,737.852 C55.39575,737.58875 56.9285,736.68525 57.31425,735.5945 C57.69975,734.50325 57.69975,733.572 57.58675,733.3745 C57.474,733.177 57.1635,733.0645 56.6935,732.829 C56.2235,732.59375 53.93825,731.465 53.50575,731.3145 C53.0825,731.15475 52.67825,731.21125 52.35875,731.66275 C51.90725,732.293 51.4655,732.93275 51.108,733.31825 C50.826,733.61925 50.365,733.657 49.9795,733.497 C49.46225,733.281 48.01425,732.7725 46.2275,731.183 C44.845,729.951 43.90475,728.418 43.63225,727.957 C43.3595,727.48675 43.604,727.21375 43.82025,726.96 C44.0555,726.66825 44.281,726.4615 44.516,726.1885 C44.75125,725.91575 44.88275,725.77475 45.03325,725.45475 C45.19325,725.1445 45.08025,724.8245 44.9675,724.58925 C44.8545,724.3535 43.91425,722.05825 43.5285,721.12725 Z M47.99525,713 C39.17475,713 32,720.17675 32,728.99975 C32,732.49875 33.1285,735.744 35.04675,738.37775 L33.053,744.3225 L39.203,742.357 C41.7325,744.03125 44.751,745 48.00475,745 C56.82525,745 64,737.82275 64,729.00025 C64,720.17725 56.82525,713.0005 48.00475,713.0005 L47.9955,713.0005 L47.9955,713 L47.99525,713 Z" id="WhatsApp"></path>
        </g>
    </g>
</svg>