<?xml version="1.0" encoding="UTF-8"?>
<svg width="427px" height="98px" viewBox="0 0 427 98" version="1.1" xmlns="http://www.w3.org/2000/svg" xmlns:xlink="http://www.w3.org/1999/xlink">
    <title>silitec-logo-horizontal</title>
    <g id="Fonte-/-Curvas" stroke="none" stroke-width="1" fill="none" fill-rule="evenodd">
        <g id="02-Curvas-(horizontal)" transform="translate(-183.000000, -257.000000)" fill="#FFFFFF" fill-rule="nonzero">
            <path d="M269.965906,336.134981 C283.28584,320.365483 285.171513,300.276369 272.183629,289.45004 C264.24659,282.83395 246.498528,282.738178 229.856841,283.564649 L227.865848,283.667894 L227.865848,283.667894 L225.889668,283.777843 L225.889668,283.777843 L222.962344,283.950634 L222.962344,283.950634 L217.292582,284.297935 L217.292582,284.297935 L215.472814,284.40633 L215.472814,284.40633 L213.695108,284.507456 L213.695108,284.507456 L211.963659,284.599164 C203.14455,285.044952 196.345458,285.027529 194.168303,283.212715 C193.044206,282.275699 193.385073,280.912847 194.491311,279.209181 L194.677299,278.929937 C194.709378,278.882903 194.741989,278.835624 194.775118,278.7881 L194.979989,278.500045 C195.015133,278.451552 195.050767,278.402819 195.086877,278.353847 L195.424351,277.906695 L195.424351,277.906695 L195.662515,277.601562 L195.662515,277.601562 L195.910451,277.290896 L195.910451,277.290896 L196.299226,276.814703 L196.299226,276.814703 L196.845604,276.16117 L196.845604,276.16117 C203.268235,268.557404 210.653162,264.391579 217.235082,262.397025 L217.813711,262.226638 C218.678393,261.979412 219.5281,261.769568 220.358737,261.59417 L220.909626,261.482309 L220.909626,261.482309 L221.454595,261.38046 C221.815875,261.315856 222.173028,261.257798 222.525696,261.206028 L223.05129,261.133057 C223.138313,261.121671 223.225045,261.110669 223.31148,261.100049 L223.826476,261.040864 C223.911699,261.031751 223.996614,261.023011 224.081215,261.01464 L224.585008,260.968807 C224.751653,260.954984 224.916997,260.942603 225.080995,260.931633 L225.568906,260.902925 C225.649537,260.898835 225.72982,260.89509 225.80975,260.891685 C226.694417,260.814797 226.921118,260.352311 226.874679,259.825008 L226.511989,257.731173 C226.48103,257.379637 226.080724,256.883089 225.469197,257.024795 L224.915327,257.097628 L224.915327,257.097628 L224.354234,257.178137 L224.354234,257.178137 L223.78617,257.266546 L223.78617,257.266546 L223.211384,257.36308 C223.11504,257.379858 223.018427,257.396985 222.921549,257.414464 L222.337151,257.523607 L222.337151,257.523607 L221.74666,257.641436 L221.74666,257.641436 L221.150326,257.768177 C221.050463,257.790055 220.950368,257.812315 220.850045,257.834959 L220.245416,257.975489 L220.245416,257.975489 L219.635571,258.125492 C211.470645,260.189685 201.981662,264.840038 193.844393,274.473767 C180.524459,290.243266 179.061229,309.055872 191.760493,319.641616 C200.215124,326.689156 219.045428,327.016118 236.162074,326.529401 L238.128779,326.469967 L238.128779,326.469967 L240.076147,326.405327 L240.076147,326.405327 L242.951914,326.303017 L242.951914,326.303017 L247.589709,326.13504 L247.589709,326.13504 L249.378487,326.07462 C249.673056,326.065068 249.965788,326.055803 250.256597,326.046868 L251.977679,325.997543 C260.743576,325.766584 267.495801,325.932756 269.672955,327.747569 C270.69515,328.599642 270.264637,329.958488 269.265871,331.487797 L269.089253,331.751571 L269.089253,331.751571 L268.902491,332.018308 L268.902491,332.018308 L268.706577,332.287632 L268.706577,332.287632 L268.5025,332.559166 L268.5025,332.559166 L268.291251,332.832534 L268.291251,332.832534 L267.851196,333.383264 L267.851196,333.383264 L267.27842,334.075284 L267.27842,334.075284 L267.045422,334.352007 L267.045422,334.352007 C256.470201,346.872032 244.298249,351.38363 233.847026,351.140734 C233.316226,351.186867 233.008798,351.744926 232.95903,352.192034 L233.225513,354.205674 C233.256472,354.55721 233.479845,355.069136 234.364512,354.992247 C246.138324,354.057515 258.583417,349.610734 269.965906,336.134981 Z M313,354.887283 L316.070661,354.887283 L316.070661,350.510116 L318.165217,350.510116 C320.68682,350.510116 322.415337,349.063584 322.415337,346.358382 C322.415337,343.634393 320.68682,342.131503 318.205888,342.131503 L313,342.131503 L313,354.887283 Z M319.242999,346.302023 C319.242999,348.049133 318.612598,348.763006 317.189113,348.763006 L316.070661,348.763006 L316.070661,343.878613 L316.985758,343.878613 C318.612598,343.878613 319.242999,344.554913 319.242999,346.302023 Z M333.79305,342.131503 L328.587162,342.131503 L328.587162,354.887283 L331.657823,354.887283 L331.657823,350.34104 L332.694933,350.34104 L335.114858,354.887283 L338.510887,354.887283 L335.236871,349.890173 C336.924718,349.439306 338.002499,348.16185 338.002499,346.132948 C338.002499,343.559249 336.273982,342.131503 333.79305,342.131503 Z M334.830161,346.208092 C334.830161,347.973988 334.179425,348.593931 332.776275,348.593931 L331.657823,348.593931 L331.657823,343.878613 L332.57292,343.878613 C334.19976,343.878613 334.830161,344.479769 334.830161,346.208092 Z M347.346662,348.5 C347.346662,345.456647 347.651695,343.897399 349.115851,343.897399 C350.580007,343.897399 350.885039,345.456647 350.885039,348.5 C350.885039,351.562139 350.580007,353.102601 349.115851,353.102601 C347.651695,353.102601 347.346662,351.562139 347.346662,348.5 Z M344.174324,348.518786 C344.174324,352.689306 345.272441,355 349.014173,355 C352.715235,355 354.037042,352.689306 354.037042,348.518786 C354.037042,344.32948 352.91859,342 349.217528,342 C345.45546,342 344.174324,344.32948 344.174324,348.518786 Z M370.213934,348.518786 C370.213934,344.32948 368.851455,342.131503 364.906368,342.131503 L364.703013,342.131503 L360.717254,342.131503 L360.717254,354.887283 L364.642006,354.887283 C368.6481,354.887283 370.213934,352.689306 370.213934,348.518786 Z M364.703013,343.878613 C366.512872,343.878613 367.061931,344.799133 367.061931,348.518786 C367.061931,352.182081 366.512872,353.140173 364.906368,353.140173 L363.787915,353.140173 L363.787915,343.878613 L364.703013,343.878613 Z M376.670455,350.265896 C376.670455,352.952312 377.605888,355 381.327285,355 C385.048682,355 386.18747,352.952312 386.18747,350.265896 L386.18747,342.131503 L383.177816,342.131503 L383.177816,349.833815 C383.177816,351.693642 382.954125,353.102601 381.489969,353.102601 C380.046149,353.102601 379.863129,351.693642 379.863129,349.833815 L379.863129,342.131503 L376.670455,342.131503 L376.670455,350.265896 Z M391.789901,343.878613 L394.677542,343.878613 L394.677542,354.887283 L397.768538,354.887283 L397.768538,343.878613 L400.656179,343.878613 L400.656179,342.131503 L391.789901,342.131503 L391.789901,343.878613 Z M408.678535,348.5 C408.678535,345.456647 408.983567,343.897399 410.447723,343.897399 C411.911879,343.897399 412.216912,345.456647 412.216912,348.5 C412.216912,351.562139 411.911879,353.102601 410.447723,353.102601 C408.983567,353.102601 408.678535,351.562139 408.678535,348.5 Z M405.506197,348.518786 C405.506197,352.689306 406.604314,355 410.346046,355 C414.047107,355 415.368915,352.689306 415.368915,348.518786 C415.368915,344.32948 414.250462,342 410.549401,342 C406.787333,342 405.506197,344.32948 405.506197,348.518786 Z M426.197569,342 C423.187915,342 421.479733,343.484104 421.479733,345.531792 C421.479733,347.184971 422.57785,348.199422 424.286032,349.364162 C425.628175,350.24711 426.116227,350.810694 426.116227,351.637283 C426.116227,352.388728 425.384149,353.102601 423.696303,353.102601 C423.025231,353.102601 422.455837,353.083815 421.662752,352.952312 L421.317049,354.718208 C422.17114,354.887283 423.126909,355 424.20469,355 C427.417699,355 429.26823,353.478324 429.26823,351.430636 C429.26823,349.739884 428.231119,348.650289 426.482266,347.504335 C425.140123,346.602601 424.6114,346.095376 424.6114,345.325145 C424.6114,344.573699 425.221465,343.897399 426.726292,343.897399 C427.316022,343.897399 427.804074,343.916185 428.597159,344.047688 L428.942862,342.281792 C428.088771,342.112717 427.214344,342 426.197569,342 Z M446.370387,349.195087 L449.705409,349.195087 L449.705409,354.887283 L452.796405,354.887283 L452.796405,342.131503 L449.705409,342.131503 L449.705409,347.447977 L446.370387,347.447977 L446.370387,342.131503 L443.299726,342.131503 L443.299726,354.887283 L446.370387,354.887283 L446.370387,349.195087 Z M462.62862,348.5 C462.62862,345.456647 462.933653,343.897399 464.397809,343.897399 C465.861965,343.897399 466.166998,345.456647 466.166998,348.5 C466.166998,351.562139 465.861965,353.102601 464.397809,353.102601 C462.933653,353.102601 462.62862,351.562139 462.62862,348.5 Z M459.456282,348.518786 C459.456282,352.689306 460.554399,355 464.296131,355 C467.997193,355 469.319,352.689306 469.319,348.518786 C469.319,344.32948 468.200548,342 464.499486,342 C460.737419,342 459.456282,344.32948 459.456282,348.518786 Z M480.147655,342 C477.138001,342 475.429819,343.484104 475.429819,345.531792 C475.429819,347.184971 476.527936,348.199422 478.236118,349.364162 C479.578261,350.24711 480.066313,350.810694 480.066313,351.637283 C480.066313,352.388728 479.334235,353.102601 477.646388,353.102601 C476.975317,353.102601 476.405923,353.083815 475.612838,352.952312 L475.267135,354.718208 C476.121226,354.887283 477.076994,355 478.154776,355 C481.367785,355 483.218316,353.478324 483.218316,351.430636 C483.218316,349.739884 482.181205,348.650289 480.432352,347.504335 C479.090209,346.602601 478.561486,346.095376 478.561486,345.325145 C478.561486,344.573699 479.171551,343.897399 480.676378,343.897399 C481.266107,343.897399 481.75416,343.916185 482.547244,344.047688 L482.892948,342.281792 C482.038857,342.112717 481.16443,342 480.147655,342 Z M489.552824,354.887283 L492.623485,354.887283 L492.623485,350.510116 L494.718042,350.510116 C497.239644,350.510116 498.968162,349.063584 498.968162,346.358382 C498.968162,343.634393 497.239644,342.131503 494.758713,342.131503 L489.552824,342.131503 L489.552824,354.887283 Z M495.795823,346.302023 C495.795823,348.049133 495.165423,348.763006 493.741938,348.763006 L492.623485,348.763006 L492.623485,343.878613 L493.538583,343.878613 C495.165423,343.878613 495.795823,344.554913 495.795823,346.302023 Z M508.312325,342.131503 L505.241664,342.131503 L505.241664,354.887283 L508.312325,354.887283 L508.312325,342.131503 Z M514.260459,343.878613 L517.1481,343.878613 L517.1481,354.887283 L520.239096,354.887283 L520.239096,343.878613 L523.126737,343.878613 L523.126737,342.131503 L514.260459,342.131503 L514.260459,343.878613 Z M530.356008,342.131503 L527.041321,354.887283 L530.274666,354.887283 L530.742383,352.276012 L533.731701,352.276012 L534.219754,354.887283 L537.615782,354.887283 L534.321431,342.131503 L530.356008,342.131503 Z M531.942177,345.663295 L532.104861,343.822254 L532.369223,343.822254 L532.531907,345.663295 L533.426669,350.528902 L531.047415,350.528902 L531.942177,345.663295 Z M546.797261,342.131503 L543.7266,342.131503 L543.7266,354.887283 L550.986375,354.887283 L550.986375,353.140173 L546.797261,353.140173 L546.797261,342.131503 Z M559.374769,342.131503 L556.060082,354.887283 L559.293427,354.887283 L559.761143,352.276012 L562.750462,352.276012 L563.238514,354.887283 L566.634543,354.887283 L563.340192,342.131503 L559.374769,342.131503 Z M560.960938,345.663295 L561.123622,343.822254 L561.387984,343.822254 L561.550668,345.663295 L562.44543,350.528902 L560.066176,350.528902 L560.960938,345.663295 Z M577.95125,342.131503 L572.745361,342.131503 L572.745361,354.887283 L575.816022,354.887283 L575.816022,350.34104 L576.853132,350.34104 L579.273057,354.887283 L582.669086,354.887283 L579.39507,349.890173 C581.082917,349.439306 582.160698,348.16185 582.160698,346.132948 C582.160698,343.559249 580.432181,342.131503 577.95125,342.131503 Z M578.98836,346.208092 C578.98836,347.973988 578.337624,348.593931 576.934474,348.593931 L575.816022,348.593931 L575.816022,343.878613 L576.731119,343.878613 C578.35796,343.878613 578.98836,344.479769 578.98836,346.208092 Z M596.426053,342.131503 L588.718898,342.131503 L588.718898,354.887283 L596.426053,354.887283 L596.426053,353.140173 L591.789558,353.140173 L591.789558,349.195087 L595.938001,349.195087 L595.938001,347.447977 L591.789558,347.447977 L591.789558,343.878613 L596.426053,343.878613 L596.426053,342.131503 Z M606.929339,342 C603.919685,342 602.211503,343.484104 602.211503,345.531792 C602.211503,347.184971 603.30962,348.199422 605.017802,349.364162 C606.359945,350.24711 606.847997,350.810694 606.847997,351.637283 C606.847997,352.388728 606.115919,353.102601 604.428073,353.102601 C603.757001,353.102601 603.187607,353.083815 602.394522,352.952312 L602.048819,354.718208 C602.90291,354.887283 603.858679,355 604.93646,355 C608.149469,355 610,353.478324 610,351.430636 C610,349.739884 608.962889,348.650289 607.214036,347.504335 C605.871893,346.602601 605.34317,346.095376 605.34317,345.325145 C605.34317,344.573699 605.953235,343.897399 607.458062,343.897399 C608.047792,343.897399 608.535844,343.916185 609.328928,344.047688 L609.674632,342.281792 C608.820541,342.112717 607.946114,342 606.929339,342 Z M336.935527,257 C341.628768,257 345.703605,257.529952 349.658919,258.340466 L350.399261,258.495665 L348.703828,267.868497 C347.819846,267.709866 347.013134,267.582137 346.260279,267.479458 L345.381204,267.367891 C344.667686,267.284315 343.998658,267.223447 343.350704,267.179435 L342.581776,267.134337 C342.327839,267.121751 342.075776,267.111488 341.824087,267.103172 L341.068647,267.083695 L341.068647,267.083695 L340.306462,267.073656 L340.306462,267.073656 L339.528543,267.070809 L339.528543,267.070809 C332.148422,267.070809 329.156481,270.660405 329.156481,274.648844 C329.156481,277.164629 330.138451,279.151768 332.427779,281.423563 L332.872427,281.853059 C332.949115,281.925264 333.0271,281.997796 333.106391,282.070681 L333.597896,282.512418 C333.851566,282.7356 334.117174,282.9624 334.394988,283.19349 L334.966968,283.661586 C335.065036,283.740621 335.164481,283.820182 335.265312,283.900295 L335.887007,284.38778 L335.887007,284.38778 L336.542442,284.889681 L336.542442,284.889681 L337.232093,285.407188 L337.232093,285.407188 L338.331766,286.215318 L338.331766,286.215318 L338.75076,286.514225 L338.75076,286.514225 L339.571692,287.110961 L339.571692,287.110961 L340.369605,287.706875 C347.70831,293.267197 351.994963,298.816498 351.994963,307.054913 C351.994963,317.92341 342.919409,326 327.161854,326 C322.169745,326 317.711383,325.466362 313.702754,324.651081 L313,324.504335 L314.695433,315.131503 C318.152787,315.751927 320.74334,315.899647 323.587804,315.924814 L324.66857,315.929191 L324.66857,315.929191 C332.946273,315.929191 336.536602,312.140173 336.536602,308.151734 C336.536602,304.608159 334.975127,301.975258 330.906285,298.624326 L330.307863,298.140561 L330.307863,298.140561 L329.674714,297.645971 L329.674714,297.645971 L329.006226,297.139503 L329.006226,297.139503 L328.301785,296.620099 L328.301785,296.620099 L327.560779,296.086705 L327.560779,296.086705 L326.75948,295.490789 C326.627514,295.391838 326.496346,295.293059 326.365986,295.194435 L325.593611,294.604408 C325.466526,294.506332 325.340269,294.408377 325.214851,294.310524 L324.472485,293.724488 C324.350461,293.626972 324.229296,293.529524 324.109,293.432125 L323.397727,292.848183 L323.397727,292.848183 L322.707786,292.264582 C317.161683,287.497605 313.797851,282.680403 313.797851,275.745665 C313.797851,264.877168 322.175285,257 336.935527,257 Z M595.040296,257 C600.346004,257 605.201675,257.539935 609.350786,258.363336 L610,258.495665 L608.204835,267.868497 C605.212895,267.317463 602.966867,267.139309 600.632507,267.088719 L599.692075,267.074705 C599.533892,267.07331 599.374822,267.072336 599.214618,267.071711 L598.730356,267.070809 C590.04176,267.070809 586.264733,270.585741 584.830785,279.178715 L584.716658,279.906585 L584.716658,279.906585 L584.613048,280.658165 L584.613048,280.658165 L584.519625,281.433656 C584.504885,281.564909 584.490556,281.697166 584.476631,281.830432 L584.397869,282.642167 C584.385531,282.779485 584.373584,282.917821 584.362019,283.057178 L584.297176,283.90561 L584.297176,283.90561 L584.241198,284.778757 C584.232588,284.926352 584.224335,285.074986 584.21643,285.224662 L584.173131,286.13526 C584.166594,286.289122 584.160392,286.444035 584.154517,286.600003 L584.123155,287.548503 L584.123155,287.548503 L584.099336,288.522523 L584.099336,288.522523 L584.082732,289.522264 L584.082732,289.522264 L584.07063,291.070541 L584.07063,291.070541 L584.070632,292.12589 L584.070632,292.12589 L584.077076,293.158609 L584.077076,293.158609 L584.090353,294.165312 C584.093158,294.330939 584.096264,294.495491 584.099681,294.658972 L584.123972,295.627039 L584.123972,295.627039 L584.156113,296.569605 C584.162147,296.724586 584.168525,296.878513 584.175255,297.03139 L584.219936,297.936092 L584.219936,297.936092 L584.273485,298.815807 C584.283171,298.960356 584.293244,299.103872 584.303712,299.24636 L584.371325,300.088982 C584.40757,300.504158 584.447521,300.910158 584.491409,301.307096 L584.584499,302.088926 C585.848245,311.968242 589.805396,315.929191 600.326058,315.929191 C603.916387,315.929191 607.307253,315.630058 610,314.134393 C609.900269,321.513006 605.113163,326 594.242445,326 C574.595366,326 568.511753,314.632948 568.511753,291.699422 C568.511753,268.666185 575.393217,257 595.040296,257 Z M379.919745,257.697977 L379.919745,325.401734 L364.860309,325.401734 L364.860309,257.697977 L379.919745,257.697977 Z M411.335124,257.697977 L411.335124,316.128613 L431.879785,316.128613 L431.879785,325.401734 L396.275688,325.401734 L396.275688,257.697977 L411.335124,257.697977 Z M458.208865,257.697977 L458.208865,325.401734 L443.149429,325.401734 L443.149429,257.697977 L458.208865,257.697977 Z M512.163533,257.697977 L512.163533,266.971098 L498.001679,266.971098 L498.001679,325.401734 L482.842512,325.401734 L482.842512,266.971098 L468.680658,266.971098 L468.680658,257.697977 L512.163533,257.697977 Z M559.934856,257.697977 L559.934856,266.971098 L537.196105,266.971098 L537.196105,285.916185 L557.541303,285.916185 L557.541303,295.189306 L537.196105,295.189306 L537.196105,316.128613 L559.934856,316.128613 L559.934856,325.401734 L522.136669,325.401734 L522.136669,257.697977 L559.934856,257.697977 Z" id="silitec-logo-horizontal"></path>
        </g>
    </g>
</svg>