<?xml version="1.0" encoding="UTF-8"?>
<svg width="32px" height="24px" viewBox="0 0 32 24" version="1.1" xmlns="http://www.w3.org/2000/svg" xmlns:xlink="http://www.w3.org/1999/xlink">
    <title>Email</title>
    <g id="Site" stroke="none" stroke-width="1" fill="none" fill-rule="evenodd">
        <g id="Mobile" transform="translate(-32.000000, -979.000000)" fill="#FFFFFF" fill-rule="nonzero">
            <path d="M58.6666667,979 L37.3333333,979 C34.4,979 32,981.4 32,984.333333 L32,997.666667 C32,1000.6 34.4,1003 37.3333333,1003 L58.6666667,1003 C61.6,1003 64,1000.6 64,997.666667 L64,984.333333 C64,981.4 61.6,979 58.6666667,979 Z M60.8,986.733333 L50.2666667,993.8 C49.6,994.2 48.8,994.466667 48,994.466667 C47.2,994.466667 46.4,994.2 45.7333333,993.8 L35.2,986.733333 C34.6666667,986.333333 34.5333333,985.533333 34.9333333,984.866667 C35.3333333,984.333333 36.1333333,984.2 36.8,984.6 L47.3333333,991.666667 C47.7333333,991.933333 48.4,991.933333 48.8,991.666667 L59.3333333,984.6 C60,984.2 60.8,984.333333 61.2,985 C61.4666667,985.533333 61.3333333,986.333333 60.8,986.733333 Z" id="Email"></path>
        </g>
    </g>
</svg>